<?xml version="1.0" standalone="no"?>
<!DOCTYPE svg PUBLIC "-//W3C//DTD SVG 1.1//EN" 
  "http://www.w3.org/Graphics/SVG/1.1/DTD/svg11.dtd">
<svg width="2.0000002123902485m" height="1.9999999739716692m" viewBox="0 0 2.0000002123902485 1.9999999739716692"
     xmlns="http://www.w3.org/2000/svg" version="1.1">
<desc>Outline to SVG export</desc>
	<path fill-rule="evenodd" fill="#000000" stroke="#555555" stroke-width="0" opacity="1" d="M 2.6028301332761105e-08,3.088044940535254e-07 L 1.7358498933387626e-07,4.7160816665171434e-07 L 2.000000064833578,1.9999998264150458 L 2.0000002276373,1.9999999739716985 L 2.00000023841855,1.999999754513785 L 2.0000000000000293,2.4548617276839964e-07 L 1.9999999885047657,1.149523407228662e-08 L 1.9999999701674371,1.0594376080204156e-08 L 1.9999997545154113,2.92645540230729e-14 L 0.9999999403950695,1.1920928955083236e-07 L 2.4548619394771575e-07,2.9802317998059835e-07 L 5.5044617116635756e-08,3.0737900781559054e-07 L 2.6028301332761105e-08,3.088044940535254e-07 z M 1.2500000506104374,0.550024237174192 L 1.2500000987630584,0.5500232570028041 L 1.250000242757406,0.5500222862709911 L 1.2500004812067356,0.5500213343274309 L 1.25000081181465,0.5500204103398599 L 1.2500012313972146,0.550019523206783 L 1.25000173591362,0.5500186814717765 L 1.2500023205050976,0.5500178932412081 L 1.2500029795417122,0.5500171661061688 L 1.2500037066765812,0.5500165070693663 L 1.2500044949069986,0.5500159224776852 L 1.2500053366418749,0.5500154179610622 L 1.2500062237748433,0.5500149983782685 L 1.2500071477623291,0.5500146677701153 L 1.2500080997058276,0.5500144293205398 L 1.2500090704376035,0.5500142853259415 L 1.2500100506089789,0.5500142371730674 L 1.2500110307803685,0.5500142853256557 L 1.250012001512186,0.5500144293199706 L 1.2500129534557542,0.5500146677692684 L 1.2500138774433365,0.5500149983771521 L 1.2500147645764272,0.5500154179596871 L 1.2500156063114507,0.5500159224760643 L 1.2500163945420386,0.5500165070675157 L 1.2500171216770999,0.550017166104106 L 1.9000000409916895,1.1999998740987405 L 1.9000002037954264,1.2000000216553957 L 1.9000002145765749,1.1999998021974483 L 1.9000001026566042,1.0122292052750423 L 1.9000001507586728,1.0122282256122221 L 1.900000294603279,1.0122272553742209 L 1.9000005328065614,1.0122263038952424 L 1.9000008630768779,1.0122253803290195 L 1.900001282236853,1.0122244935607492 L 1.9000017862539456,1.0122236521216124 L 1.9000023702792432,1.0122228641067004 L 1.9000030286941134,1.0122221370971345 L 1.9000037551642555,1.0122214780871324 L 1.9000045427006411,1.0122208934167198 L 1.9000053837267528,1.0122203887107364 L 1.900006270151473,1.0122199688247215 L 1.9000071934469258,1.0122196377982013 L 1.9000081447305188,1.0122193988158268 L 1.9000091148503997,1.0122192541767345 L 1.9000100944735003,1.01221920527243 L 1.9000110741753267,1.0122192525733982 L 1.9000120445306274,1.0122193956245786 L 1.90001299620407,1.0122196330497433 L 1.900013920040051,1.0122199625647361 L 1.9000148071507779,1.0122203809994479 L 1.9000156490017752,1.012220884328315 L 1.9000164374939899,1.0122214677090464 L 1.900017165041708,1.0122221255292103 L 1.9000178246455348,1.0122228514602274 L 1.9000184099597317,1.0122236385182566 L 1.9000189153532654,1.0122244791313817 L 1.900019335963982,1.0122253652124586 L 1.9000196677453836,1.0122262882369175 L 1.9000199075055566,1.0122272393247735 L 1.9000200529378812,1.0122282093260564 L 1.9000201026432215,1.0122291889088397 L 1.9012460312612205,1.761562222335893 L 1.9012459846378706,1.7615632033513415 L 1.901245842007858,1.761564175062063 L 1.9012456047469413,1.7615651280952755 L 1.9012452751436568,1.761566053258354 L 1.9012448563772424,1.7615669416274986 L 1.9012443524869727,1.761567784633811 L 1.9012437683331969,1.761568574145947 L 1.9012431095504583,1.7615693025485488 L 1.9012423824931448,1.761569962815699 L 1.9012415941741974,1.7615705485786919 L 1.9012407521974646,1.761571054187462 L 1.9012398646843602,1.7615714747650844 L 1.9012389401955252,1.7615718062548138 L 1.9012379876482557,1.7615720454592163 L 1.90123701623049,1.7615721900710102 L 1.9012360353121838,1.76157223869532 L 1.9012350543549326,1.7615721908631332 L 1.901234082820707,1.761572047035822 L 1.9012331300805867,1.7615718086006946 L 1.9012322053243698,1.7615714778576128 L 1.9012313174719315,1.761571057996809 L 1.9012304750871862,1.7615705530681132 L 1.9012296862954827,1.7615699679418915 L 1.9012289587052302,1.7615693082620667 L 1.2500030410235363,1.1100667231061374 L 1.250002382309715,1.1100659960365733 L 1.2500017980121272,1.1100652079183218 L 1.2500012937548357,1.1100643663372898 L 1.2500008743914888,1.1100634793939812 L 1.2500005439586015,1.1100625556255272 L 1.2500003056367026,1.1100616039235138 L 1.250000161719722,1.1100606334483971 L 1.2500001135929093,1.1100596535413305 L 1.2500000506104374,0.550024237174192 z M 1.2499999885047575,0.10000003533710619 L 1.2499997545137342,0.10000002384195546 L 1.1128646603165868,0.10000007833455463 L 1.112863680628654,0.10000003022981836 L 1.1128627103662851,0.09999988637764784 L 1.112861758864399,0.09999964816204841 L 1.112860835277419,0.09999931787489832 L 1.1128599484911985,0.09999889869389857 L 1.1128591070375302,0.09999839465200006 L 1.112858319012061,0.09999781059860254 L 1.1128575919964034,0.09999715215289845 L 1.1128569329851938,0.09999642564981041 L 1.1128563483187954,0.09999563807904292 L 1.1128558436222982,0.09999479701783406 L 1.1128554237514,0.09999391055805489 L 1.112855092745689,0.09999298722835717 L 1.1128548537897798,0.09999203591211912 L 1.112854709182673,0.09999106576197818 L 1.1128546603156373,0.09999008611177318 L 1.1128547076588238,0.09998910638674338 L 1.112854850756742,0.09998813601284787 L 1.1128550882326438,0.09998718432607828 L 1.1128554178017673,0.09998626048263692 L 1.1128558362933199,0.09998537337084475 L 1.1128563396809834,0.09998453152562659 L 1.112856923121653,0.0999837430463964 L 1.1128575810020311,0.0999830155191327 L 1.112858306992634,0.09998235594339354 L 1.1128590941086882,0.09998177066497367 L 1.11285993477733,0.09998126531485148 L 1.1128608209104653,0.09998084475501316 L 1.1128617439825854,0.09998051303167552 L 1.1128626951127898,0.09998027333635708 L 1.1128636651502308,0.09998012797517253 L 1.1128646447621544,0.09998007834664548 L 1.9012358030392964,0.09875412354831999 L 1.9012367851116185,0.09875417035405018 L 1.9012377578409911,0.09875431337289495 L 1.9012387118244594,0.09875455122235285 L 1.901239637840277,0.0987548816032359 L 1.9012405269370487,0.09875530132189472 L 1.9012413705202602,0.0987558063210903 L 1.9012421604353569,0.09875639171921342 L 1.90124288904657,0.09875705185747323 L 1.9012435493107303,0.09875778035459817 L 1.9012441348453488,0.09875857016852109 L 1.9012446399903151,0.09875941366445183 L 1.9012450598626112,0.09876030268867944 L 1.9012453904035127,0.09876122864739054 L 1.9012456284178236,0.0987621825897421 L 1.9012457716047622,0.0987631552943853 L 1.9012458185802021,0.09876413735860433 L 1.90000012867247,0.9999759050047279 L 1.900000079222184,0.9999768845355128 L 1.8999999340550762,0.9999778545109765 L 1.8999996945675464,0.999978805600674 L 1.8999993630632872,0.9999797286558271 L 1.8999989427311237,0.9999806147973292 L 1.8999984376143402,0.999981455501156 L 1.8999978525717856,0.9999822426803597 L 1.8999971932311357,0.9999829687628597 L 1.8999964659347588,0.9999836267642804 L 1.8999956776787073,0.999984210355136 L 1.8999948360454197,0.9999847139217146 L 1.8999939491307853,0.9999851326200792 L 1.8999930254662651,0.9999854624226617 L 1.8999920739368272,0.9999857001570058 L 1.8999911036954797,0.9999858435362832 L 1.8999901240752255,0.9999858911812916 L 1.8999891444992851,0.9999858426337211 L 1.8999881743904534,0.9999856983605636 L 1.8999872230804582,0.9999854597496198 L 1.8999862997201966,0.9999851290961503 L 1.8999854131917102,0.9999847095807963 L 1.899984572022746,0.9999842052389846 L 1.8999837843047258,0.9999836209221097 L 1.8999830576149135,0.9999829622508669 L 1.250002957047826,0.3500029908232091 L 1.2500022980110423,0.35000226368831705 L 1.2500017134193824,0.35000147545787824 L 1.2500012089027834,0.35000063372298257 L 1.2500007893200156,0.34999974658999683 L 1.2500004587118902,0.34999882260249643 L 1.2500002202623444,0.3499978706589858 L 1.2500000762677772,0.34999689992720096 L 1.2500000281149353,0.3499959197558194 L 1.2500000000000275,0.10000026932812481 L 1.2499999885047575,0.10000003533710619 z M 0.7999999783445833,0.10000015383241492 L 0.8000001259012745,0.10000031663608125 L 1.09999713649374,0.3999972296946688 L 1.0999977955305988,0.399997956829555 L 1.0999983801223308,0.39999874505999805 L 1.099998884638997,0.3999995867949074 L 1.0999993042218263,0.4000004739279152 L 1.0999996348300065,0.40000139791544514 L 1.0999998732795995,0.4000023498589917 L 1.1000000172742055,0.4000033205908175 L 1.1000000654270776,0.4000043007622439 L 1.100000143047802,0.959975962365 L 1.100000094903279,0.9599769424544229 L 1.0999999509330194,0.959977913106645 L 1.0999997125233028,0.9599788649753224 L 1.09999938196976,0.9599797888949765 L 1.0999989624552684,0.9599806759692481 L 1.0999984580193045,0.9599815176565595 L 1.0999978735190479,0.9599823058523612 L 1.0999972145826113,0.9599830329671696 L 1.099996487554849,0.9599836919996458 L 1.0999956994362614,0.9599842766040112 L 1.099994857815589,0.9599847811511502 L 1.0999939707967392,0.9599852007828128 L 1.0999930469207564,0.9599855314583945 L 1.0999920950835793,0.9599857699938426 L 1.0999911244503828,0.9599859140923156 L 1.099990144367328,0.9599859623662991 L 1.0999891642715676,0.9599859143509663 L 1.0999881936003766,0.9599857705086535 L 1.0999872417002816,0.9599855322244085 L 1.0999863177370641,0.959985201792654 L 1.0999854306075023,0.9599847823950949 L 1.0999845888537065,0.9599842780700816 L 1.0999838005808662,0.9599836936737253 L 1.099983073379207,0.9599830348331384 L 0.2384306315252203,0.09877145841625477 L 0.2384299718598776,0.09877073082120216 L 0.23842938674805148,0.09876994202650398 L 0.23842888183345515,0.09876909964050257 L 0.23842846198625714,0.09876821178845675 L 0.23842813125610587,0.09876728703416938 L 0.2384278928330687,0.09876633429738502 L 0.238427749016862,0.09876536276775416 L 0.2384277011946692,0.09876438181619429 L 0.2384277498277606,0.09876340090450236 L 0.2384278944470444,0.0987624294940908 L 0.23842813365759102,0.09876147695472713 L 0.23842846515208813,0.09876055247415766 L 0.23842888573309584,0.09875966496948675 L 0.23842939134388777,0.09875882300116667 L 0.23842997710758024,0.09875803469042747 L 0.23843063737417242,0.09875730764094345 L 0.23843136577504356,0.0987566488654917 L 0.23843215528438177,0.09875606471831005 L 0.23843299828695164,0.09875556083380727 L 0.23843388665154722,0.09875514207221606 L 0.2384348118094218,0.09875481247271359 L 0.23843576483693807,0.09875457521446152 L 0.23843673654164124,0.09875443258594123 L 0.23843771755092516,0.0987543859628803 L 0.9877751532236114,0.0999800871031727 L 0.9877761328062297,0.099980136808188 L 0.9877771028073828,0.09998028224015561 L 0.9877780538951488,0.09998052199994335 L 0.9877789769195621,0.09998085378093574 L 0.9877798630006415,0.0999812743912248 L 0.98778070361382,0.0999817797843179 L 0.9877814906719559,0.09998236509806717 L 0.9877822166031353,0.09998302470144592 L 0.9877828744235175,0.09998375224872208 L 0.9877834578045241,0.09998454074050746 L 0.9877839611337222,0.09998538259109561 L 0.9877843795688198,0.09998626970144026 L 0.9877847090842506,0.09998719353707243 L 0.9877849465099027,0.09998814521020653 L 0.987785089561616,0.09998911556524553 L 0.9877851368631579,0.09999009526686264 L 0.9877850879594626,0.09999107488981206 L 0.9877849433210092,0.09999204500960478 L 0.9877847043392961,0.09999299629317723 L 0.987784373313453,0.09999391958868015 L 0.9877839534281233,0.09999480601352427 L 0.987783448722825,0.09999564703983552 L 0.9877828640530888,0.09999643457649758 L 0.9877822050437459,0.0999971610469928 L 0.9877814780348134,0.09999781946229219 L 0.9877806900205003,0.09999840348809362 L 0.9877798485819195,0.09999890750576115 L 0.9877789618141536,0.09999932666637922 L 0.9877780382483757,0.0999996569374018 L 0.9877770867697753,0.09999989514144762 L 0.987776116532078,0.10000003898686825 L 0.9877751368694815,0.10000008708979494 L 0.8000001978024912,0.1000001430510743 L 0.7999999783445833,0.10000015383241492 z M 1.0999900383018688,0.10000006900876808 L 1.099991017503351,0.1000001184888015 L 1.0999919871529393,0.1000002636214725 L 1.0999929379295492,0.10000050301164426 L 1.0999938606935191,0.10000083435809774 L 1.0999947465744684,0.10000125447565315 L 1.0999955870565665,0.1000017593257884 L 1.0999963740603953,0.10000234405546087 L 1.0999971000206143,0.1000030030437588 L 1.0999977579586855,0.10000372995593436 L 1.0999983415499563,0.10000451780429845 L 1.099998845184459,0.10000535901539225 L 1.0999992640208358,0.10000624550278962 L 1.099999594032881,0.10000716874483072 L 1.0999998320482418,0.1000081198665392 L 1.0999999757789156,0.10000908972493601 L 1.1000000238432421,0.10001006899692932 L 1.100000037700059,0.19997595914472313 L 1.09999998954746,0.19997693931614938 L 1.099999845553127,0.19997791004800203 L 1.0999996071038043,0.19997886199160234 L 1.0999992764958895,0.19997978597921276 L 1.0999988569133172,0.19998067311232723 L 1.0999983523968975,0.19998151484736856 L 1.0999977678053992,0.19998230307796794 L 1.0999971087687583,0.19998303021303354 L 1.0999963816338583,0.19998368924985696 L 1.0999955934034056,0.19998427384155312 L 1.099994751668491,0.19998477835818418 L 1.0999938645354816,0.19998519794097908 L 1.0999929405479543,0.19998552854912596 L 1.0999919886044138,0.1999857669986876 L 1.0999910178725973,0.19998591099326418 L 1.0999900377011833,0.19998595914610928 L 1.0999890575297582,0.1999859109934846 L 1.0999880867979093,0.19998576699912626 L 1.0999871348543153,0.19998552854977872 L 1.0999862108667136,0.1999851979418396 L 1.0999853237336101,0.1999847783592442 L 1.0999844819985818,0.1999842738428024 L 1.0999836937679979,0.1999836892512835 L 1.0999829666329495,0.19998303021462357 L 1.0000170377509312,0.10001712119404887 L 1.0000163790795615,0.10001639450438864 L 1.0000157947625432,0.10001560678650907 L 1.0000152904205728,0.100014765617672 L 1.0000148709050458,0.10001387908929779 L 1.0000145402513907,0.1000129557291319 L 1.00001430164025,0.10001200441921433 L 1.0000141573668866,0.10001103431044094 L 1.0000141088191028,0.10001005473453867 L 1.0000141564638922,0.1000090751143012 L 1.0000142998429475,0.10000810487294869 L 1.0000145375770684,0.10000715334348335 L 1.000014867379429,0.10000622967891298 L 1.0000152860775753,0.1000053427642057 L 1.0000157896439414,0.10000450113082322 L 1.0000163732345926,0.10000371287465448 L 1.0000170312358194,0.10000298557813922 L 1.0000177573181381,0.10000232623733053 L 1.0000185444971754,0.100001741194598 L 1.0000193852008525,0.1000012360776188 L 1.000020271342224,0.10000081574524367 L 1.0000211943972666,0.10000048424075832 L 1.0000221454868756,0.10000024475299003 L 1.0000231154622745,0.10000009958563354 L 1.000024094993019,0.10000005013509113 L 1.0511200912448424,0.0999294097427596 L 1.0511201195284907,0.09992940974365563 L 1.0999900383018688,0.10000006900876808 z" />
</svg>