<?xml version="1.0" standalone="no"?>
<!DOCTYPE svg PUBLIC "-//W3C//DTD SVG 1.1//EN" 
  "http://www.w3.org/Graphics/SVG/1.1/DTD/svg11.dtd">
<svg width="1.9999999739716925m" height="1.9999999739716972m" viewBox="0 0 1.9999999739716925 1.9999999739716972"
     xmlns="http://www.w3.org/2000/svg" version="1.1">
<desc>Outline to SVG export</desc>
	<path fill-rule="evenodd" fill="#000000" stroke="#555555" stroke-width="0" opacity="1" d="M 1.149524293904013e-08,1.9999999885047632 L 2.454861915497704e-07,2.0 L 1.99999975451327,2.0 L 1.9999999739716925,1.9999999892187206 L 1.9999998264150243,1.9999998264150245 L 0.8999999761581421,0.8999999761581421 L 1.7358497106277158e-07,1.7358497106277155e-07 L 1.0781275915671909e-08,2.60283028136284e-08 L 0.0,2.454861825172145e-07 L 0.0,1.9999997545137476 L 1.149524293904013e-08,1.9999999885047632 z M 1.200000021655413,1.9000000845861553 L 1.199999874098746,1.899999921782462 L 0.9000029050903302,1.600002952774046 L 0.9000022460536085,1.6000022256390758 L 0.9000016614620191,1.6000014374085643 L 0.9000011569454985,1.6000005956736023 L 0.9000007373628169,1.5999997085405577 L 0.9000004067547848,1.5999987845530066 L 0.900000168305338,1.5999978326094542 L 0.9000000243108753,1.5999968618776375 L 0.8999999761581421,1.599995881706234 L 0.8999999761581421,1.0400240972408172 L 0.900000024302802,1.0400231171513867 L 0.9000001682732004,1.0400221464991708 L 0.9000004066830559,1.0400211946305136 L 0.9000007372367362,1.0400202707108934 L 0.9000011567513626,1.0400193836366698 L 0.9000016611874572,1.04001854194942 L 0.9000022456878389,1.0400177537536932 L 0.9000029046243936,1.0400170266389726 L 0.9000036316522659,1.0400163676065963 L 0.9000044197709538,1.0400157830023424 L 0.9000052613917162,1.0400152784553254 L 0.9000061484106439,1.0400148588237943 L 0.9000070722866919,1.0400145281483524 L 0.9000080241239206,1.040014289613051 L 0.9000089947571541,1.0400141455147307 L 0.900009974840231,1.040014097240904 L 0.900010954935998,1.0400141452563967 L 0.9000119256071796,1.0400142890988704 L 0.9000128775072489,1.040014527383276 L 0.900013801470425,1.040014857815189 L 0.9000146885999293,1.0400152772129032 L 0.900015530353652,1.0400157815380666 L 0.9000163186264037,1.040016365934566 L 0.90001704582796,1.0400170247752878 L 1.7615693088772872,1.901228720398909 L 1.7615699685424584,1.90122944799402 L 1.7615705536541137,1.9012302367887552 L 1.7615710585685425,1.9012310791747733 L 1.7615714784155785,1.901231967026816 L 1.7615718091455757,1.9012328917810821 L 1.7615720475684684,1.9012338445178285 L 1.761572191384542,1.9012348160474064 L 1.7615722392066147,1.9012357969989002 L 1.761572190573417,1.9012367779105148 L 1.7615720459540423,1.90123774932084 L 1.7615718067434205,1.9012387018601107 L 1.7615714752488643,1.9012396263405826 L 1.7615710546678138,1.9012405138451536 L 1.761570549056995,1.9012413558133736 L 1.7615699632932915,1.901242144124015 L 1.761569303026703,1.9012428711734053 L 1.7615685746258496,1.9012435299487693 L 1.7615677851165419,1.9012441140958711 L 1.7615669421140137,1.9012446179803035 L 1.7615660537494695,1.9012450367418352 L 1.7615651285916543,1.90124536634129 L 1.7615641755642035,1.9012456035995076 L 1.76156320385957,1.9012457462280068 L 1.7615622228503578,1.9012457928510607 L 1.0122270731612548,1.900020095354054 L 1.012226093578544,1.9000200456490293 L 1.0122251235773008,1.9000199002170342 L 1.0122241724894503,1.9000196604572015 L 1.0122232494649603,1.9000193286761475 L 1.0122223633838148,1.9000189080657812 L 1.0122215227705824,1.900018402672597 L 1.0122207357124073,1.9000178173587448 L 1.0122200097812053,1.9000171577552525 L 1.0122193519608182,1.9000164302078553 L 1.0122187685798263,1.9000156417159435 L 1.0122182652506628,1.9000147998652264 L 1.0122178468156209,1.9000139127547526 L 1.0122175173002663,1.9000129889189945 L 1.0122172798747116,1.9000120372457403 L 1.0122171368231156,1.90001106689059 L 1.0122170895217106,1.9000100871888732 L 1.0122171384255614,1.9000091075658385 L 1.0122172830641865,1.9000081374459774 L 1.0122175220460863,1.900007186162356 L 1.0122178530721284,1.9000062628668257 L 1.0122182729576672,1.9000053764419778 L 1.012218777663182,1.9000045354156878 L 1.0122193623331386,1.9000037478790737 L 1.0122200213427028,1.9000030214086538 L 1.0122207483518546,1.900002362993458 L 1.0122215363663811,1.900001778967788 L 1.0122223778051662,1.9000012749502806 L 1.0122232645731235,1.90000085578985 L 1.0122241881390766,1.900000525519041 L 1.0122251396178326,1.9000002873152342 L 1.0122261098556629,1.9000001434700755 L 1.0122270895183663,1.9000000953674316 L 1.1999998021974942,1.9000000953674316 L 1.200000021655413,1.9000000845861553 z M 0.9488751235514831,1.9000707621573165 L 0.9488750952704801,1.9000707621564168 L 0.9000099616995143,1.9000001098051693 L 0.900008982497946,1.9000000603251272 L 0.900008012848274,1.8999999151924307 L 0.9000070620715854,1.8999996758022173 L 0.9000061393075443,1.8999993444557064 L 0.9000052534265334,1.8999989243380795 L 0.9000044129443852,1.8999984194878596 L 0.90000362594052,1.8999978347580913 L 0.9000028999802797,1.8999971757696879 L 0.9000022420422042,1.8999964488573997 L 0.9000016584509466,1.8999956610089181 L 0.9000011548164762,1.8999948197977043 L 0.9000007359801507,1.899993933310187 L 0.9000004059681764,1.8999930100680287 L 0.9000001679529058,1.8999920589462085 L 0.9000000242223414,1.899991089087708 L 0.8999999761581421,1.899990109815622 L 0.8999999761581421,1.8000242070395882 L 0.9000000243108767,1.8000232268681713 L 0.9000001683053434,1.800022256136341 L 0.9000004067547968,1.800021304192776 L 0.900000737362838,1.8000203802052135 L 0.9000011569455311,1.8000194930721591 L 0.9000016614620651,1.8000186513371892 L 0.9000022460536697,1.800017863106672 L 0.9000029050904083,1.8000171359716983 L 0.9000036322253964,1.8000164769349758 L 0.9000044204559265,1.8000158923433884 L 0.9000052621909076,1.8000153878268732 L 0.9000061493239714,1.8000149682441997 L 0.9000070733115412,1.8000146376361787 L 0.9000080252551114,1.8000143991867465 L 0.9000089959869447,1.8000142551923013 L 0.9000099761583628,1.8000142070395881 L 0.9000109563297788,1.8000142551923444 L 0.9000119270616058,1.8000143991868327 L 0.9000128790051655,1.800014637636307 L 0.9000138029927206,1.8000149682443687 L 0.9000146901257658,1.8000153878270813 L 0.9000155318607246,1.8000158923436338 L 0.900016320091229,1.8000164769352558 L 0.900017047226188,1.8000171359720105 L 0.9999829622481451,1.8999830576144483 L 0.9999836209194536,1.8999837843042384 L 0.9999842052363938,1.8999845720222444 L 0.9999847095782695,1.8999854131912024 L 0.9999851290936854,1.89998629971969 L 0.999985459747214,1.8999872230799595 L 0.9999856983582129,1.8999881743899694 L 0.9999858426314214,1.8999891444988213 L 0.9999858911790378,1.899990124074787 L 0.99998584353407,1.899991103695071 L 0.9999857001548275,1.8999920739364513 L 0.9999854624205121,1.8999930254659247 L 0.9999851326179522,1.8999939491304825 L 0.999984713919604,1.899994836045155 L 0.9999842103530355,1.8999956776784808 L 0.9999836267621843,1.8999964659345698 L 0.9999829687607621,1.8999971932309825 L 0.9999822426782554,1.8999978525716659 L 0.99998145549904,1.8999984376142511 L 0.9999806147951973,1.8999989427310617 L 0.9999797286536755,1.899999363063248 L 0.9999788055984996,1.8999996945675253 L 0.9999778545087772,1.8999999340550684 L 0.9999768845332868,1.9000000792221845 L 0.9999759050024744,1.900000128672473 L 0.9488751235514831,1.9000707621573165 z M 0.09876413735440558,1.9012458168500233 L 0.09876315528220021,1.9012457700440109 L 0.09876218255297006,1.9012456270249065 L 0.09876122856966663,1.9012453891752144 L 0.09876030255403265,1.9012450587941236 L 0.09875941345745955,1.9012446390752855 L 0.0987585698744582,1.9012441340759398 L 0.09875777995957954,1.9012435486776962 L 0.09875705134858802,1.901242888539345 L 0.09875639108465002,1.901242160042158 L 0.0987558055502506,1.9012413702282012 L 0.09875530040549678,1.9012405267322634 L 0.09875488053340378,1.901239637708054 L 0.09875454999269298,1.9012387117493845 L 0.09875431197855802,1.9012377578070954 L 0.09875416879177831,1.9012367851025331 L 0.09875412181647833,1.9012358030384107 L 0.09999993092898556,1.0000240949952708 L 0.09999998037940114,1.0000231154644923 L 0.1000001255466374,1.0000221454890477 L 0.10000036503429313,1.000021194399382 L 0.10000069653867458,1.0000202713442727 L 0.10000111687095525,1.0000193852028263 L 0.10000162198785012,1.0000185444990664 L 0.10000220703050902,1.00001775731994 L 0.10000286637125513,1.0000170312375272 L 0.10000359366771912,1.0000163732362028 L 0.10000438192384802,1.0000157896454516 L 0.10000522355720202,1.0000152860789844 L 0.10000611047189203,1.0000148673807372 L 0.10000703413645602,1.000014537578277 L 0.10000798566592539,1.0000142998440589 L 0.10000895590729185,1.0000141564649099 L 0.10000993552755251,1.0000141088200314 L 0.10001091510348645,1.0000141573677315 L 0.10001188521229916,1.0000143016410175 L 0.10001283652226281,1.0000145402520872 L 0.10001375988248057,1.000014870905679 L 0.10001464641091144,1.0000152904211506 L 0.10001548757980896,1.0000157947630737 L 0.1000162752977517,1.000016379080053 L 0.10001700198747683,1.000017037751392 L 0.749997071068046,1.6499971498784385 L 0.7499977301047175,1.6499978770133985 L 0.749998314696261,1.6499986652438925 L 0.7499988192127411,1.6499995069788305 L 0.7499992387953885,1.6500003941118455 L 0.7499995694033934,1.6500013180993625 L 0.7499998078528203,1.6500022700428771 L 0.7499999518472709,1.650003240774654 L 0.75,1.6500042209460162 L 0.75,1.8999998498812096 L 0.7500000114952398,1.9000000838721918 L 0.7500002454862217,1.9000000953674316 L 0.8871361645566341,1.9000000953674316 L 0.8871371442445168,1.9000001434725542 L 0.8871381145067984,1.9000002873251012 L 0.8871390660085616,1.9000005255410637 L 0.8871399895953848,1.9000008558285604 L 0.8871408763814164,1.9000012750098867 L 0.8871417178348663,1.9000017790520891 L 0.8871425058600902,1.9000023631057654 L 0.8871432328754784,1.9000030215517205 L 0.8871438918863976,1.9000037480550298 L 0.8871444765524878,1.9000045356259874 L 0.8871449812486624,1.9000053766873537 L 0.8871454011192268,1.9000062631472565 L 0.8871457321245962,1.9000071864770436 L 0.8871459710801599,1.9000081377933362 L 0.8871461156869204,1.9000091079434973 L 0.8871461645536126,1.9000100875936883 L 0.8871461172100888,1.9000110673186708 L 0.8871459741118423,1.9000120376924863 L 0.8871457366356248,1.900012989379145 L 0.8871454070662007,1.9000139132224463 L 0.8871449885743656,1.9000148003340707 L 0.8871444851864398,1.900015642179096 L 0.8871439017455307,1.90001643065811 L 0.8871432438649376,1.9000171581851375 L 0.8871425178741459,1.9000178177606226 L 0.8871417307579308,1.9000184030387737 L 0.8871408900891565,1.9000189083886152 L 0.8871400039559181,1.900019328948164 L 0.8871390808837252,1.900019660671206 L 0.8871381297534777,1.9000199003662266 L 0.8871371597160234,1.9000200457271132 L 0.8871361801041161,1.9000200953553454 L 0.09876413735440558,1.9012458168500233 z M 0.09875414754891931,0.2384377180579217 L 0.0987541941724209,0.23843673704249926 L 0.09875433680258043,0.2384357653318183 L 0.0987545740636373,0.23843481229865998 L 0.09875490366705438,0.23843388713564873 L 0.09875532243359242,0.23843299876658322 L 0.09875582632397592,0.23843215576036061 L 0.09875641047785458,0.23843136624832398 L 0.09875706926068445,0.23843063784583016 L 0.09875779631807687,0.23842997757879475 L 0.09875858463709064,0.23842939181592251 L 0.09875942661387638,0.2384288862072772 L 0.09876031412702062,0.2384284656297829 L 0.09876123861588212,0.2384281341401829 L 0.0987621911631648,0.23842789493590996 L 0.09876316258093086,0.23842775032424474 L 0.09876414349922444,0.2384277017000608 L 0.0987651244564509,0.23842774953237 L 0.09876609599064005,0.23842789335979864 L 0.09876704873071308,0.2384281317950376 L 0.09876797348687259,0.23842846253822408 L 0.09876886133924423,0.238428882399125 L 0.09876970372391469,0.23842938732790897 L 0.09877049251553621,0.2384299724542097 L 0.09877122010570077,0.23843063213410354 L 0.7499970725701618,0.8899332973996612 L 0.7499977312839026,0.8899340244692998 L 0.7499983155814032,0.8899348125876174 L 0.7499988198386011,0.8899356541687068 L 0.7499992392018492,0.8899365411120634 L 0.7499995696346333,0.8899374648805555 L 0.7499998079564256,0.8899384165825965 L 0.7499999518732975,0.8899393870577306 L 0.75,0.8899403669648038 L 0.75,1.449975905548092 L 0.7499999518472668,1.4499768857194955 L 0.7499998078528041,1.4499778564513122 L 0.7499995694033573,1.4499788083948646 L 0.7499992387953252,1.4499797323824157 L 0.7499988192126436,1.4499806195154603 L 0.7499983146961231,1.4499814612504223 L 0.7499977301045336,1.4499822494809338 L 0.7499970710678119,1.449982976615904 L 0.7499963439328418,1.4499836356526257 L 0.7499955557023302,1.449984220244215 L 0.7499947139673684,1.4499847247607356 L 0.7499938268343237,1.449985144343417 L 0.7499929028467727,1.4499854749514494 L 0.7499919509032202,1.4499857134008962 L 0.7499909801714034,1.4499858573953588 L 0.74999,1.4499859055480921 L 0.7499890198285968,1.4499858573953588 L 0.74998804909678,1.4499857134008962 L 0.7499870971532275,1.4499854749514494 L 0.7499861731656765,1.4499851443434173 L 0.7499852860326318,1.4499847247607356 L 0.7499844442976699,1.4499842202442152 L 0.7499836560671584,1.4499836356526257 L 0.7499829289321882,1.449982976615904 L 0.10000013782218549,0.8000001855059014 L 0.09999997501848931,0.8000000379492321 L 0.09999996423721313,0.8000002574071502 L 0.09999996423721313,0.9877740794677783 L 0.09999991613457408,0.9877750591304331 L 0.0999997722894297,0.9877760293682161 L 0.0999995340856462,0.9877769808469277 L 0.0999992038148697,0.9877779044128404 L 0.0999987846544794,0.9877787911807628 L 0.09999828063701949,0.9877796326195195 L 0.09999769661140394,0.9877804206340254 L 0.09999703819626746,0.987781147643165 L 0.09999631172591117,0.9877818066527267 L 0.09999552418936332,0.9877823913226909 L 0.09999468316314118,0.9877828960282236 L 0.09999379673836092,0.9877833159137913 L 0.09999287344289678,0.9877836469398734 L 0.09999192215933847,0.987783885921824 L 0.09999095203953588,0.9877840305605108 L 0.09998997241655358,0.9877840794644333 L 0.09998899271488171,0.9877840321631097 L 0.09998802235976745,0.987783889111604 L 0.09998707068653916,0.9877836516861469 L 0.0999861468507956,0.9877833221708969 L 0.09998525974032423,0.9877829037359644 L 0.09998441788959601,0.9877824004069146 L 0.0999836293976593,0.9877818170260383 L 0.0999829018502227,0.9877811592057676 L 0.09998224224667654,0.9877804332746807 L 0.0999816569327551,0.9877796462166177 L 0.09998115153948722,0.9877788056034927 L 0.0999807309290229,0.9877779195224478 L 0.09998039914785682,0.98777699649805 L 0.0999801593878989,0.9877760454102813 L 0.09998001395576649,0.9877750754091081 L 0.09997996425059347,0.9877740958264537 L 0.09875414754891931,0.2384377180579217 z" />
</svg>