<?xml version="1.0" standalone="no"?>
<!DOCTYPE svg PUBLIC "-//W3C//DTD SVG 1.1//EN" 
  "http://www.w3.org/Graphics/SVG/1.1/DTD/svg11.dtd">
<svg width="2.0000002123902245m" height="1.9999999739716696m" viewBox="0 0 2.0000002123902245 1.9999999739716696"
     xmlns="http://www.w3.org/2000/svg" version="1.1">
<desc>Outline to SVG export</desc>
	<path fill-rule="evenodd" fill="#000000" stroke="#555555" stroke-width="0" opacity="1" d="M 2.6028301253789547e-08,3.0880449404966367e-07 L 1.7358498862809135e-07,4.716081664883062e-07 L 0.9000000953674316,0.9000001549720764 L 2.0000000648335776,1.9999998264150458 L 2.0000002276373,1.999999973971699 L 2.000000238418526,1.999999754514269 L 2.0,0.8999999761581421 L 2.0,2.4548701935279944e-07 L 1.9999999885047546,1.1495234298297915e-08 L 1.9999997545154111,2.926455403878933e-14 L 0.9999999403950695,1.1920928955083236e-07 L 2.4548619394597197e-07,2.9802317998059835e-07 L 5.504898445711357e-08,3.073787932609997e-07 L 2.6028301253789547e-08,3.0880449404966367e-07 z M 1.5999959449654086,0.9000000177433526 L 1.599996925136789,0.900000065895947 L 1.5999978958685968,0.9000002098902664 L 1.599998847812155,0.9000004483395667 L 1.5999997717997272,0.9000007789474511 L 1.6000006589328086,0.9000011985299851 L 1.6000015006678232,0.9000017030463596 L 1.6000022888984031,0.9000022876378067 L 1.6000030160334573,0.9000029466743912 L 1.9000000409916895,1.1999998740987405 L 1.9000002037954264,1.2000000216553957 L 1.9000002145765749,1.1999998021974483 L 1.9000001026566042,1.0122292052750412 L 1.9000001507586728,1.012228225612221 L 1.900000294603279,1.0122272553742198 L 1.9000005328065614,1.0122263038952413 L 1.9000008630768779,1.0122253803290184 L 1.900001282236853,1.012224493560748 L 1.9000017862539456,1.0122236521216113 L 1.9000023702792432,1.0122228641066993 L 1.9000030286941134,1.0122221370971334 L 1.9000037551642555,1.0122214780871313 L 1.9000045427006411,1.0122208934167187 L 1.9000053837267528,1.0122203887107353 L 1.900006270151473,1.0122199688247204 L 1.9000071934469258,1.0122196377982002 L 1.9000081447305188,1.0122193988158257 L 1.9000091148503997,1.0122192541767334 L 1.9000100944735003,1.0122192052724288 L 1.9000110741753267,1.012219252573397 L 1.9000120445306274,1.0122193956245775 L 1.90001299620407,1.0122196330497422 L 1.900013920040051,1.012219962564735 L 1.9000148071507779,1.0122203809994468 L 1.9000156490017752,1.0122208843283138 L 1.9000164374939899,1.0122214677090453 L 1.900017165041708,1.0122221255292092 L 1.9000178246455348,1.0122228514602263 L 1.9000184099597317,1.0122236385182555 L 1.9000189153532654,1.0122244791313806 L 1.900019335963982,1.0122253652124575 L 1.9000196677453836,1.0122262882369164 L 1.9000199075055566,1.0122272393247724 L 1.9000200529378812,1.0122282093260553 L 1.9000201026432215,1.0122291889088386 L 1.9012460312620525,1.7615622228443804 L 1.9012459846392986,1.7615632038536797 L 1.9012458420110825,1.7615641755584281 L 1.9012456047531285,1.7615651285860194 L 1.9012452751539153,1.7615660537439979 L 1.9012448563926017,1.7615669421087252 L 1.9012443525083622,1.7615677851114533 L 1.901243768361427,1.7615685746209748 L 1.9012431095862024,1.7615693030220525 L 1.9012423825369242,1.7615699632888724 L 1.9012415942263674,1.7615705490528115 L 1.9012407522582047,1.761571054663867 L 1.9012398647536644,1.7615714752451521 L 1.9012389402731977,1.7615718067399382 L 1.901237987733908,1.7615720459507822 L 1.9012370163235408,1.7615721905703694 L 1.9012360354118634,1.761572239203767 L 1.9012350544602878,1.76157219138188 L 1.9012340829306114,1.7615720475659762 L 1.901233130193752,1.761571809143236 L 1.9012322054393607,1.7615714784133727 L 1.9012313175871833,1.761571058566451 L 1.901230475201024,1.7615705536521167 L 1.9012296864061429,1.761569968540536 L 1.9012289588108844,1.7615693088754192 L 1.0400171439869341,0.9000171650348828 L 1.0400164851461118,0.9000164378334179 L 1.0400159007495031,0.900015649560747 L 1.0400153964242234,0.9000148078070942 L 1.0400149770263865,0.9000139206776481 L 1.0400146465943454,0.9000129967145178 L 1.040014408309808,0.9000120448144816 L 1.0400142644672,0.90001107414332 L 1.0400142164515718,0.9000100940475598 L 1.0400142647252626,0.9000091139644762 L 1.0400144088234486,0.9000081433312229 L 1.040014647358618,0.9000071914939612 L 1.0400149780339318,0.9000062676178675 L 1.0400153976653401,0.9000053805988818 L 1.0400159022122406,0.9000045389780497 L 1.0400164868163853,0.9000037508592807 L 1.0400171458486607,0.9000030238313173 L 1.0400178729632898,0.9000023648946619 L 1.0400186611589355,0.9000017803941709 L 1.0400195028461154,0.9000012759579599 L 1.040020389920281,0.9000008564432106 L 1.040021313839855,0.9000005258894022 L 1.0400222657084792,0.9000002874794147 L 1.0400232363606752,0.9000001435088819 L 1.0400242164500988,0.9000000953640861 L 1.5999959449654086,0.9000000177433526 z M 1.9000000838721904,0.7500000114952428 L 1.8999998498811919,0.750000000000029 L 1.6500042173398815,0.7500000295067637 L 1.6500032371684492,0.7499999813541439 L 1.6500022664365928,0.7499998373597889 L 1.650001314492991,0.7499995989104433 L 1.6500003905053815,0.7499992683025047 L 1.6499995033722707,0.7499988487199085 L 1.6499986616372357,0.7499983442034647 L 1.6499978734066454,0.7499977596119424 L 1.6499971462715917,0.749997100575278 L 1.0000170377509312,0.10001712119404887 L 1.0000163790795615,0.10001639450438864 L 1.0000157947625432,0.10001560678650907 L 1.0000152904205728,0.100014765617672 L 1.0000148709050458,0.10001387908929779 L 1.0000145402513907,0.1000129557291319 L 1.00001430164025,0.10001200441921433 L 1.0000141573668866,0.10001103431044094 L 1.0000141088191028,0.10001005473453867 L 1.0000141564638922,0.1000090751143012 L 1.0000142998429475,0.10000810487294869 L 1.0000145375770684,0.10000715334348335 L 1.000014867379429,0.10000622967891298 L 1.0000152860775753,0.1000053427642057 L 1.0000157896439414,0.10000450113082322 L 1.0000163732345926,0.10000371287465448 L 1.0000170312358194,0.10000298557813922 L 1.0000177573181381,0.10000232623733053 L 1.0000185444971754,0.100001741194598 L 1.0000193852008525,0.1000012360776188 L 1.000020271342224,0.10000081574524367 L 1.0000211943972666,0.10000048424075832 L 1.0000221454868756,0.10000024475299003 L 1.0000231154622745,0.10000009958563354 L 1.000024094993019,0.10000005013509113 L 1.901235803037086,0.09875412181780677 L 1.9012367851012968,0.09875416879298485 L 1.901237757805958,0.09875431197965999 L 1.9012387117483538,0.09875454999370847 L 1.9012396377071352,0.09875488053435134 L 1.9012405267314594,0.09875530040639509 L 1.9012413702275117,0.0987558055511181 L 1.901242160041581,0.09875639108550467 L 1.9012428885388755,0.09875705134944693 L 1.9012435486773271,0.09875777996045872 L 1.9012441340756625,0.09875856987537227 L 1.901244639075089,0.09875941345842149 L 1.9012450587939955,0.09876030255505365 L 1.9012453891751404,0.09876122857075584 L 1.9012456270248725,0.09876218255413448 L 1.9012457700440009,0.09876315528344454 L 1.9012458168500213,0.09876413735573218 L 1.9000200953553454,0.8871361801041168 L 1.9000200457271132,0.887137159716024 L 1.9000199003662266,0.8871381297534784 L 1.900019660671206,0.8871390808837258 L 1.900019328948164,0.8871400039559187 L 1.9000189083886152,0.8871408900891572 L 1.9000184030387737,0.8871417307579315 L 1.9000178177606226,0.8871425178741466 L 1.9000171581851375,0.8871432438649383 L 1.90001643065811,0.8871439017455314 L 1.900015642179096,0.8871444851864405 L 1.9000148003340707,0.8871449885743663 L 1.9000139132224463,0.8871454070662014 L 1.900012989379145,0.8871457366356255 L 1.9000120376924863,0.8871459741118429 L 1.9000110673186708,0.8871461172100895 L 1.9000100875936883,0.8871461645536133 L 1.9000091079434973,0.887146115686921 L 1.9000081377933362,0.8871459710801606 L 1.9000071864770436,0.8871457321245969 L 1.9000062631472565,0.8871454011192275 L 1.9000053766873537,0.887144981248663 L 1.9000045356259874,0.8871444765524885 L 1.9000037480550298,0.8871438918863983 L 1.9000030215517205,0.887143232875479 L 1.9000023631057654,0.8871425058600909 L 1.9000017790520891,0.887141717834867 L 1.9000012750098867,0.887140876381417 L 1.9000008558285604,0.8871399895953854 L 1.9000005255410637,0.8871390660085623 L 1.9000002873251012,0.887138114506799 L 1.9000001434725542,0.8871371442445175 L 1.9000000953674316,0.8871361645566348 L 1.9000000953674316,0.7500002454862377 L 1.9000000838721904,0.7500000114952428 z M 1.8000171365874638,0.900017061084859 L 1.8000164775506802,0.9000163339499669 L 1.8000158929590202,0.9000155457195281 L 1.800015388442421,0.9000147039846325 L 1.8000149688596532,0.9000138168516466 L 1.8000146382515279,0.9000128928641462 L 1.8000143998019822,0.9000119409206355 L 1.800014255807415,0.9000109701888507 L 1.800014207654573,0.9000099900174691 L 1.8000142558071945,0.9000090098460767 L 1.8000143998015434,0.9000080391142594 L 1.8000146382508753,0.9000070871706951 L 1.8000149688587928,0.9000061631831203 L 1.800015388441361,0.9000052760500402 L 1.800015892957771,0.9000044343150311 L 1.8000164775492535,0.9000036460844608 L 1.8000171365858737,0.9000029189494205 L 1.8000178637207485,0.9000022599126178 L 1.800018651951172,0.9000016753209373 L 1.8000194936860545,0.9000011708043162 L 1.8000203808190294,0.900000751221525 L 1.800021304806521,0.9000004206133756 L 1.8000222567500255,0.9000001821638047 L 1.8000232274818067,0.9000000381692123 L 1.800024207653187,0.8999999900163448 L 1.899990109817001,0.8999999761595262 L 1.8999910890890077,0.9000000242235813 L 1.8999920589474446,0.9000001679539861 L 1.8999930100692195,0.9000004059690835 L 1.8999939333113522,0.9000007359808728 L 1.8999948197988659,0.9000011548170043 L 1.8999956610100994,0.9000016584512738 L 1.8999964488586254,0.9000022420423266 L 1.8999971757709835,0.9000028999801966 L 1.8999978347594828,0.9000036259402332 L 1.8999984194893733,0.9000044129439002 L 1.8999989243397415,0.9000052534258588 L 1.8999993444575423,0.9000061393066918 L 1.8999996758042514,0.9000070620705702 L 1.8999999151946865,0.9000080128471142 L 1.900000060327626,0.9000089824966626 L 1.9000001098079304,0.9000099616981313 L 1.9000707687660012,0.9488703134685964 L 1.900070768766905,0.9488703417523665 L 1.90000012867247,0.9999759050047279 L 1.900000079222184,0.9999768845355128 L 1.8999999340550762,0.9999778545109765 L 1.8999996945675464,0.999978805600674 L 1.8999993630632872,0.9999797286558271 L 1.8999989427311237,0.9999806147973292 L 1.8999984376143402,0.999981455501156 L 1.8999978525717856,0.9999822426803597 L 1.8999971932311357,0.9999829687628597 L 1.8999964659347588,0.9999836267642804 L 1.8999956776787073,0.999984210355136 L 1.8999948360454197,0.9999847139217146 L 1.8999939491307853,0.9999851326200792 L 1.8999930254662651,0.9999854624226617 L 1.8999920739368272,0.9999857001570058 L 1.8999911036954797,0.9999858435362832 L 1.8999901240752255,0.9999858911812916 L 1.8999891444992851,0.9999858426337211 L 1.8999881743904534,0.9999856983605636 L 1.8999872230804582,0.9999854597496198 L 1.8999862997201966,0.9999851290961503 L 1.8999854131917102,0.9999847095807963 L 1.899984572022746,0.9999842052389846 L 1.8999837843047258,0.9999836209221097 L 1.8999830576149135,0.9999829622508669 L 1.8000171365874638,0.900017061084859 z M 0.7999999783445833,0.10000015383241492 L 0.8000001259012745,0.10000031663608125 L 1.4499830026320755,0.749982982046941 L 1.4499836616689272,0.7499837091818184 L 1.4499842462606536,0.7499844974122514 L 1.4499847507773165,0.7499853391471496 L 1.4499851703601445,0.7499862262801454 L 1.4499855009683253,0.749987150267663 L 1.4499857394179216,0.749988102211197 L 1.4499858834125332,0.7499890729430105 L 1.449985931565413,0.7499900531144252 L 1.4499858834128228,0.749991033285854 L 1.449985739418498,0.7499920040177102 L 1.449985500969183,0.7499929559613147 L 1.4499851703612752,0.7499938799489299 L 1.4499847507787091,0.7499947670820497 L 1.449984246262295,0.7499956088170969 L 1.4499836616708015,0.7499963970477025 L 1.4499830026341645,0.7499971241827746 L 1.4499822754992675,0.7499977832196049 L 1.4499814872688173,0.7499983678113078 L 1.4499806455339042,0.7499988723279457 L 1.4499797584008958,0.7499992919107474 L 1.4499788344133684,0.749999622518901 L 1.4499778824698273,0.7499998609684689 L 1.4499769117380095,0.7500000049630516 L 1.4499759315665934,0.7500000531159023 L 0.8900003503903832,0.7500001192092606 L 0.8900001309324728,0.7500001299905618 L 0.8900002784891374,0.7500002927942522 L 0.9734913230259564,0.8334913373310712 L 0.9734919820205234,0.833492064414676 L 0.973492566580433,0.8334928525860532 L 0.9734930710768153,0.8334936942557083 L 0.9734934906517513,0.8334945813189986 L 0.9734938212650515,0.833495505234175 L 0.9734940597331599,0.8334964571046333 L 0.9734942037598088,0.83349742776458 L 0.9734942519581304,0.8334984078672938 L 0.9734942038640114,0.8334993879751263 L 0.9734940599405618,0.8335003586503803 L 0.9734938215736556,0.8335013105461865 L 0.973493491058586,0.833502234496508 L 0.9734930715779629,0.8335031216044014 L 0.9734925671710681,0.8335039633276887 L 0.9734919826949585,0.8335047515612106 L 0.9734913237776972,0.8335054787148742 L 0.9734905967641593,0.8335061377867394 L 0.9734898086549356,0.8335067224304424 L 0.9734889670389224,0.8335072270163063 L 0.9734880800202454,0.8335076466855506 L 0.9734871561402242,0.8335079773970776 L 0.9734862042951248,0.8335082159663855 L 0.9734852336504961,0.8335083600962321 L 0.9734842535529122,0.8335084083987558 L 0.9734832734399719,0.8335083604088401 L 0.9734823027494218,0.8335082165885914 L 0.9734813508282784,0.83350797832289 L 0.9734804268428225,0.8335076479060546 L 0.9734795396903357,0.8335072285197493 L 0.9734786979134258,0.8335067242023476 L 0.9734779096177681,0.8335061398100445 L 0.9734771823940539,0.8335054809700964 L 0.2384306321364602,0.0987714585215448 L 0.23842997245646017,0.09877073093148087 L 0.23842938733004368,0.09876994213994929 L 0.23842888240113536,0.09876909975535711 L 0.23842846254010278,0.09876821190305132 L 0.2384281317967785,0.09876728714694455 L 0.2384278933613969,0.09876633440691056 L 0.23842774953382218,0.09876536287274629 L 0.23842770170136482,0.0987643819155303 L 0.23842775032539998,0.09876340099723259 L 0.2384278949369172,0.09876242957944778 L 0.23842813414104447,0.09876147703213184 L 0.23842846563050238,0.09876055254322284 L 0.2384288862078597,0.09875966503001726 L 0.23842939181637443,0.09875882305315688 L 0.23842997757912374,0.09875803473405581 L 0.23843063784604518,0.09875730767656425 L 0.23843136624843508,0.09875664889362432 L 0.2384321557603789,0.09875606473962567 L 0.23843299876652077,0.09875556084911337 L 0.2384338871355184,0.09875514208243895 L 0.2384348122984754,0.0987548124788792 L 0.2384357653315936,0.09875457521767471 L 0.23843673704224913,0.09875443258736401 L 0.23843771805766104,0.09875438596370918 L 0.9877751532236114,0.0999800871031727 L 0.9877761328062297,0.099980136808188 L 0.9877771028073828,0.09998028224015561 L 0.9877780538951488,0.09998052199994335 L 0.9877789769195621,0.09998085378093574 L 0.9877798630006415,0.0999812743912248 L 0.98778070361382,0.0999817797843179 L 0.9877814906719559,0.09998236509806717 L 0.9877822166031353,0.09998302470144592 L 0.9877828744235175,0.09998375224872208 L 0.9877834578045241,0.09998454074050746 L 0.9877839611337222,0.09998538259109561 L 0.9877843795688198,0.09998626970144026 L 0.9877847090842506,0.09998719353707243 L 0.9877849465099027,0.09998814521020653 L 0.987785089561616,0.09998911556524553 L 0.9877851368631579,0.09999009526686264 L 0.9877850879594626,0.09999107488981206 L 0.9877849433210092,0.09999204500960478 L 0.9877847043392961,0.09999299629317723 L 0.987784373313453,0.09999391958868015 L 0.9877839534281233,0.09999480601352427 L 0.987783448722825,0.09999564703983552 L 0.9877828640530888,0.09999643457649758 L 0.9877822050437459,0.0999971610469928 L 0.9877814780348134,0.09999781946229219 L 0.9877806900205003,0.09999840348809362 L 0.9877798485819195,0.09999890750576115 L 0.9877789618141536,0.09999932666637922 L 0.9877780382483757,0.0999996569374018 L 0.9877770867697753,0.09999989514144762 L 0.987776116532078,0.10000003898686825 L 0.9877751368694815,0.10000008708979494 L 0.8000001978024912,0.1000001430510743 L 0.7999999783445833,0.10000015383241492 z" />
</svg>