<?xml version="1.0" standalone="no"?>
<!DOCTYPE svg PUBLIC "-//W3C//DTD SVG 1.1//EN" 
  "http://www.w3.org/Graphics/SVG/1.1/DTD/svg11.dtd">
<svg width="1.9999999739716925m" height="1.9999999739716967m" viewBox="0 0 1.9999999739716925 1.9999999739716967"
     xmlns="http://www.w3.org/2000/svg" version="1.1">
<desc>Outline to SVG export</desc>
	<path fill-rule="evenodd" fill="#000000" stroke="#555555" stroke-width="0" opacity="1" d="M 1.149524293904013e-08,1.9999999885047632 L 2.454861915497704e-07,2.0 L 1.99999975451327,2.0 L 1.9999999739716925,1.9999999892187206 L 1.9999998264150243,1.9999998264150245 L 1.100000023841858,1.100000023841858 L 1.7358499889463627e-07,1.7358499889463545e-07 L 1.0781275894144753e-08,2.602830325182363e-08 L 0.0,2.454861825172145e-07 L 0.0,1.9999997545137476 L 1.149524293904013e-08,1.9999999885047632 z M 1.109999988276801,1.2499999892187226 L 1.1099998407200946,1.249999826415049 L 1.0266059278696973,1.1666059467024075 L 1.0266052688749243,1.1666052196188585 L 1.026604684314812,1.1666044314475112 L 1.026604179818233,1.166603589777861 L 1.0266037602431097,1.1666027027145525 L 1.0266034296296336,1.166601778799336 L 1.0266031911613633,1.1666008269288184 L 1.0266030471345684,1.1665998562687956 L 1.0266029989361185,1.1665988761659911 L 1.0266030470301284,1.166597896058056 L 1.0266031909534887,1.166596925382691 L 1.0266034293203263,1.166595973486768 L 1.026603759835348,1.1665950495363264 L 1.0266041793159435,1.166594162428313 L 1.026604683722831,1.1665933207049084 L 1.0266052681989526,1.1665925324712747 L 1.0266059271162438,1.1665918053175075 L 1.026606654129828,1.166591146245549 L 1.0266074422391123,1.1665905616017656 L 1.0266082838551989,1.1665900570158356 L 1.0266091708739593,1.1665896373465414 L 1.026610094754072,1.1665893066349817 L 1.0266110465992675,1.1665890680656597 L 1.0266120172439948,1.1665889239358178 L 1.0266129973416767,1.1665888756333178 L 1.0266139774547118,1.1665889236232763 L 1.0266149481453508,1.1665890674435864 L 1.0266159000665742,1.1665893057093666 L 1.026616824052099,1.1665896361262975 L 1.0266177112046406,1.1665900555127129 L 1.0266185529815897,1.166590559830238 L 1.0266193412772684,1.1665911442226753 L 1.026620068500984,1.166591803062766 L 1.7615693082635067,1.9012287202931812 L 1.761569967943396,1.901229447883283 L 1.7615705530697023,1.9012302366748384 L 1.7615710579985027,1.9012310790594413 L 1.7615714778594307,1.9012319669117452 L 1.7615718086026555,1.9012328916678383 L 1.761572047037944,1.9012338444078478 L 1.761572190865433,1.9012348159419779 L 1.7615722386978128,1.9012357968991511 L 1.7615721900737091,1.901236777817399 L 1.761572045462133,1.9012377492351282 L 1.7615718062579573,1.9012387017823842 L 1.7615714747684612,1.9012396262712303 L 1.7615710541910763,1.9012405137843715 L 1.7615705485825444,1.9012413557611674 L 1.7615699628197878,1.9012421440802052 L 1.7615693025528687,1.9012428711376363 L 1.7615685741504903,1.9012435299205197 L 1.761567784638566,1.901244114074467 L 1.761566941632451,1.9012446179649336 L 1.7615660532634865,1.9012450367315696 L 1.7615651281005678,1.9012453663350988 L 1.7615641750674917,1.9012456035962808 L 1.761563203356881,1.901245746226578 L 1.7615622223415155,1.9012457928502282 L 1.012227073161256,1.900020095354054 L 1.0122260935785452,1.9000200456490293 L 1.0122251235773019,1.9000199002170342 L 1.0122241724894514,1.9000196604572015 L 1.0122232494649614,1.9000193286761475 L 1.0122223633838159,1.9000189080657812 L 1.0122215227705835,1.900018402672597 L 1.0122207357124084,1.9000178173587448 L 1.0122200097812064,1.9000171577552525 L 1.0122193519608194,1.9000164302078553 L 1.0122187685798274,1.9000156417159435 L 1.012218265250664,1.9000147998652264 L 1.012217846815622,1.9000139127547526 L 1.0122175173002674,1.9000129889189945 L 1.0122172798747127,1.9000120372457403 L 1.0122171368231168,1.90001106689059 L 1.0122170895217117,1.9000100871888732 L 1.0122171384255625,1.9000091075658385 L 1.0122172830641876,1.9000081374459774 L 1.0122175220460874,1.900007186162356 L 1.0122178530721295,1.9000062628668257 L 1.0122182729576683,1.9000053764419778 L 1.012218777663183,1.9000045354156878 L 1.0122193623331397,1.9000037478790737 L 1.012220021342704,1.9000030214086538 L 1.0122207483518557,1.900002362993458 L 1.0122215363663822,1.900001778967788 L 1.0122223778051673,1.9000012749502806 L 1.0122232645731246,1.90000085578985 L 1.0122241881390777,1.900000525519041 L 1.0122251396178337,1.9000002873152342 L 1.012226109855664,1.9000001434700755 L 1.0122270895183674,1.9000000953674316 L 1.1999998021974942,1.9000000953674316 L 1.200000021655413,1.9000000845861553 L 1.199999874098746,1.899999921782462 L 0.5500170233840962,1.250017071067812 L 0.5500163643473744,1.2500163439328418 L 0.5500157797557851,1.2500155557023302 L 0.5500152752392646,1.2500147139673683 L 0.5500148556565829,1.2500138268343237 L 0.5500145250485508,1.2500129028467726 L 0.550014286599104,1.2500119509032204 L 0.5500141426046413,1.2500109801714034 L 0.5500140944519081,1.25001 L 0.5500141426046413,1.250009019828597 L 0.550014286599104,1.25000804909678 L 0.5500145250485508,1.2500070971532276 L 0.5500148556565829,1.2500061731656764 L 0.5500152752392645,1.2500052860326318 L 0.550015779755785,1.2500044442976699 L 0.5500163643473743,1.2500036560671584 L 0.5500170233840962,1.2500029289321881 L 0.5500177505190664,1.2500022698954665 L 0.5500185387495778,1.2500016853038771 L 0.5500193804845398,1.2500011807873566 L 0.5500202676175844,1.2500007612046748 L 0.5500211916051355,1.2500004305966428 L 0.5500221435486878,1.250000192147196 L 0.5500231142805048,1.2500000481527334 L 0.550024094451908,1.25 L 1.1099997688188736,1.25 L 1.109999988276801,1.2499999892187226 z M 0.09876413735711215,1.9012458185802041 L 0.09876315529298565,1.9012457716047733 L 0.09876218258843235,1.9012456284178618 L 0.09876122864616536,1.9012453904035955 L 0.09876030268753096,1.9012450598627553 L 0.09875941366336977,1.901244639990536 L 0.09875857016749287,1.9012441348456606 L 0.09875778035360916,1.9012435493111453 L 0.09875705185650697,1.9012428890470983 L 0.09875639171825196,1.9012421604360057 L 0.09875580632011434,1.9012413705210356 L 0.09875530132088411,1.901240526937953 L 0.09875488160216986,1.9012396378413101 L 0.0987545512212104,1.9012387118256184 L 0.0987543133716552,1.9012377578422701 L 0.09875417035269281,1.9012367851130088 L 0.09875412354682549,1.901235803040786 L 0.09997996424930167,1.112862588070056 L 0.09998001387767524,1.1128616084582024 L 0.09998015923869268,1.1128606384208146 L 0.09998039893383219,1.1128596872906453 L 0.09998073065698118,1.11285876421854 L 0.0999811512166234,1.1128578780853973 L 0.09998165656654465,1.1128570374167253 L 0.09998224184476136,1.1128562503006167 L 0.09998290142029803,1.1128555243099347 L 0.09998362894736287,1.1128548664294524 L 0.09998441742640081,1.1128542829886534 L 0.09998525927143644,1.1128537796008358 L 0.09998614638305879,1.1128533611091052 L 0.09998707022634604,1.1128530315397804 L 0.09998802191298009,1.1128527940636561 L 0.09998899228676143,1.1128526509654955 L 0.09998997201170098,1.1128526036220492 L 0.09999095166184202,1.1128526524888096 L 0.0999919218119474,1.1128527970956288 L 0.09999287312818007,1.1128530360512408 L 0.09999379645790413,1.1128533670566483 L 0.09999468291774252,1.1128537869272404 L 0.09999552397904422,1.112854291623432 L 0.0999963115499386,1.1128548762895294 L 0.0999970380531875,1.1128555353004461 L 0.09999769649908605,1.1128562623158227 L 0.0999982805527107,1.112857050341027 L 0.09999878459486776,1.11285789179445 L 0.09999920377615575,1.1128587785804485 L 0.09999953406362158,1.112859702167233 L 0.09999977227956179,1.112860653668954 L 0.09999991613209519,1.1128616239311906 L 0.09999996423721313,1.112862603619027 L 0.09999996423721313,1.2499997545137789 L 0.09999997573245291,1.2499999885047601 L 0.10000020972343476,1.25 L 0.3499958055445515,1.25 L 0.349996785715996,1.2500000481527374 L 0.34999775644785286,1.2500001921472121 L 0.34999870839144287,1.2500004305966788 L 0.34999963237902815,1.2500007612047384 L 0.3500005195121023,1.2500011807874543 L 0.35000136124708825,1.250001685304015 L 0.35000214947761715,1.2500022698956503 L 0.35000287661259755,1.2500029289324224 L 0.9999829622481451,1.8999830576144483 L 0.9999836209194536,1.8999837843042384 L 0.9999842052363938,1.8999845720222444 L 0.9999847095782695,1.8999854131912024 L 0.9999851290936854,1.89998629971969 L 0.999985459747214,1.8999872230799595 L 0.9999856983582129,1.8999881743899694 L 0.9999858426314214,1.8999891444988213 L 0.9999858911790378,1.899990124074787 L 0.99998584353407,1.899991103695071 L 0.9999857001548275,1.8999920739364513 L 0.9999854624205121,1.8999930254659247 L 0.9999851326179522,1.8999939491304825 L 0.999984713919604,1.899994836045155 L 0.9999842103530355,1.8999956776784808 L 0.9999836267621843,1.8999964659345698 L 0.9999829687607621,1.8999971932309825 L 0.9999822426782554,1.8999978525716659 L 0.99998145549904,1.8999984376142511 L 0.9999806147951973,1.8999989427310617 L 0.9999797286536755,1.899999363063248 L 0.9999788055984996,1.8999996945675253 L 0.9999778545087772,1.8999999340550684 L 0.9999768845332868,1.9000000792221845 L 0.9999759050024744,1.900000128672473 L 0.09876413735711215,1.9012458185802041 z M 0.09875414754809095,0.23843771755154103 L 0.09875419417099904,0.2384367365422423 L 0.09875433679936942,0.2384357648375095 L 0.09875457405747595,0.23843481180994922 L 0.09875490365683859,0.23843388665201679 L 0.09875532241829699,0.23843299828735026 L 0.0987558263026752,0.23843215528469713 L 0.09875641044974162,0.2384313657752643 L 0.09875706922508856,0.23843063737428816 L 0.09875779627447906,0.2384299771075818 L 0.09875858458513682,0.2384293913437671 L 0.09875942655338825,0.23842888573284615 L 0.09876031405800381,0.238428465151704 L 0.09876123853853164,0.23842813365706836 L 0.09876219107786761,0.23842789444638054 L 0.0987631624882656,0.23842774982695422 L 0.09876414339995802,0.23842770119372036 L 0.09876512435153233,0.23842774901577224 L 0.09876609588119126,0.23842789283184082 L 0.09876704861801694,0.23842813125474405 L 0.09876797337235829,0.23842846198476672 L 0.09876886122447015,0.23842888183184274 L 0.09876970361054886,0.23842938674632477 L 0.09877049240533474,0.23842997185804535 L 0.0987712200004845,0.23843063152329214 L 0.9599829156214924,1.0999829541722845 L 0.9599835744621799,1.0999836813738524 L 0.9599841588586453,1.0999844696466117 L 0.9599846631837751,1.0999853114003375 L 0.9599850825814569,1.0999861985298411 L 0.9599854130133392,1.0999871224930131 L 0.959985651297716,1.0999880743930748 L 0.9599857951401631,1.0999890450642458 L 0.9599858431556316,1.0999900251599994 L 0.9599857948817838,1.0999910052430608 L 0.9599856507834452,1.0999919758762773 L 0.9599854122481289,1.0999929277134872 L 0.9599850815726753,1.0999938515895158 L 0.9599846619411355,1.0999947386084235 L 0.9599841573941131,1.0999955802291659 L 0.959983572789857,1.0999963683478342 L 0.9599829137574816,1.0999970953756877 L 0.9599821866427646,1.099997754312225 L 0.9599813984470439,1.099998338812591 L 0.9599805567598024,1.0999988432486711 L 0.959979669685589,1.0999992627632857 L 0.9599787457659809,1.0999995933169566 L 0.9599777938973366,1.0999998317268052 L 0.9599768232451346,1.0999999756971992 L 0.9599758431557185,1.100000023841858 L 0.4000041182937658,1.100000023841858 L 0.40000313812236254,1.0999999756891246 L 0.40000216739054567,1.099999831694662 L 0.4000012154469933,1.0999995932452151 L 0.40000029145944216,1.099999262637183 L 0.3999994043263976,1.0999988430545014 L 0.3999985625914356,1.0999983385379808 L 0.3999977743609242,1.0999977539463914 L 0.3999970472259539,1.0999970949096698 L 0.10000013782218549,0.8000001855059014 L 0.09999997501848931,0.8000000379492321 L 0.09999996423721313,0.8000002574071502 L 0.09999996423721313,0.9877740794677782 L 0.09999991613457408,0.987775059130433 L 0.0999997722894297,0.987776029368216 L 0.0999995340856462,0.9877769808469276 L 0.0999992038148697,0.9877779044128403 L 0.0999987846544794,0.9877787911807627 L 0.09999828063701949,0.9877796326195194 L 0.09999769661140394,0.9877804206340253 L 0.09999703819626746,0.9877811476431649 L 0.09999631172591117,0.9877818066527266 L 0.09999552418936332,0.9877823913226907 L 0.09999468316314118,0.9877828960282234 L 0.09999379673836092,0.9877833159137912 L 0.09999287344289678,0.9877836469398733 L 0.09999192215933847,0.9877838859218239 L 0.09999095203953588,0.9877840305605107 L 0.09998997241655358,0.9877840794644331 L 0.09998899271488171,0.9877840321631096 L 0.09998802235976745,0.9877838891116039 L 0.09998707068653916,0.9877836516861468 L 0.0999861468507956,0.9877833221708968 L 0.09998525974032423,0.9877829037359643 L 0.09998441788959601,0.9877824004069145 L 0.0999836293976593,0.9877818170260382 L 0.0999829018502227,0.9877811592057675 L 0.09998224224667654,0.9877804332746806 L 0.0999816569327551,0.9877796462166176 L 0.09998115153948722,0.9877788056034926 L 0.0999807309290229,0.9877779195224476 L 0.09998039914785682,0.9877769964980498 L 0.0999801593878989,0.9877760454102812 L 0.09998001395576649,0.987775075409108 L 0.09997996425059347,0.9877740958264536 L 0.09875414754809095,0.23843771755154103 z M 0.09992929068585786,1.0511249013496515 L 0.099929290684958,1.0511248730659424 L 0.09999993092898556,1.0000240949952708 L 0.09999998037940114,1.0000231154644923 L 0.1000001255466374,1.0000221454890477 L 0.10000036503429313,1.000021194399382 L 0.10000069653867458,1.0000202713442727 L 0.10000111687095525,1.0000193852028263 L 0.10000162198785012,1.0000185444990664 L 0.10000220703050902,1.00001775731994 L 0.10000286637125513,1.0000170312375272 L 0.10000359366771912,1.0000163732362028 L 0.10000438192384802,1.0000157896454516 L 0.10000522355720202,1.0000152860789844 L 0.10000611047189203,1.0000148673807372 L 0.10000703413645602,1.000014537578277 L 0.10000798566592539,1.0000142998440589 L 0.10000895590729185,1.0000141564649099 L 0.10000993552755251,1.0000141088200314 L 0.10001091510348645,1.0000141573677315 L 0.10001188521229916,1.0000143016410175 L 0.10001283652226281,1.0000145402520872 L 0.10001375988248057,1.000014870905679 L 0.10001464641091144,1.0000152904211506 L 0.10001548757980896,1.0000157947630737 L 0.1000162752977517,1.000016379080053 L 0.10001700198747683,1.000017037751392 L 0.19998291038988472,1.0999829527742802 L 0.19998356942657367,1.0999836799092615 L 0.19998415401813038,1.0999844681397801 L 0.19998465853461878,1.0999853098747452 L 0.19998507811726943,1.099986197007789 L 0.19998540872527212,1.0999871209953362 L 0.1999856471746912,1.0999880729388813 L 0.19998579116912843,1.099989043670688 L 0.19998583932183872,1.0999900238420786 L 0.19998579116908516,1.099991004013467 L 0.19998564717460507,1.0999919747452676 L 0.19998540872514398,1.099992926688802 L 0.19998507811710045,1.0999938506763345 L 0.19998465853441064,1.09999473780936 L 0.19998415401788508,1.0999955795443028 L 0.19998356942629356,1.0999963677747955 L 0.19998291038957253,1.0999970949097477 L 0.19998218325460568,1.0999977539464527 L 0.19998139502410006,1.0999983385380268 L 0.19998055328914613,1.0999988430545338 L 0.19997966615611137,1.0999992626372042 L 0.19997874216857164,1.0999995932452271 L 0.19997779022503182,1.0999998316946673 L 0.19997681949322826,1.0999999756891259 L 0.1999758393218387,1.100000023841858 L 0.10000994978764233,1.100000023841858 L 0.10000897051564218,1.099999975777667 L 0.1000080006572253,1.0999998320471278 L 0.10000704953548369,1.0999995940318985 L 0.10000612629339671,1.0999992640199814 L 0.10000523980594114,1.099998845183727 L 0.10000439859477746,1.099998341549341 L 0.1000036107463324,1.0999977579581792 L 0.1000028838340656,1.0999971000202087 L 0.10000222484566702,1.0999963740600807 L 0.1000016401158855,1.0999955870563327 L 0.10000113526563381,1.0999947465743043 L 0.1000007151479557,1.0999938606934132 L 0.10000038380137442,1.099992937929489 L 0.10000014441107105,1.099991987152912 L 0.09999999927826583,1.0999910175033436 L 0.09999994979809693,1.0999900383018681 L 0.09992929068585786,1.0511249013496515 z" />
</svg>