<?xml version="1.0" standalone="no"?>
<!DOCTYPE svg PUBLIC "-//W3C//DTD SVG 1.1//EN" 
  "http://www.w3.org/Graphics/SVG/1.1/DTD/svg11.dtd">
<svg width="1.9999999739716987m" height="1.9999999739716967m" viewBox="0 0 1.9999999739716987 1.9999999739716967"
     xmlns="http://www.w3.org/2000/svg" version="1.1">
<desc>Outline to SVG export</desc>
	<path fill-rule="evenodd" fill="#000000" stroke="#555555" stroke-width="0" opacity="1" d="M 1.1495242966468261e-08,1.9999999885047632 L 2.4548618829915907e-07,2.0 L 1.99999975451327,2.0 L 1.9999999739716987,1.9999999892187204 L 1.9999998264157237,1.9999998264157584 L 1.73584998894612e-07,1.7358499889461587e-07 L 1.0781275894144557e-08,2.602830325182584e-08 L 1.8573261849201985e-15,2.4548614471046535e-07 L 2.2797405053724553e-22,1.9999997545137473 L 1.1495242966468261e-08,1.9999999885047632 z M 0.09875410795211792,0.23843765484238022 L 0.09875415610485119,0.23843667467097693 L 0.09875430009931388,0.23843570393916005 L 0.0987545385487606,0.23843475199560768 L 0.09875486915679281,0.23843382800805657 L 0.09875528873947444,0.23843294087501196 L 0.09875579325599489,0.23843209914005004 L 0.09875637784758429,0.2384313109095386 L 0.09875703688430605,0.23843058377456836 L 0.09875776401927627,0.2384299247378466 L 0.09875855224978772,0.2384293401462572 L 0.09875939398474966,0.23842883562973674 L 0.09876028111779427,0.23842841604705511 L 0.09876120510534538,0.23842808543902289 L 0.09876215704889775,0.2384278469895762 L 0.09876312778071462,0.2384277029951135 L 0.09876410795211792,0.2384276548423802 L 0.09876508812352121,0.2384277029951135 L 0.09876605885533808,0.2384278469895762 L 0.09876701079889046,0.23842808543902289 L 0.09876793478644157,0.23842841604705511 L 0.09876882191948617,0.23842883562973674 L 0.09876966365444811,0.2384293401462572 L 0.09877045188495956,0.2384299247378466 L 0.09877117901992978,0.23843058377456836 L 1.7615693566207866,1.9012287613754253 L 1.7615700156575083,1.9012294885103955 L 1.7615706002490976,1.901230276740907 L 1.7615711047656182,1.901231118475869 L 1.7615715243482999,1.9012320056089136 L 1.761571854956332,1.9012329295964647 L 1.7615720934057788,1.9012338815400172 L 1.7615722374002414,1.9012348522718339 L 1.7615722855529747,1.9012358324432372 L 1.7615722374002414,1.9012368126146406 L 1.7615720934057788,1.9012377833464573 L 1.761571854956332,1.9012387352900098 L 1.7615715243482999,1.901239659277561 L 1.7615711047656182,1.9012405464106055 L 1.7615706002490976,1.9012413881455674 L 1.7615700156575083,1.901242176376079 L 1.7615693566207866,1.9012429035110492 L 1.7615686294858164,1.9012435625477708 L 1.7615678412553049,1.9012441471393602 L 1.761566999520343,1.9012446516558807 L 1.7615661123872983,1.9012450712385625 L 1.7615651883997472,1.9012454018465945 L 1.7615642364561948,1.9012456402960414 L 1.761563265724378,1.901245784290504 L 1.7615622855529747,1.9012458324432373 L 0.09876410795211792,1.9012458324432373 L 0.09876312778071462,1.901245784290504 L 0.09876215704889775,1.9012456402960414 L 0.09876120510534538,1.9012454018465945 L 0.09876028111779427,1.9012450712385625 L 0.09875939398474966,1.9012446516558807 L 0.09875855224978772,1.9012441471393602 L 0.09875776401927627,1.9012435625477708 L 0.09875703688430605,1.9012429035110492 L 0.09875637784758429,1.901242176376079 L 0.09875579325599489,1.9012413881455674 L 0.09875528873947444,1.9012405464106055 L 0.09875486915679281,1.901239659277561 L 0.0987545385487606,1.9012387352900098 L 0.09875430009931388,1.9012377833464573 L 0.09875415610485119,1.9012368126146406 L 0.09875410795211792,1.9012358324432372 L 0.09875410795211792,0.23843765484238022 z" />
	<path fill-rule="evenodd" fill="#000000" stroke="#555555" stroke-width="0" opacity="1" d="M 0.30065156107424557,0.7258367202688781 L 0.30065155029296875,0.725836939726801 L 0.30065155029296875,1.699348323430119 L 0.3006515617882069,1.6993485574210843 L 0.3006517957791682,1.6993485689163508 L 1.274163119877851,1.6993486881255804 L 1.274163339335771,1.6993486773443307 L 1.2741631917791147,1.6993485145406184 L 0.30065172387793165,0.7258368678255649 L 0.30065156107424557,0.7258367202688781 z" />
</svg>