<?xml version="1.0" standalone="no"?>
<!DOCTYPE svg PUBLIC "-//W3C//DTD SVG 1.1//EN" 
  "http://www.w3.org/Graphics/SVG/1.1/DTD/svg11.dtd">
<svg width="2.000000212390246m" height="1.999999973971586m" viewBox="0 0 2.000000212390246 1.999999973971586"
     xmlns="http://www.w3.org/2000/svg" version="1.1">
<desc>Outline to SVG export</desc>
	<path fill-rule="evenodd" fill="#000000" stroke="#555555" stroke-width="0" opacity="1" d="M 2.4548622762897806e-07,2.98023187296664e-07 L 2.6028303838089928e-08,3.0880449681772764e-07 L 1.7358498933388783e-07,4.716081666517259e-07 L 2.000000064833585,1.9999998264150527 L 2.0000002276372997,1.9999999739716987 L 2.00000023841855,1.9999997545137818 L 2.0000000000000293,2.4548617639220104e-07 L 1.9999999885047655,1.149523407736718e-08 L 1.9999997545169266,1.1284556204406933e-13 L 2.4548622762897806e-07,2.98023187296664e-07 z M 1.9012358324432372,0.09875410795355173 L 1.9012368126146475,0.09875415610614448 L 1.9012377833464849,0.09875430010046798 L 1.9012387352900715,0.09875453854977821 L 1.90123965927767,0.09875486915767794 L 1.9012405464107747,0.09875528874023237 L 1.901241388145809,0.09875579325663214 L 1.9012421763764042,0.09875637784810852 L 1.901242903511469,0.09875703688472603 L 1.901243562548295,0.09875776401960176 L 1.9012441471399975,0.09875855225002939 L 1.9012446516566386,0.09875939398491898 L 1.9012450712394473,0.09876028111790343 L 1.9012454018476121,0.09876120510540712 L 1.9012456402971953,0.09876215704892531 L 1.9012457842917971,0.09876312778072154 L 1.901245832444671,0.09876410795211792 L 1.901246070858355,1.761562285552975 L 1.9012460227057622,1.7615632657243852 L 1.9012458787114386,1.7615642364562225 L 1.9012456402621285,1.7615651883998091 L 1.9012453096542288,1.7615661123874076 L 1.9012448900716743,1.7615669995205125 L 1.9012443855552745,1.7615678412555467 L 1.9012438009637982,1.761568629486142 L 1.9012431419271805,1.7615693566212067 L 1.9012424147923048,1.7615700156580327 L 1.9012416265618772,1.761570600249735 L 1.9012407848269877,1.7615711047663762 L 1.9012398976940033,1.761571524349185 L 1.9012389737064994,1.7615718549573498 L 1.9012380217629812,1.761572093406933 L 1.9012370510311851,1.7615722374015348 L 1.9012360708597886,1.7615722855544087 L 1.9012350906883784,1.761572237401816 L 1.901234119956541,1.7615720934074923 L 1.9012331680129544,1.7615718549581822 L 1.901232244025356,1.7615715243502825 L 1.9012313568922512,1.761571104767728 L 1.9012305151572169,1.7615706002513283 L 1.9012297269266216,1.761570015659852 L 1.9012289997915568,1.7615693566232344 L 0.23843058377701618,0.09877141743606122 L 0.23842992474019015,0.09877069030118547 L 0.23842934014848774,0.09876990207075786 L 0.23842883563184658,0.09876906033586826 L 0.23842841604903778,0.09876817320288381 L 0.23842808544087307,0.0987672492153801 L 0.23842784699128988,0.09876629727186191 L 0.238427702996688,0.09876532654006569 L 0.23842765484381417,0.0987643463686693 L 0.23842770299640692,0.0987633661972591 L 0.23842784699073044,0.09876239546542159 L 0.23842808544004065,0.09876144352183501 L 0.23842841604794038,0.09876051953423651 L 0.2384288356304948,0.09875963240113174 L 0.23842934014689457,0.09875879066609747 L 0.23842992473837096,0.0987580024355022 L 0.23843058377498846,0.09875727530043749 L 0.2384313109098642,0.09875661626361146 L 0.23843209914029181,0.09875603167190905 L 0.23843294087518144,0.0987555271552679 L 0.23843382800816587,0.09875510757245907 L 0.23843475199566957,0.09875477696429438 L 0.23843570393918778,0.09875453851471118 L 0.238436674670984,0.09875439452010931 L 0.2384376548423804,0.0987543463672355 L 1.9012358324432372,0.09875410795355173 z" />
	<g><path fill-rule="evenodd" fill="#000000" stroke="#555555" stroke-width="0" opacity="1" d="M 0.7258366613159072,0.3006515611581549 L 0.7258368111694922,0.3006517226632779 L 0.929999893782867,0.4999999503142733 L 0.9300000714282515,0.5000001077393063 L 0.9300003085125473,0.5000001192092642 L 1.4999900000010458,0.5000000596056905 L 1.499990980172389,0.5000001077583148 L 1.4999919509041577,0.5000002517526569 L 1.4999929028476757,0.5000004902019727 L 1.4999938268352075,0.5000008208098652 L 1.4999947139682492,0.5000012403924 L 1.499995555703226,0.5000017449087686 L 1.4999963439337711,0.5000023295002032 L 1.4999970710687942,0.5000029885367695 L 1.4999977301055885,0.5000037156715857 L 1.4999983146972704,0.5000045039019474 L 1.499998819213903,0.5000053456367659 L 1.4999992387967163,0.5000062327696762 L 1.4999995694048984,0.5000071567571042 L 1.499999807854513,0.5000081087005472 L 1.4999999518491596,0.5000090794322708 L 1.5000000000020914,0.500010059603599 L 1.500000119209239,1.0699998106966566 L 1.5000001306792794,1.0700000477810299 L 1.5000002881044678,1.0700002254263865 L 1.6993485158164976,1.2741630696840989 L 1.6993486772887334,1.2741632195122639 L 1.6993486883331281,1.2741629995127555 L 1.7000000476837158,0.5 L 1.6993484505077618,0.3006516760575789 L 1.6993484382941302,0.3006514425339473 L 1.6993482047318205,0.3006514310837092 L 0.7258368813657852,0.30065155029293855 L 0.7258366613159072,0.3006515611581549 z" /><path fill-rule="evenodd" fill="#000000" stroke="#555555" stroke-width="0" opacity="1" d="M 1.7000000476837158,0.5 L 1.7000000577824639,0.5000000000084968 L 1.700000057782415,0.499999999966991 L 1.7000000476837158,0.5 z" /></g>
</svg>