<?xml version="1.0" standalone="no"?>
<!DOCTYPE svg PUBLIC "-//W3C//DTD SVG 1.1//EN" 
  "http://www.w3.org/Graphics/SVG/1.1/DTD/svg11.dtd">
<svg width="2.000000212390245m" height="1.9999999739715855m" viewBox="0 0 2.000000212390245 1.9999999739715855"
     xmlns="http://www.w3.org/2000/svg" version="1.1">
<desc>Outline to SVG export</desc>
	<path fill-rule="evenodd" fill="#000000" stroke="#555555" stroke-width="0" opacity="1" d="M 2.454862276290013e-07,2.98023187296664e-07 L 2.6028304488385768e-08,3.088044967857817e-07 L 1.7358499286183334e-07,4.7160816500643347e-07 L 1.0000001192092896,1.0000001192092896 L 2.0000000648335785,1.9999998264150407 L 2.0000002276373,1.9999999739716983 L 2.0000002384185493,1.9999997545138057 L 2.0000000000000293,2.4548617639219993e-07 L 1.9999999885047655,1.149523407736718e-08 L 1.9999997545169266,1.1284556204406933e-13 L 2.454862276290013e-07,2.98023187296664e-07 z M 1.1198369080572883,0.980177488962518 L 1.1198362490204792,0.9801767618276628 L 1.1198356644287895,0.9801759735972588 L 1.1198351599121563,0.9801751318623955 L 1.1198347403293507,0.9801742447294389 L 1.1198344097211839,0.9801733207419643 L 1.1198341712715933,0.9801723687984754 L 1.1198340272769784,0.9801713980667079 L 1.1198339791240863,0.9801704178953391 L 1.1198340272766556,0.9801694377239544 L 1.1198341712709508,0.9801684669921394 L 1.119834409720228,0.980167515048572 L 1.1198347403280904,0.9801665910609885 L 1.1198351599106038,0.9801657039278938 L 1.1198356644269598,0.9801648621928641 L 1.1198362490183897,0.9801640739622677 L 1.1198369080549595,0.9801633468271955 L 1.9012287757156743,0.19877118852788295 L 1.9012295028505357,0.1987705294910147 L 1.9012302910809542,0.19876994489927025 L 1.9012311328158398,0.19876944038258787 L 1.9012320199488248,0.19876902079973918 L 1.9012329439363338,0.19876869019153656 L 1.9012338958798614,0.1987684517419178 L 1.9012348666116707,0.19876830774728316 L 1.9012358467830834,0.19876825959437977 L 1.9012368269545126,0.19876830774694643 L 1.9012377976863715,0.19876845174124755 L 1.901238749629981,0.19876869019053928 L 1.9012396736176034,0.19876902079842448 L 1.9012405607507328,0.1987694403809684 L 1.9012414024857915,0.19876994489736158 L 1.901242190716411,0.19877052948883522 L 1.901242917851499,0.19877118852545367 L 1.9012435768883464,0.19877191566033378 L 1.9012441614800684,0.1987727038907689 L 1.901244665996727,0.19877354562566876 L 1.9012450855795504,0.19877443275866588 L 1.9012454161877268,0.19877535674618424 L 1.9012456546373186,0.19877630868971854 L 1.9012457986319256,0.19877727942153192 L 1.9012458467848012,0.19877825959294598 L 1.901246070858355,1.761562285552975 L 1.9012460227057622,1.7615632657243852 L 1.9012458787114386,1.7615642364562225 L 1.9012456402621285,1.7615651883998091 L 1.9012453096542288,1.7615661123874076 L 1.9012448900716743,1.7615669995205125 L 1.9012443855552745,1.7615678412555467 L 1.9012438009637982,1.761568629486142 L 1.9012431419271805,1.7615693566212067 L 1.9012424147923048,1.7615700156580327 L 1.9012416265618772,1.761570600249735 L 1.9012407848269877,1.7615711047663762 L 1.9012398976940033,1.761571524349185 L 1.9012389737064994,1.7615718549573498 L 1.9012380217629812,1.761572093406933 L 1.9012370510311851,1.7615722374015348 L 1.9012360708597886,1.7615722855544087 L 1.9012350906883784,1.761572237401816 L 1.901234119956541,1.7615720934074923 L 1.9012331680129544,1.7615718549581822 L 1.901232244025356,1.7615715243502825 L 1.9012313568922512,1.761571104767728 L 1.9012305151572169,1.7615706002513283 L 1.9012297269266216,1.761570015659852 L 1.9012289997915568,1.7615693566232344 L 1.1198369080572883,0.980177488962518 z M 1.8012217117325076,0.09875412229367747 L 1.8012226919039156,0.09875417044627 L 1.801223662635751,0.09875431444059285 L 1.8012246145793354,0.098754552889902 L 1.801225538566932,0.09875488349780025 L 1.8012264257000352,0.09875530308035284 L 1.8012272674350682,0.09875580759675043 L 1.8012280556656626,0.09875639218822432 L 1.8012287828007267,0.0987570512248391 L 1.8012294418375525,0.09875777835971193 L 1.8012300264292553,0.09875856659013652 L 1.8012305309458974,0.098759408325023 L 1.8012309505287074,0.09876029545800435 L 1.801231281136874,0.09876121944550502 L 1.8012315195864594,0.09876217138902033 L 1.8012316635810641,0.09876314212081386 L 1.8012317117339414,0.09876412229220785 L 1.8012316635813523,0.09876510246361599 L 1.801231519587033,0.09876607319545185 L 1.8012312811377271,0.09876702513903723 L 1.8012309505298323,0.09876794912663509 L 1.801230530947283,0.09876883625973976 L 1.8012300264308883,0.09876967799477454 L 1.8012294418394172,0.09877046622537095 L 1.801228782802805,0.09877119336043752 L 1.0198368705884553,0.8801633380362216 L 1.0198361434535805,0.8801639970730536 L 1.019835355223153,0.8801645816647619 L 1.0198345134882627,0.8801650861814085 L 1.019833626355277,0.8801655057642226 L 1.0198327023677716,0.880165836372392 L 1.019831750424251,0.8801660748219794 L 1.0198307796924517,0.8801662188165849 L 1.0198297995210521,0.8801662669694615 L 1.0198288193496385,0.8801662188168712 L 1.0198278486177974,0.8801660748225493 L 1.019826896674207,0.88016583637324 L 1.0198259726866048,0.8801655057653405 L 1.0198250855534965,0.8801650861827857 L 1.019824243818459,0.8801645816663849 L 1.0198234555878607,0.8801639970749069 L 1.0198227284527934,0.8801633380382873 L 0.23843058377701618,0.09877141743606122 L 0.23842992474019015,0.09877069030118547 L 0.23842934014848774,0.09876990207075786 L 0.23842883563184658,0.09876906033586826 L 0.23842841604903778,0.09876817320288381 L 0.23842808544087307,0.0987672492153801 L 0.23842784699128988,0.09876629727186191 L 0.238427702996688,0.09876532654006569 L 0.23842765484381417,0.0987643463686693 L 0.23842770299640692,0.0987633661972591 L 0.23842784699073044,0.09876239546542159 L 0.23842808544004065,0.09876144352183501 L 0.23842841604794038,0.09876051953423651 L 0.2384288356304948,0.09875963240113174 L 0.23842934014689457,0.09875879066609747 L 0.23842992473837096,0.0987580024355022 L 0.23843058377498846,0.09875727530043749 L 0.2384313109098642,0.09875661626361146 L 0.23843209914029181,0.09875603167190905 L 0.23843294087518144,0.0987555271552679 L 0.23843382800816587,0.09875510757245907 L 0.23843475199566957,0.09875477696429438 L 0.23843570393918778,0.09875453851471118 L 0.238436674670984,0.09875439452010931 L 0.2384376548423804,0.0987543463672355 L 1.8012217117325076,0.09875412229367747 z" />
</svg>