<?xml version="1.0" standalone="no"?>
<!DOCTYPE svg PUBLIC "-//W3C//DTD SVG 1.1//EN" 
  "http://www.w3.org/Graphics/SVG/1.1/DTD/svg11.dtd">
<svg width="1.9999999739716987m" height="1.9999999739716967m" viewBox="0 0 1.9999999739716987 1.9999999739716967"
     xmlns="http://www.w3.org/2000/svg" version="1.1">
<desc>Outline to SVG export</desc>
	<path fill-rule="evenodd" fill="#000000" stroke="#555555" stroke-width="0" opacity="1" d="M 1.1495242966468261e-08,1.9999999885047632 L 2.4548618829915907e-07,2.0 L 1.99999975451327,2.0 L 1.9999999739716987,1.9999999892187204 L 1.9999998264157237,1.9999998264157584 L 1.0,1.0 L 1.7358499889460859e-07,1.7358499889461028e-07 L 1.0781275894144641e-08,2.60283032518241e-08 L 1.8573261849201985e-15,2.4548614471046535e-07 L 2.2797405053724553e-22,1.9999997545137473 L 1.1495242966468261e-08,1.9999999885047632 z M 0.9801632384757978,1.1198367853660602 L 0.980163965610768,1.1198361263293386 L 0.9801647538412794,1.119835541737749 L 0.9801655955762414,1.1198350372212287 L 0.980166482709286,1.119834617638547 L 0.9801674066968371,1.119834287030515 L 0.9801683586403894,1.119834048581068 L 0.9801693293722064,1.1198339045866055 L 0.9801703095436096,1.1198338564338721 L 0.9801712897150129,1.1198339045866055 L 0.9801722604468298,1.119834048581068 L 0.9801732123903821,1.119834287030515 L 0.9801741363779333,1.119834617638547 L 0.9801750235109778,1.1198350372212287 L 0.9801758652459398,1.119835541737749 L 0.9801766534764512,1.1198361263293386 L 0.9801773806114215,1.1198367853660602 L 1.7615693566207866,1.9012287613754253 L 1.7615700156575083,1.9012294885103955 L 1.7615706002490976,1.901230276740907 L 1.7615711047656182,1.901231118475869 L 1.7615715243482999,1.9012320056089136 L 1.761571854956332,1.9012329295964647 L 1.7615720934057788,1.9012338815400172 L 1.7615722374002414,1.9012348522718339 L 1.7615722855529747,1.9012358324432372 L 1.7615722374002414,1.9012368126146406 L 1.7615720934057788,1.9012377833464573 L 1.761571854956332,1.9012387352900098 L 1.7615715243482999,1.901239659277561 L 1.7615711047656182,1.9012405464106055 L 1.7615706002490976,1.9012413881455674 L 1.7615700156575083,1.901242176376079 L 1.7615693566207866,1.9012429035110492 L 1.7615686294858164,1.9012435625477708 L 1.7615678412553049,1.9012441471393602 L 1.761566999520343,1.9012446516558807 L 1.7615661123872983,1.9012450712385625 L 1.7615651883997472,1.9012454018465945 L 1.7615642364561948,1.9012456402960414 L 1.761563265724378,1.901245784290504 L 1.7615622855529747,1.9012458324432373 L 0.19877833353424446,1.9012458324432373 L 0.19877735336284116,1.901245784290504 L 0.1987763826310243,1.9012456402960414 L 0.19877543068747192,1.9012454018465945 L 0.1987745066999208,1.9012450712385625 L 0.1987736195668762,1.9012446516558807 L 0.19877277783191424,1.9012441471393602 L 0.1987719896014028,1.9012435625477708 L 0.19877126246643256,1.9012429035110492 L 0.1987706034297108,1.901242176376079 L 0.19877001883812143,1.9012413881455674 L 0.19876951432160095,1.9012405464106055 L 0.19876909473891932,1.901239659277561 L 0.19876876413088712,1.9012387352900098 L 0.1987685256814404,1.9012377833464573 L 0.19876838168697772,1.9012368126146404 L 0.19876833353424445,1.9012358324432372 L 0.19876838168697775,1.9012348522718339 L 0.19876852568144043,1.901233881540017 L 0.19876876413088715,1.9012329295964647 L 0.19876909473891935,1.9012320056089136 L 0.198769514321601,1.901231118475869 L 0.19877001883812145,1.901230276740907 L 0.19877060342971087,1.9012294885103955 L 0.1987712624664326,1.9012287613754253 L 0.9801632384757978,1.1198367853660602 z M 0.8801632153717678,1.0198226201264065 L 0.8801638744084748,1.0198233472613587 L 0.8801644590000531,1.0198241354918496 L 0.8801649635165665,1.0198249772267887 L 0.8801653830992454,1.0198258643598088 L 0.8801657137072795,1.0198267883473346 L 0.8801659521567328,1.0198277402908613 L 0.8801660961512067,1.0198287110226532 L 0.8801661443039559,1.0198296911940323 L 0.8801660961512432,1.0198306713654135 L 0.8801659521568054,1.0198316420972104 L 0.8801657137073875,1.0198325940407462 L 0.8801653830993879,1.0198335180282843 L 0.8801649635167419,1.0198344051613202 L 0.8801644590002597,1.019835246896278 L 0.8801638744087108,1.0198360351267906 L 0.8801632153720308,1.0198367622617672 L 0.09877117902019279,1.8012288567413242 L 0.09877045188523512,1.8012295157780829 L 0.09876966365473162,1.8012301003697089 L 0.09876882191977322,1.8012306048862654 L 0.09876793478672795,1.8012310244689818 L 0.09876701079917226,1.8012313550770471 L 0.0987660588556117,1.8012315935265248 L 0.09876508812378343,1.8012317375210163 L 0.0987641079523659,1.8012317856737754 L 0.09876312778094598,1.801231737521065 L 0.09876215704911057,1.8012315935266217 L 0.09876120510553818,1.8012313550771912 L 0.0987602811179661,1.8012310244691716 L 0.09875939398490001,1.8012306048864992 L 0.09875855224991659,1.8012301003699844 L 0.0987577640193841,1.8012295157783975 L 0.09875703688439373,1.8012288567416748 L 0.09875637784765312,1.8012281296067008 L 0.09875579325604655,1.8012273413761828 L 0.09875528873951096,1.801226499641212 L 0.09875486915681653,1.8012256125081563 L 0.09875453854877408,1.8012246885205925 L 0.09875430009931993,1.8012237365770258 L 0.09875415610485272,1.801222765845194 L 0.09875410795211792,1.8012217856737753 L 0.09875410795211792,0.23843765484238033 L 0.09875415610485119,0.23843667467097704 L 0.09875430009931388,0.23843570393916017 L 0.0987545385487606,0.2384347519956078 L 0.09875486915679281,0.23843382800805668 L 0.09875528873947444,0.23843294087501207 L 0.09875579325599489,0.23843209914005015 L 0.09875637784758429,0.2384313109095387 L 0.09875703688430605,0.23843058377456847 L 0.09875776401927627,0.23842992473784672 L 0.09875855224978772,0.2384293401462573 L 0.09875939398474966,0.23842883562973685 L 0.09876028111779427,0.23842841604705522 L 0.09876120510534538,0.238428085439023 L 0.09876215704889775,0.2384278469895763 L 0.09876312778071462,0.23842770299511362 L 0.09876410795211792,0.23842765484238032 L 0.09876508812352121,0.23842770299511362 L 0.09876605885533808,0.2384278469895763 L 0.09876701079889046,0.238428085439023 L 0.09876793478644157,0.23842841604705522 L 0.09876882191948617,0.23842883562973685 L 0.09876966365444811,0.2384293401462573 L 0.09877045188495956,0.23842992473784672 L 0.09877117901992978,0.23843058377456847 L 0.8801632153717678,1.0198226201264065 z" />
</svg>