<?xml version="1.0" standalone="no"?>
<!DOCTYPE svg PUBLIC "-//W3C//DTD SVG 1.1//EN" 
  "http://www.w3.org/Graphics/SVG/1.1/DTD/svg11.dtd">
<svg width="2.000000212390188m" height="1.9999999739715906m" viewBox="0 0 2.000000212390188 1.9999999739715906"
     xmlns="http://www.w3.org/2000/svg" version="1.1">
<desc>Outline to SVG export</desc>
	<path fill-rule="evenodd" fill="#000000" stroke="#555555" stroke-width="0" opacity="1" d="M 2.602830296361181e-08,3.0880449585289125e-07 L 1.7358498933387745e-07,4.716081666517155e-07 L 2.000000064833585,1.9999998264150525 L 2.0000002276372997,1.9999999739716985 L 2.000000238418491,1.9999997545149746 L 2.0,0.9999999403953552 L 2.0,2.4548619047366713e-07 L 1.999999988504763,1.149523471277726e-08 L 1.9999997545170132,1.0796213808768305e-13 L 0.9999999403962496,1.1920928955067463e-07 L 0.9999999403956533,1.1920930419246403e-07 L 2.4548622496652645e-07,2.980231799805964e-07 L 2.602830296361181e-08,3.0880449585289125e-07 z M 0.7999999783445833,0.10000015383241492 L 0.8000001259012745,0.10000031663608125 L 1.9000000409916895,1.1999998740987405 L 1.9000002037954264,1.2000000216553957 L 1.9000002145765749,1.1999998021974483 L 1.9000001026566042,1.0122292052750415 L 1.9000001507586728,1.0122282256122213 L 1.900000294603279,1.01222725537422 L 1.9000005328065614,1.0122263038952415 L 1.9000008630768779,1.0122253803290187 L 1.900001282236853,1.0122244935607483 L 1.9000017862539456,1.0122236521216115 L 1.9000023702792432,1.0122228641066995 L 1.9000030286941134,1.0122221370971336 L 1.9000037551642555,1.0122214780871315 L 1.9000045427006411,1.012220893416719 L 1.9000053837267528,1.0122203887107355 L 1.900006270151473,1.0122199688247207 L 1.9000071934469258,1.0122196377982005 L 1.9000081447305188,1.012219398815826 L 1.9000091148503997,1.0122192541767336 L 1.9000100944735003,1.012219205272429 L 1.9000110741753267,1.0122192525733973 L 1.9000120445306274,1.0122193956245777 L 1.90001299620407,1.0122196330497424 L 1.900013920040051,1.0122199625647352 L 1.9000148071507779,1.012220380999447 L 1.9000156490017752,1.012220884328314 L 1.9000164374939899,1.0122214677090455 L 1.900017165041708,1.0122221255292094 L 1.9000178246455348,1.0122228514602265 L 1.9000184099597317,1.0122236385182557 L 1.9000189153532654,1.0122244791313808 L 1.900019335963982,1.0122253652124578 L 1.9000196677453836,1.0122262882369166 L 1.9000199075055566,1.0122272393247727 L 1.9000200529378812,1.0122282093260555 L 1.9000201026432215,1.0122291889088388 L 1.9012460312731414,1.761562229622347 L 1.9012459846583332,1.7615632105496588 L 1.90124584205407,1.7615641821747696 L 1.9012456048356152,1.7615651351274106 L 1.901245275290683,1.7615660602173895 L 1.9012448565973756,1.7615669485232186 L 1.9012443527935357,1.7615677914781536 L 1.9012437687378034,1.76156858095281 L 1.9012431100627618,1.7615693093335627 L 1.9012423831206158,1.761569969595971 L 1.9012415949219321,1.7615705553725214 L 1.901240753068031,1.7615710610140354 L 1.9012398656776786,1.7615714816441503 L 1.90123894130879,1.7615718132063458 L 1.901237988875899,1.7615720525030647 L 1.9012370175641857,1.7615721972265501 L 1.9012360367408963,1.7615722459811016 L 1.9012350558650053,1.761572198296534 L 1.9012340843959947,1.7615720546327136 L 1.9012331317026279,1.7615718163751217 L 1.9012322069725967,1.7615714858214937 L 1.9012313191239176,1.7615710661596602 L 1.901230476718926,1.7615705614368038 L 1.901229687881703,1.7615699765204276 L 1.901228960219726,1.7615693170514148 L 0.23843062334820628,0.09877145700724008 L 0.23842996387899168,0.09877072934546087 L 0.2384293789623946,0.09876994050841535 L 0.23842887423929987,0.09876909810357944 L 0.23842845457721315,0.09876821025503217 L 0.23842812402331912,0.09876728552510777 L 0.23842788576545085,0.09876633283182128 L 0.23842774210134648,0.09876536136286396 L 0.23842769441649017,0.098764380486998 L 0.23842774317075055,0.09876339966370504 L 0.2384278878939457,0.09876242835195966 L 0.23842812719037776,0.09876147591900794 L 0.23842845875229274,0.0987605515500305 L 0.2384288793821363,0.0987596641595614 L 0.2384293850233908,0.09875882230551725 L 0.23842997079969594,0.09875803410666527 L 0.23843063106187593,0.0987573071643267 L 0.23843135944241967,0.09875664848907027 L 0.23843214891688852,0.09875606443310295 L 0.23843299187165926,0.09875556062900968 L 0.2384338801773494,0.0987551419354334 L 0.238434805267216,0.09875481239021855 L 0.2384357582197728,0.09875457517147056 L 0.23843672984482817,0.0987544325669064 L 0.23843771077211448,0.09875438595179212 L 0.9877751532236113,0.0999800871031727 L 0.9877761328062296,0.099980136808188 L 0.9877771028073827,0.09998028224015561 L 0.9877780538951487,0.09998052199994335 L 0.987778976919562,0.09998085378093574 L 0.9877798630006414,0.0999812743912248 L 0.9877807036138199,0.0999817797843179 L 0.9877814906719558,0.09998236509806717 L 0.9877822166031351,0.09998302470144592 L 0.9877828744235174,0.09998375224872208 L 0.987783457804524,0.09998454074050746 L 0.9877839611337221,0.09998538259109561 L 0.9877843795688197,0.09998626970144026 L 0.9877847090842505,0.09998719353707243 L 0.9877849465099026,0.09998814521020653 L 0.9877850895616159,0.09998911556524553 L 0.9877851368631578,0.09999009526686264 L 0.9877850879594625,0.09999107488981206 L 0.9877849433210091,0.09999204500960478 L 0.987784704339296,0.09999299629317723 L 0.9877843733134529,0.09999391958868015 L 0.9877839534281232,0.09999480601352427 L 0.9877834487228249,0.09999564703983552 L 0.9877828640530887,0.09999643457649758 L 0.9877822050437458,0.0999971610469928 L 0.9877814780348133,0.09999781946229219 L 0.9877806900205002,0.09999840348809362 L 0.9877798485819194,0.09999890750576115 L 0.9877789618141535,0.09999932666637922 L 0.9877780382483756,0.0999996569374018 L 0.9877770867697752,0.09999989514144762 L 0.9877761165320779,0.10000003898686825 L 0.9877751368694814,0.10000008708979494 L 0.8000001978024912,0.1000001430510743 L 0.7999999783445833,0.10000015383241492 z M 1.9012358047671254,0.09875412181541499 L 1.9012367867240236,0.09875416878015417 L 1.9012377593244592,0.09875431193541626 L 1.9012387131687838,0.09875454989768431 L 1.9012396390386161,0.09875488036718384 L 1.9012405279859332,0.09875530015010874 L 1.9012413714195477,0.09875580518948777 L 1.9012421611881376,0.09875639060439292 L 1.9012428896590232,0.09875705073711091 L 1.901243549791934,0.09875777920782185 L 1.9012441352070482,0.09875856897625669 L 1.9012446402466503,0.0987594124097376 L 1.9012450600298105,0.09876030135694358 L 1.901245390499555,0.09876122722668847 L 1.9012456284620756,0.09876218107095008 L 1.901245771617595,0.09876315367134789 L 1.901245818582594,0.0987641356282336 L 1.90000012867247,0.9999759050047279 L 1.900000079222184,0.9999768845355128 L 1.8999999340550762,0.9999778545109765 L 1.8999996945675464,0.999978805600674 L 1.8999993630632872,0.9999797286558271 L 1.8999989427311237,0.9999806147973292 L 1.8999984376143402,0.999981455501156 L 1.8999978525717856,0.9999822426803597 L 1.8999971932311357,0.9999829687628597 L 1.8999964659347588,0.9999836267642804 L 1.8999956776787073,0.999984210355136 L 1.8999948360454197,0.9999847139217146 L 1.8999939491307853,0.9999851326200792 L 1.8999930254662651,0.9999854624226617 L 1.8999920739368272,0.9999857001570058 L 1.8999911036954797,0.9999858435362832 L 1.8999901240752255,0.9999858911812916 L 1.8999891444992851,0.9999858426337211 L 1.8999881743904534,0.9999856983605636 L 1.8999872230804582,0.9999854597496198 L 1.8999862997201966,0.9999851290961503 L 1.8999854131917102,0.9999847095807963 L 1.899984572022746,0.9999842052389846 L 1.8999837843047258,0.9999836209221097 L 1.8999830576149135,0.9999829622508669 L 1.0000170377509312,0.10001712119404887 L 1.0000163790795615,0.10001639450438864 L 1.0000157947625432,0.10001560678650907 L 1.0000152904205728,0.100014765617672 L 1.0000148709050458,0.10001387908929779 L 1.0000145402513907,0.1000129557291319 L 1.00001430164025,0.10001200441921433 L 1.0000141573668866,0.10001103431044094 L 1.0000141088191028,0.10001005473453867 L 1.0000141564638922,0.1000090751143012 L 1.0000142998429475,0.10000810487294869 L 1.0000145375770684,0.10000715334348335 L 1.000014867379429,0.10000622967891298 L 1.0000152860775753,0.1000053427642057 L 1.0000157896439414,0.10000450113082322 L 1.0000163732345926,0.10000371287465448 L 1.0000170312358194,0.10000298557813922 L 1.0000177573181381,0.10000232623733053 L 1.0000185444971754,0.100001741194598 L 1.0000193852008525,0.1000012360776188 L 1.000020271342224,0.10000081574524367 L 1.0000211943972666,0.10000048424075832 L 1.0000221454868756,0.10000024475299003 L 1.0000231154622745,0.10000009958563354 L 1.000024094993019,0.10000005013509113 L 1.9012358047671254,0.09875412181541499 z" />
</svg>