<?xml version="1.0" standalone="no"?>
<!DOCTYPE svg PUBLIC "-//W3C//DTD SVG 1.1//EN" 
  "http://www.w3.org/Graphics/SVG/1.1/DTD/svg11.dtd">
<svg width="1.9999999739716987m" height="1.9999999739716967m" viewBox="0 0 1.9999999739716987 1.9999999739716967"
     xmlns="http://www.w3.org/2000/svg" version="1.1">
<desc>Outline to SVG export</desc>
	<path fill-rule="evenodd" fill="#000000" stroke="#555555" stroke-width="0" opacity="1" d="M 1.1495242966468228e-08,1.9999999885047632 L 2.4548618829915907e-07,2.0 L 1.99999975451327,2.0 L 1.9999999739716987,1.9999999892187204 L 1.9999998264157237,1.9999998264157584 L 1.73584998894612e-07,1.7358499889461587e-07 L 1.0781275894144557e-08,2.602830325182584e-08 L 1.8573259569462126e-15,2.4548614471046995e-07 L 0.0,1.0 L 0.0,1.9999997545137473 L 1.1495242966468228e-08,1.9999999885047632 z M 0.09999997501848931,0.8000000379492321 L 0.09999996423721313,0.8000002574071502 L 0.09999996423721313,0.9877740794677783 L 0.09999991613457408,0.9877750591304331 L 0.0999997722894297,0.9877760293682161 L 0.0999995340856462,0.9877769808469277 L 0.0999992038148697,0.9877779044128404 L 0.0999987846544794,0.9877787911807628 L 0.09999828063701949,0.9877796326195195 L 0.09999769661140394,0.9877804206340254 L 0.09999703819626746,0.987781147643165 L 0.09999631172591117,0.9877818066527267 L 0.09999552418936332,0.9877823913226909 L 0.09999468316314118,0.9877828960282236 L 0.09999379673836092,0.9877833159137913 L 0.09999287344289678,0.9877836469398734 L 0.09999192215933847,0.987783885921824 L 0.09999095203953588,0.9877840305605108 L 0.09998997241655358,0.9877840794644333 L 0.09998899271488171,0.9877840321631097 L 0.09998802235976745,0.987783889111604 L 0.09998707068653916,0.9877836516861469 L 0.0999861468507956,0.9877833221708969 L 0.09998525974032423,0.9877829037359644 L 0.09998441788959601,0.9877824004069146 L 0.0999836293976593,0.9877818170260383 L 0.0999829018502227,0.9877811592057676 L 0.09998224224667654,0.9877804332746807 L 0.0999816569327551,0.9877796462166177 L 0.09998115153948722,0.9877788056034927 L 0.0999807309290229,0.9877779195224478 L 0.09998039914785682,0.98777699649805 L 0.0999801593878989,0.9877760454102813 L 0.09998001395576649,0.9877750754091081 L 0.09997996425059347,0.9877740958264537 L 0.09875414753700142,0.23843771077255893 L 0.09875419415196268,0.23843672984525988 L 0.09875433675637633,0.23843575822017687 L 0.0987545739749778,0.23843480526757796 L 0.09875490352005145,0.23843388017765524 L 0.09875532221349322,0.23843299187189568 L 0.09875582601745987,0.23843214891704287 L 0.0987564100733097,0.2384313594424803 L 0.09875706874845877,0.2384306310618321 L 0.09875779569070112,0.23842997079953804 L 0.09875858388946884,0.23842938502311037 L 0.09875942574344146,0.2384288793817261 L 0.09876031313385229,0.2384284587517469 L 0.09876123750278526,0.23842812718969172 L 0.09876218993570661,0.23842788789311628 L 0.0987631612474359,0.238427743169776 L 0.0987641420707271,0.23842769441537015 L 0.09876512294660555,0.23842774210008208 L 0.0987660944155894,0.23842788576404447 L 0.09876704710891608,0.2384281240217746 L 0.09876797183889384,0.2384284545755356 L 0.09876885968750704,0.23842887423749565 L 0.0987697020924207,0.23842937896047126 L 0.09877049092955495,0.23842996387695786 L 0.09877121859143295,0.2384306233460716 L 1.7615693170530744,1.9012287218077129 L 1.7615699765221466,1.9012294494695405 L 1.7615705614386024,1.9012302383066169 L 1.7615710661615582,1.9012310807114665 L 1.7615714858235105,1.9012319685600112 L 1.7615718163772769,1.901232893289918 L 1.7615720546350253,1.901233845983173 L 1.7615721982990193,1.9012348174520863 L 1.761572245983776,1.9012357983278974 L 1.7615721972294278,1.9012367791511264 L 1.7615720525061571,1.9012377504628002 L 1.7615718132096627,1.9012387028956748 L 1.7615714816476988,1.9012396272645713 L 1.76157106101782,1.9012405146549576 L 1.761570555376543,1.901241356508919 L 1.7615699696002287,1.9012421447076897 L 1.761569309338052,1.9012428716499505 L 1.7615685809575228,1.9012435303251343 L 1.7615677914830792,1.9012441143810355 L 1.761566948528343,1.9012446181850704 L 1.7615660602226955,1.9012450368785974 L 1.761565135132878,1.9012453664237727 L 1.7615641821803756,1.901245603642492 L 1.761563210555378,1.9012457462470387 L 1.761562229628151,1.9012457928621471 L 1.0122270731612553,1.900020095354054 L 1.0122260935785445,1.9000200456490293 L 1.0122251235773012,1.9000199002170342 L 1.0122241724894507,1.9000196604572015 L 1.0122232494649608,1.9000193286761475 L 1.0122223633838152,1.9000189080657812 L 1.0122215227705829,1.900018402672597 L 1.0122207357124078,1.9000178173587448 L 1.0122200097812057,1.9000171577552525 L 1.0122193519608187,1.9000164302078553 L 1.0122187685798267,1.9000156417159435 L 1.0122182652506633,1.9000147998652264 L 1.0122178468156213,1.9000139127547526 L 1.0122175173002668,1.9000129889189945 L 1.012217279874712,1.9000120372457403 L 1.012217136823116,1.90001106689059 L 1.012217089521711,1.9000100871888732 L 1.0122171384255618,1.9000091075658385 L 1.012217283064187,1.9000081374459774 L 1.0122175220460867,1.900007186162356 L 1.0122178530721289,1.9000062628668257 L 1.0122182729576676,1.9000053764419778 L 1.0122187776631824,1.9000045354156878 L 1.012219362333139,1.9000037478790737 L 1.0122200213427033,1.9000030214086538 L 1.012220748351855,1.900002362993458 L 1.0122215363663816,1.900001778967788 L 1.0122223778051667,1.9000012749502806 L 1.012223264573124,1.90000085578985 L 1.012224188139077,1.900000525519041 L 1.012225139617833,1.9000002873152342 L 1.0122261098556633,1.9000001434700755 L 1.0122270895183667,1.9000000953674316 L 1.1999998021974942,1.9000000953674316 L 1.200000021655413,1.9000000845861553 L 1.199999874098746,1.899999921782462 L 0.10000013782218549,0.8000001855059014 L 0.09999997501848931,0.8000000379492321 z M 0.9999829622481451,1.8999830576144483 L 0.9999836209194536,1.8999837843042384 L 0.9999842052363938,1.8999845720222444 L 0.9999847095782695,1.8999854131912024 L 0.9999851290936854,1.89998629971969 L 0.999985459747214,1.8999872230799595 L 0.9999856983582129,1.8999881743899694 L 0.9999858426314214,1.8999891444988213 L 0.9999858911790378,1.899990124074787 L 0.99998584353407,1.899991103695071 L 0.9999857001548275,1.8999920739364513 L 0.9999854624205121,1.8999930254659247 L 0.9999851326179522,1.8999939491304825 L 0.999984713919604,1.899994836045155 L 0.9999842103530355,1.8999956776784808 L 0.9999836267621843,1.8999964659345698 L 0.9999829687607621,1.8999971932309825 L 0.9999822426782554,1.8999978525716659 L 0.99998145549904,1.8999984376142511 L 0.9999806147951973,1.8999989427310617 L 0.9999797286536755,1.899999363063248 L 0.9999788055984996,1.8999996945675253 L 0.9999778545087772,1.8999999340550684 L 0.9999768845332868,1.9000000792221845 L 0.9999759050024744,1.900000128672473 L 0.09876413562690722,1.9012458185825958 L 0.09876315367010378,1.9012457716176048 L 0.09876218106978589,1.9012456284621093 L 0.09876122722559948,1.9012453904996287 L 0.0987603013559228,1.9012450600299386 L 0.09875941240877587,1.9012446402468468 L 0.09875856897534283,1.9012441352073253 L 0.09875777920694286,1.9012435497923028 L 0.09875705073625218,1.9012428896594926 L 0.09875639060353845,1.9012421611887145 L 0.09875580518862044,1.9012413714202372 L 0.0987553001492106,1.9012405279867373 L 0.09875488036623646,1.9012396390395347 L 0.09875454989666901,1.9012387131698143 L 0.09875431193431448,1.9012377593255965 L 0.09875416877894784,1.9012367867252595 L 0.09875412181408677,1.9012358047684499 L 0.09999993092898556,1.0000240949952708 L 0.09999998037940114,1.0000231154644923 L 0.1000001255466374,1.0000221454890477 L 0.10000036503429313,1.000021194399382 L 0.10000069653867458,1.0000202713442727 L 0.10000111687095525,1.0000193852028263 L 0.10000162198785012,1.0000185444990664 L 0.10000220703050902,1.00001775731994 L 0.10000286637125513,1.0000170312375272 L 0.10000359366771912,1.0000163732362028 L 0.10000438192384802,1.0000157896454516 L 0.10000522355720202,1.0000152860789844 L 0.10000611047189203,1.0000148673807372 L 0.10000703413645602,1.000014537578277 L 0.10000798566592539,1.0000142998440589 L 0.10000895590729185,1.0000141564649099 L 0.10000993552755251,1.0000141088200314 L 0.10001091510348645,1.0000141573677315 L 0.10001188521229916,1.0000143016410175 L 0.10001283652226281,1.0000145402520872 L 0.10001375988248057,1.000014870905679 L 0.10001464641091144,1.0000152904211506 L 0.10001548757980896,1.0000157947630737 L 0.1000162752977517,1.000016379080053 L 0.10001700198747683,1.000017037751392 L 0.9999829622481451,1.8999830576144483 z" />
</svg>