<?xml version="1.0" standalone="no"?>
<!DOCTYPE svg PUBLIC "-//W3C//DTD SVG 1.1//EN" 
  "http://www.w3.org/Graphics/SVG/1.1/DTD/svg11.dtd">
<svg width="2.000000212390198m" height="1.9999999739715766m" viewBox="0 0 2.000000212390198 1.9999999739715766"
     xmlns="http://www.w3.org/2000/svg" version="1.1">
<desc>Outline to SVG export</desc>
	<path fill-rule="evenodd" fill="#000000" stroke="#555555" stroke-width="0" opacity="1" d="M 2.454862276289231e-07,2.9802318729666687e-07 L 2.6028303765835225e-08,3.088044968212777e-07 L 1.7358498894187783e-07,4.7160816683451755e-07 L 0.9000000953673997,0.9000001549720444 L 0.9000000953674215,0.9000001549720652 L 2.0000000648335883,1.9999998264150562 L 2.0000002276372997,1.9999999739716992 L 2.000000238418502,1.999999754514755 L 2.0,0.8999999761581421 L 2.0,2.454861919003437e-07 L 1.9999999885047628,1.1495234710986591e-08 L 1.999999754517311,1.2259757253199003e-13 L 2.454862276289231e-07,2.9802318729666687e-07 z M 1.9012460358676033,1.761562229347671 L 1.9012459890662183,1.7615632102693513 L 1.9012458462765145,1.7615641818705106 L 1.9012456088755523,1.76156513478105 L 1.9012452791528214,1.7615660598111214 L 1.90124486028816,1.7615669480397562 L 1.9012443563210895,1.761567790900898 L 1.9012437721118567,1.761568580266013 L 1.901243113294562,1.7615693085224824 L 1.9012423862228247,1.761569968647017 L 1.9012415979085076,1.761570554273391 L 1.901240755954096,1.7615710597538374 L 1.9012398684793794,1.7615714802135138 L 1.9012389440431432,1.7615718115975172 L 1.9012379915606294,1.7615720507099877 L 1.9012370202175577,1.7615721952449297 L 1.9012360393815382,1.7615722438084522 L 1.9012350585117315,1.7615721959322093 L 1.9012340870676232,1.7615720520779183 L 1.9012331344177982,1.761571813632907 L 1.9012322097495895,1.7615714828967335 L 1.9012313219804764,1.7615710630590098 L 1.9012304796720838,1.7615705581686414 L 1.9012296909476143,1.7615699730947794 L 1.901228963413509,1.7615693134798627 L 1.0400171439869341,0.9000171650348828 L 1.0400164851461118,0.9000164378334179 L 1.0400159007495031,0.900015649560747 L 1.0400153964242234,0.9000148078070942 L 1.0400149770263865,0.9000139206776481 L 1.0400146465943454,0.9000129967145178 L 1.040014408309808,0.9000120448144816 L 1.0400142644672,0.90001107414332 L 1.0400142164515718,0.9000100940475598 L 1.0400142647252626,0.9000091139644762 L 1.0400144088234486,0.9000081433312229 L 1.040014647358618,0.9000071914939612 L 1.0400149780339318,0.9000062676178675 L 1.0400153976653401,0.9000053805988818 L 1.0400159022122406,0.9000045389780497 L 1.0400164868163853,0.9000037508592807 L 1.0400171458486607,0.9000030238313173 L 1.0400178729632898,0.9000023648946619 L 1.0400186611589355,0.9000017803941709 L 1.0400195028461154,0.9000012759579599 L 1.040020389920281,0.9000008564432106 L 1.040021313839855,0.9000005258894022 L 1.0400222657084792,0.9000002874794147 L 1.0400232363606752,0.9000001435088819 L 1.0400242164500988,0.9000000953640861 L 1.899990109817001,0.8999999761595262 L 1.8999910890890077,0.9000000242235813 L 1.8999920589474446,0.9000001679539861 L 1.8999930100692195,0.9000004059690835 L 1.8999939333113522,0.9000007359808728 L 1.8999948197988659,0.9000011548170043 L 1.8999956610100994,0.9000016584512738 L 1.8999964488586254,0.9000022420423266 L 1.8999971757709835,0.9000028999801966 L 1.8999978347594828,0.9000036259402332 L 1.8999984194893733,0.9000044129439002 L 1.8999989243397415,0.9000052534258588 L 1.8999993444575423,0.9000061393066918 L 1.8999996758042514,0.9000070620705702 L 1.8999999151946865,0.9000080128471142 L 1.900000060327626,0.9000089824966626 L 1.9000001098079304,0.9000099616981313 L 1.9012460358676033,1.761562229347671 z M 0.8900001309324728,0.7500001299905618 L 0.8900002784891374,0.7500002927942522 L 0.9734913230259248,0.8334913373310395 L 0.9734919820204918,0.8334920644146444 L 0.9734925665804014,0.8334928525860216 L 0.9734930710767836,0.8334936942556767 L 0.9734934906517196,0.8334945813189669 L 0.9734938212650198,0.8334955052341434 L 0.9734940597331283,0.8334964571046016 L 0.9734942037597771,0.8334974277645484 L 0.9734942519580988,0.8334984078672621 L 0.9734942038639798,0.8334993879750947 L 0.9734940599405302,0.8335003586503487 L 0.973493821573624,0.8335013105461548 L 0.9734934910585543,0.8335022344964763 L 0.9734930715779313,0.8335031216043698 L 0.9734925671710365,0.8335039633276571 L 0.9734919826949269,0.833504751561179 L 0.9734913237776656,0.8335054787148426 L 0.9734905967641276,0.8335061377867078 L 0.973489808654904,0.8335067224304108 L 0.9734889670388908,0.8335072270162747 L 0.9734880800202138,0.8335076466855189 L 0.9734871561401925,0.833507977397046 L 0.9734862042950931,0.8335082159663538 L 0.9734852336504645,0.8335083600962004 L 0.9734842535528806,0.8335084083987242 L 0.9734832734399402,0.8335083604088085 L 0.9734823027493902,0.8335082165885598 L 0.9734813508282467,0.8335079783228584 L 0.9734804268427909,0.8335076479060229 L 0.9734795396903041,0.8335072285197177 L 0.9734786979133941,0.833506724202316 L 0.9734779096177365,0.8335061398100129 L 0.9734771823940223,0.8335054809700647 L 0.2384305925365262,0.09877141893844783 L 0.23842993328902204,0.09877069187519931 L 0.2384293484876137,0.09876990369022616 L 0.2384288437652735,0.0987690619755486 L 0.23842842398362957,0.09876817483880013 L 0.2384280931861372,0.09876725082513241 L 0.23842785455913126,0.09876629883490601 L 0.23842771040113447,0.09876532803795965 L 0.2384276621007174,0.09876434778528365 L 0.23842771012312325,0.0987633675189486 L 0.23842785400578664,0.09876239668115665 L 0.2384280923627892,0.09876144462329159 L 0.2384284228982089,0.0987605205158436 L 0.23842884242823525,0.0987596332600766 L 0.2384293469118366,0.09875879140228867 L 0.2384299314896844,0.09875800305149178 L 0.23843059053095977,0.09875727580130342 L 0.23843131768759102,0.09875661665680277 L 0.23843210595540013,0.0987560319670558 L 0.23843294774156898,0.09875552736395926 L 0.23843383493777545,0.09875510770799269 L 0.2384347589982952,0.09875477704140083 L 0.2384357110223163,0.0987545385492577 L 0.23843668183967456,0.09875439452878695 L 0.23843766209918305,0.09875434636723446 L 1.9012358168822143,0.09875410795355397 L 1.901236798020748,0.09875415620144737 L 1.9012377696916944,0.09875430047983572 L 1.901238722518811,0.0987545393964893 L 1.901239647307691,0.09875487064595635 L 1.9012405351344845,0.09875529103180974 L 1.901241377432013,0.09875579649749129 L 1.901242166072436,0.0987563821654559 L 1.9012428934456835,0.09875704238423799 L 1.90124355253289,0.09875777078298591 L 1.9012441369741224,0.09875856033293812 L 1.9012446411297534,0.09875940341524804 L 1.901245060134879,0.09876029189450286 L 1.9012453899462645,0.09876121719722711 L 1.9012456273813598,0.0987621703946133 L 1.9012457701490095,0.09876314228868145 L 1.9012458168715618,0.09876412350103594 L 1.9000200953553454,0.8871361801041163 L 1.9000200457271132,0.8871371597160236 L 1.9000199003662266,0.8871381297534779 L 1.900019660671206,0.8871390808837254 L 1.900019328948164,0.8871400039559183 L 1.9000189083886152,0.8871408900891568 L 1.9000184030387737,0.887141730757931 L 1.9000178177606226,0.8871425178741461 L 1.9000171581851375,0.8871432438649378 L 1.90001643065811,0.8871439017455309 L 1.900015642179096,0.8871444851864401 L 1.9000148003340707,0.8871449885743659 L 1.9000139132224463,0.8871454070662009 L 1.900012989379145,0.887145736635625 L 1.9000120376924863,0.8871459741118425 L 1.9000110673186708,0.8871461172100891 L 1.9000100875936883,0.8871461645536128 L 1.9000091079434973,0.8871461156869206 L 1.9000081377933362,0.8871459710801601 L 1.9000071864770436,0.8871457321245965 L 1.9000062631472565,0.887145401119227 L 1.9000053766873537,0.8871449812486626 L 1.9000045356259874,0.8871444765524881 L 1.9000037480550298,0.8871438918863979 L 1.9000030215517205,0.8871432328754786 L 1.9000023631057654,0.8871425058600905 L 1.9000017790520891,0.8871417178348665 L 1.9000012750098867,0.8871408763814166 L 1.9000008558285604,0.887139989595385 L 1.9000005255410637,0.8871390660085618 L 1.9000002873251012,0.8871381145067986 L 1.9000001434725542,0.8871371442445171 L 1.9000000953674316,0.8871361645566344 L 1.9000000953674316,0.7500002454862377 L 1.9000000838721904,0.7500000114952428 L 1.8999998498811919,0.750000000000029 L 0.8900003503903832,0.7500001192092606 L 0.8900001309324728,0.7500001299905618 z" />
</svg>