<?xml version="1.0" standalone="no"?>
<!DOCTYPE svg PUBLIC "-//W3C//DTD SVG 1.1//EN" 
  "http://www.w3.org/Graphics/SVG/1.1/DTD/svg11.dtd">
<svg width="1.9999999739716987m" height="1.9999999739716972m" viewBox="0 0 1.9999999739716987 1.9999999739716972"
     xmlns="http://www.w3.org/2000/svg" version="1.1">
<desc>Outline to SVG export</desc>
	<path fill-rule="evenodd" fill="#000000" stroke="#555555" stroke-width="0" opacity="1" d="M 1.1495242966468228e-08,1.9999999885047632 L 2.4548618829915907e-07,2.0 L 1.99999975451327,2.0 L 1.9999999739716987,1.9999999892187204 L 1.9999998264157237,1.9999998264157584 L 1.100000023841858,1.100000023841858 L 1.7358497106280143e-07,1.7358497106280061e-07 L 1.0781275915671758e-08,2.602830281362963e-08 L 1.8573259983960372e-15,2.454861447104691e-07 L 0.0,1.100000023841858 L 0.0,1.9999997545137473 L 1.1495242966468228e-08,1.9999999885047632 z M 0.09999996423721313,1.2499997545137789 L 0.09999997573245291,1.2499999885047601 L 0.10000020972343476,1.25 L 1.1099997688188736,1.25 L 1.109999988276801,1.2499999892187226 L 1.1099998407200946,1.249999826415049 L 1.0266059278697424,1.1666059467024525 L 1.0266052688749694,1.1666052196189036 L 1.026604684314857,1.1666044314475563 L 1.0266041798182781,1.1666035897779061 L 1.0266037602431548,1.1666027027145975 L 1.0266034296296787,1.166601778799381 L 1.0266031911614084,1.1666008269288635 L 1.0266030471346135,1.1665998562688407 L 1.0266029989361636,1.1665988761660362 L 1.0266030470301735,1.1665978960581012 L 1.0266031909535338,1.1665969253827362 L 1.0266034293203714,1.166595973486813 L 1.026603759835393,1.1665950495363715 L 1.0266041793159886,1.166594162428358 L 1.0266046837228762,1.1665933207049535 L 1.0266052681989977,1.1665925324713198 L 1.0266059271162888,1.1665918053175526 L 1.026606654129873,1.166591146245594 L 1.0266074422391573,1.1665905616018106 L 1.026608283855244,1.1665900570158807 L 1.0266091708740044,1.1665896373465865 L 1.026610094754117,1.1665893066350268 L 1.0266110465993126,1.1665890680657047 L 1.0266120172440398,1.1665889239358629 L 1.0266129973417217,1.1665888756333629 L 1.026613977454757,1.1665889236233213 L 1.026614948145396,1.1665890674436314 L 1.0266159000666193,1.1665893057094117 L 1.026616824052144,1.1665896361263426 L 1.0266177112046857,1.166590055512758 L 1.0266185529816347,1.166590559830283 L 1.0266193412773135,1.1665911442227204 L 1.0266200685010292,1.166591803062811 L 1.7615693478599648,1.9012287598728126 L 1.7615700071073963,1.901229486936145 L 1.761570591908723,1.9012302751211951 L 1.7615710966309732,1.901231116835942 L 1.7615715164125199,1.9012320039727513 L 1.761571847209908,1.9012329279864704 L 1.761572085836804,1.9012338799767379 L 1.761572229994686,1.9012348507737147 L 1.7615722782949848,1.9012358310264097 L 1.7615722302724577,1.9012368112927522 L 1.7615720863896718,1.9012377821305393 L 1.7615718480325466,1.9012387341883874 L 1.7615715174970052,1.9012396582958058 L 1.7615710979668595,1.901240545551531 L 1.7615705934831425,1.901241387409265 L 1.7615700089051836,1.9012421757599962 L 1.7615693498638034,1.9012429030101072 L 1.7615686227070744,1.9012435621545196 L 1.7615678344391759,1.9012441468441683 L 1.761566992652927,1.901244651447157 L 1.7615661054566507,1.9012450711030076 L 1.7615651813960727,1.9012454017694755 L 1.7615642293720053,1.9012456402614886 L 1.7615632585546137,1.901245784281824 L 1.761562278295085,1.9012458324432373 L 0.0987641235131962,1.9012458324432373 L 0.09876314237466599,1.9012457841952028 L 0.0987621707037369,1.9012456399166742 L 0.0987612178766514,1.9012454009998823 L 0.09876029308781631,1.9012450697502803 L 0.09875940526108033,1.901244649364297 L 0.09875856296362244,1.901244143898491 L 0.09875777432328199,1.9012435582304097 L 0.09875704695012823,1.901242898011519 L 0.09875638786302617,1.9012421696126722 L 0.09875580342190722,1.9012413800626315 L 0.09875529926639845,1.9012405369802445 L 0.0987548802614023,1.9012396485009249 L 0.0987545504501523,1.9012387231981485 L 0.09875431301519733,1.901237770000724 L 0.09875417024769137,1.9012367981066312 L 0.09875412352528473,1.9012358168942662 L 0.09997996424930167,1.1128625880700562 L 0.09998001387767524,1.1128616084582026 L 0.09998015923869268,1.1128606384208148 L 0.09998039893383219,1.1128596872906455 L 0.09998073065698118,1.1128587642185401 L 0.0999811512166234,1.1128578780853975 L 0.09998165656654465,1.1128570374167255 L 0.09998224184476136,1.112856250300617 L 0.09998290142029803,1.112855524309935 L 0.09998362894736287,1.1128548664294526 L 0.09998441742640081,1.1128542829886536 L 0.09998525927143644,1.112853779600836 L 0.09998614638305879,1.1128533611091054 L 0.09998707022634604,1.1128530315397807 L 0.09998802191298009,1.1128527940636563 L 0.09998899228676143,1.1128526509654957 L 0.09998997201170098,1.1128526036220494 L 0.09999095166184202,1.1128526524888098 L 0.0999919218119474,1.112852797095629 L 0.09999287312818007,1.112853036051241 L 0.09999379645790413,1.1128533670566485 L 0.09999468291774252,1.1128537869272406 L 0.09999552397904422,1.1128542916234323 L 0.0999963115499386,1.1128548762895296 L 0.0999970380531875,1.1128555353004463 L 0.09999769649908605,1.112856262315823 L 0.0999982805527107,1.1128570503410273 L 0.09999878459486776,1.1128578917944503 L 0.09999920377615575,1.1128587785804487 L 0.09999953406362158,1.1128597021672333 L 0.09999977227956179,1.1128606536689543 L 0.09999991613209519,1.1128616239311908 L 0.09999996423721313,1.1128626036190272 L 0.09999996423721313,1.2499997545137789 z M 0.9599829156214924,1.0999829541722845 L 0.9599835744621799,1.0999836813738524 L 0.9599841588586453,1.0999844696466117 L 0.9599846631837751,1.0999853114003375 L 0.9599850825814569,1.0999861985298411 L 0.9599854130133392,1.0999871224930131 L 0.959985651297716,1.0999880743930748 L 0.9599857951401631,1.0999890450642458 L 0.9599858431556316,1.0999900251599994 L 0.9599857948817838,1.0999910052430608 L 0.9599856507834452,1.0999919758762773 L 0.9599854122481289,1.0999929277134872 L 0.9599850815726753,1.0999938515895158 L 0.9599846619411355,1.0999947386084235 L 0.9599841573941131,1.0999955802291659 L 0.959983572789857,1.0999963683478342 L 0.9599829137574816,1.0999970953756877 L 0.9599821866427646,1.099997754312225 L 0.9599813984470439,1.099998338812591 L 0.9599805567598024,1.0999988432486711 L 0.959979669685589,1.0999992627632857 L 0.9599787457659809,1.0999995933169566 L 0.9599777938973366,1.0999998317268052 L 0.9599768232451346,1.0999999756971992 L 0.9599758431557185,1.100000023841858 L 0.10000994978764233,1.100000023841858 L 0.10000897051564218,1.099999975777667 L 0.1000080006572253,1.0999998320471278 L 0.10000704953548369,1.0999995940318985 L 0.10000612629339671,1.0999992640199814 L 0.10000523980594114,1.099998845183727 L 0.10000439859477746,1.099998341549341 L 0.1000036107463324,1.0999977579581792 L 0.1000028838340656,1.0999971000202087 L 0.10000222484566702,1.0999963740600807 L 0.1000016401158855,1.0999955870563327 L 0.10000113526563381,1.0999947465743043 L 0.1000007151479557,1.0999938606934132 L 0.10000038380137442,1.099992937929489 L 0.10000014441107105,1.099991987152912 L 0.09999999927826583,1.0999910175033436 L 0.09999994979809693,1.0999900383018681 L 0.09875414294298213,0.2384377110488723 L 0.09875418974450433,0.23843673012718417 L 0.09875433253434694,0.2384357585260306 L 0.09875456993544798,0.2384348056155112 L 0.09875489965831658,0.2384338805854735 L 0.09875531852311283,0.23843299235688625 L 0.0987558224903141,0.23843214949580588 L 0.0987564066996721,0.23843136013076566 L 0.09875706551708499,0.23843063187438412 L 0.0987577925889325,0.23842997174994943 L 0.09875858090335017,0.23842938612368667 L 0.09875942285785158,0.23842888064336232 L 0.09876031033264651,0.23842846018381716 L 0.09876123476894812,0.23842812879995362 L 0.09876218725151356,0.23842788968763012 L 0.09876315859462254,0.23842774515284054 L 0.09876413943066403,0.23842769658947516 L 0.0987651203004774,0.2384277444658779 L 0.09876609174457636,0.23842788832032988 L 0.09876704439437595,0.23842812676550196 L 0.09876796906254301,0.23842845750183433 L 0.09876885683159865,0.23842887733971327 L 0.09876969913991815,0.23842938223023175 L 0.09877048786429911,0.23842996730423702 L 0.0987712153983014,0.23843062691928857 L 0.9599829156214924,1.0999829541722845 z" />
</svg>