<?xml version="1.0" standalone="no"?>
<!DOCTYPE svg PUBLIC "-//W3C//DTD SVG 1.1//EN" 
  "http://www.w3.org/Graphics/SVG/1.1/DTD/svg11.dtd">
<svg width="2.0000002123902463m" height="1.999999973971594m" viewBox="0 0 2.0000002123902463 1.999999973971594"
     xmlns="http://www.w3.org/2000/svg" version="1.1">
<desc>Outline to SVG export</desc>
	<path fill-rule="evenodd" fill="#000000" stroke="#555555" stroke-width="0" opacity="1" d="M 2.6028303499719787e-08,3.088044963762632e-07 L 1.735849896546124e-07,4.7160816650215506e-07 L 1.1000001430511475,1.1000001430511475 L 2.0000000648335865,1.9999998264150531 L 2.0000002276373,1.9999999739716987 L 2.00000023841855,1.9999997545137869 L 2.0000000000000293,2.454861730852285e-07 L 1.9999999885047657,1.1495234076308778e-08 L 1.9999997545167612,1.0471233555699313e-13 L 1.1000000238423098,1.192092895507231e-07 L 1.1000000238420085,1.1920929694661894e-07 L 2.454862264189022e-07,2.9802318397117565e-07 L 2.6028303499719787e-08,3.088044963762632e-07 z M 1.2499999885047575,0.10000003533710619 L 1.2499997545137342,0.10000002384195546 L 1.1128646603165895,0.10000007833455463 L 1.1128636806286567,0.10000003022981836 L 1.1128627103662878,0.09999988637764784 L 1.1128617588644016,0.09999964816204841 L 1.1128608352774216,0.09999931787489832 L 1.1128599484912012,0.09999889869389857 L 1.1128591070375329,0.09999839465200006 L 1.1128583190120636,0.09999781059860254 L 1.112857591996406,0.09999715215289845 L 1.1128569329851965,0.09999642564981041 L 1.112856348318798,0.09999563807904292 L 1.1128558436223008,0.09999479701783406 L 1.1128554237514026,0.09999391055805489 L 1.1128550927456917,0.09999298722835717 L 1.1128548537897824,0.09999203591211912 L 1.1128547091826757,0.09999106576197818 L 1.11285466031564,0.09999008611177318 L 1.1128547076588264,0.09998910638674338 L 1.1128548507567446,0.09998813601284787 L 1.1128550882326464,0.09998718432607828 L 1.11285541780177,0.09998626048263692 L 1.1128558362933225,0.09998537337084475 L 1.112856339680986,0.09998453152562659 L 1.1128569231216556,0.0999837430463964 L 1.1128575810020338,0.0999830155191327 L 1.1128583069926368,0.09998235594339354 L 1.1128590941086909,0.09998177066497367 L 1.1128599347773327,0.09998126531485148 L 1.112860820910468,0.09998084475501316 L 1.112861743982588,0.09998051303167552 L 1.1128626951127925,0.09998027333635708 L 1.1128636651502335,0.09998012797517253 L 1.112864644762157,0.09998007834664548 L 1.9012358168942145,0.09875412352677493 L 1.9012367981065896,0.09875417024903592 L 1.901237770000707,0.09875431301639825 L 1.90123872319817,0.09875455045121304 L 1.9012396485009981,0.09875488026232761 L 1.9012405369803824,0.09875529926719435 L 1.9012413800628465,0.09875580342258099 L 1.9012421696129755,0.0987563878635862 L 1.9012428980119214,0.098757046950584 L 1.9012435582309202,0.09875777432364392 L 1.9012441438991186,0.09875856296390181 L 1.9012446493650483,0.09875940526128918 L 1.901245069751162,0.09876029308796729 L 1.9012454010008988,0.09876121787675766 L 1.9012456399178288,0.09876217070381196 L 1.9012457841964978,0.09876314237472363 L 1.9012458324446733,0.09876412351325027 L 1.9012460708583538,1.7615622782952687 L 1.9012460226970813,1.761563258554802 L 1.9012458786768858,1.7615642293722122 L 1.9012456401850102,1.7615651813963116 L 1.901245309518676,1.7615661054569354 L 1.9012448898629548,1.76156699265327 L 1.9012443852600889,1.76156783443959 L 1.9012438005705559,1.7615686227075713 L 1.9012431414262503,1.7615693498643943 L 1.9012424141762365,1.7615700089058788 L 1.9012416258255924,1.761570593483951 L 1.9012407839679337,1.7615710979677897 L 1.901239896712272,1.761571517498064 L 1.9012389726049037,1.7615718480337395 L 1.9012380205470927,1.7615720863910036 L 1.901237049709329,1.7615722302739316 L 1.9012360694429957,1.7615722782966023 L 1.9012350891902958,1.7615722299964478 L 1.9012341183933,1.7615720858387092 L 1.9012331664029993,1.7615718472119541 L 1.9012322423892336,1.7615715164147032 L 1.9012313552523643,1.761571096633289 L 1.9012305135375445,1.7615705919111644 L 1.9012297253524093,1.761570007109956 L 1.9012289982889807,1.761569347862634 L 1.2500030410235363,1.1100667231061376 L 1.250002382309715,1.1100659960365735 L 1.2500017980121272,1.110065207918322 L 1.2500012937548357,1.11006436633729 L 1.2500008743914888,1.1100634793939814 L 1.2500005439586015,1.1100625556255275 L 1.2500003056367026,1.110061603923514 L 1.250000161719722,1.1100606334483973 L 1.2500001135929093,1.1100596535413307 L 1.2500000000000275,0.10000026932812481 L 1.2499999885047575,0.10000003533710619 z M 0.23843062692165687,0.09877145381451279 L 0.23842996730650462,0.09877072628060177 L 0.23842938223239019,0.09876993755630177 L 0.23842887734175516,0.09876909524805212 L 0.23842845750375335,0.09876820747905457 L 0.23842812676729302,0.09876728281093326 L 0.2384278883219891,0.09876633016116666 L 0.2384277444674027,0.09876535871708761 L 0.2384276965908642,0.09876437784728084 L 0.2384277451540939,0.09876339701123261 L 0.23842788968874906,0.09876242566810363 L 0.23842812880094075,0.09876147318550507 L 0.2384284601846764,0.09876054874915761 L 0.23842888064409873,0.09875966127430448 L 0.23842938612430659,0.09875881931973313 L 0.23842997175046027,0.09875803100523442 L 0.23843063187479438,0.09875730393329556 L 0.23843136013108476,0.09875664511578189 L 0.2384321494960442,0.09875606090631465 L 0.2384329923570548,0.09875555693899675 L 0.23843388058558412,0.0987551380740776 L 0.23843480561557623,0.09875480835108101 L 0.23843575852606277,0.09875457094984813 L 0.23843673012719657,0.09875442815987107 L 0.23843771104887826,0.09875438135821316 L 1.0999900383018688,0.10000006900876808 L 1.099991017503351,0.1000001184888015 L 1.0999919871529393,0.1000002636214725 L 1.0999929379295492,0.10000050301164426 L 1.0999938606935191,0.10000083435809774 L 1.0999947465744684,0.10000125447565315 L 1.0999955870565665,0.1000017593257884 L 1.0999963740603953,0.10000234405546087 L 1.0999971000206143,0.1000030030437588 L 1.0999977579586855,0.10000372995593436 L 1.0999983415499563,0.10000451780429845 L 1.099998845184459,0.10000535901539225 L 1.0999992640208358,0.10000624550278962 L 1.099999594032881,0.10000716874483072 L 1.0999998320482418,0.1000081198665392 L 1.0999999757789156,0.10000908972493601 L 1.1000000238432421,0.10001006899692932 L 1.100000143047802,0.959975962365 L 1.100000094903279,0.9599769424544229 L 1.0999999509330194,0.959977913106645 L 1.0999997125233028,0.9599788649753224 L 1.09999938196976,0.9599797888949765 L 1.0999989624552684,0.9599806759692481 L 1.0999984580193045,0.9599815176565595 L 1.0999978735190479,0.9599823058523612 L 1.0999972145826113,0.9599830329671696 L 1.099996487554849,0.9599836919996458 L 1.0999956994362614,0.9599842766040112 L 1.099994857815589,0.9599847811511502 L 1.0999939707967392,0.9599852007828128 L 1.0999930469207564,0.9599855314583945 L 1.0999920950835793,0.9599857699938426 L 1.0999911244503828,0.9599859140923156 L 1.099990144367328,0.9599859623662991 L 1.0999891642715676,0.9599859143509663 L 1.0999881936003766,0.9599857705086535 L 1.0999872417002816,0.9599855322244085 L 1.0999863177370641,0.959985201792654 L 1.0999854306075023,0.9599847823950949 L 1.0999845888537065,0.9599842780700816 L 1.0999838005808662,0.9599836936737253 L 1.099983073379207,0.9599830348331384 L 0.23843062692165687,0.09877145381451279 z" />
</svg>