<?xml version="1.0" standalone="no"?>
<!DOCTYPE svg PUBLIC "-//W3C//DTD SVG 1.1//EN" 
  "http://www.w3.org/Graphics/SVG/1.1/DTD/svg11.dtd">
<svg width="1.9999999739716987m" height="1.9999999739716972m" viewBox="0 0 1.9999999739716987 1.9999999739716972"
     xmlns="http://www.w3.org/2000/svg" version="1.1">
<desc>Outline to SVG export</desc>
	<path fill-rule="evenodd" fill="#000000" stroke="#555555" stroke-width="0" opacity="1" d="M 1.1495242966468261e-08,1.9999999885047632 L 2.4548618829915907e-07,2.0 L 1.99999975451327,2.0 L 1.9999999739716987,1.9999999892187204 L 1.9999998264157237,1.9999998264157584 L 0.8999999761581421,0.8999999761581421 L 1.7358497106277158e-07,1.7358497106277155e-07 L 1.0781275915671823e-08,2.602830281362832e-08 L 1.8573261849201985e-15,2.4548614471046535e-07 L 2.2797405053724553e-22,1.9999997545137473 L 1.1495242966468261e-08,1.9999999885047632 z M 0.8999999761581421,1.0400240972408172 L 0.900000024302802,1.0400231171513867 L 0.9000001682732004,1.0400221464991708 L 0.9000004066830559,1.0400211946305136 L 0.9000007372367362,1.0400202707108934 L 0.9000011567513626,1.0400193836366698 L 0.9000016611874572,1.04001854194942 L 0.9000022456878389,1.0400177537536932 L 0.9000029046243936,1.0400170266389726 L 0.9000036316522659,1.0400163676065963 L 0.9000044197709538,1.0400157830023424 L 0.9000052613917162,1.0400152784553254 L 0.9000061484106439,1.0400148588237943 L 0.9000070722866919,1.0400145281483524 L 0.9000080241239206,1.040014289613051 L 0.9000089947571541,1.0400141455147307 L 0.900009974840231,1.040014097240904 L 0.900010954935998,1.0400141452563967 L 0.9000119256071796,1.0400142890988704 L 0.9000128775072489,1.040014527383276 L 0.900013801470425,1.040014857815189 L 0.9000146885999293,1.0400152772129032 L 0.900015530353652,1.0400157815380666 L 0.9000163186264037,1.040016365934566 L 0.90001704582796,1.0400170247752878 L 1.7615693134808488,1.9012287250006505 L 1.7615699730958294,1.90122945253462 L 1.7615705581697731,1.901230241258957 L 1.7615710630602406,1.9012310835672233 L 1.7615714828980804,1.9012319713362178 L 1.7615718136343868,1.9012328960043179 L 1.7615720520795461,1.9012338486540465 L 1.7615721959339994,1.9012348200980724 L 1.7615722438104178,1.9012358009678132 L 1.761572195247082,1.901236781803784 L 1.7615720507123358,1.9012377531468267 L 1.761571811600069,1.9012387056293323 L 1.7615714802162743,1.901239630065582 L 1.761571059756809,1.9012405175403353 L 1.7615705542765745,1.9012413594948068 L 1.7615699686504098,1.9012421478092076 L 1.7615693085260795,1.9012428748810528 L 1.7615685802698067,1.9012435336984788 L 1.7615677909048777,1.901244117907866 L 1.761566948043909,1.9012446218751136 L 1.761566059815431,1.9012450407399732 L 1.7615651347854984,1.9012453704629222 L 1.7615641818750774,1.9012456078641204 L 1.761563210274013,1.9012457506540765 L 1.7615622293524031,1.9012457974557273 L 0.9000099616995143,1.9000001098051693 L 0.900008982497946,1.9000000603251272 L 0.900008012848274,1.8999999151924307 L 0.9000070620715854,1.8999996758022173 L 0.9000061393075443,1.8999993444557064 L 0.9000052534265334,1.8999989243380795 L 0.9000044129443852,1.8999984194878596 L 0.90000362594052,1.8999978347580913 L 0.9000028999802797,1.8999971757696879 L 0.9000022420422042,1.8999964488573997 L 0.9000016584509466,1.8999956610089181 L 0.9000011548164762,1.8999948197977043 L 0.9000007359801507,1.899993933310187 L 0.9000004059681764,1.8999930100680287 L 0.9000001679529058,1.8999920589462085 L 0.9000000242223414,1.899991089087708 L 0.8999999761581421,1.899990109815622 L 0.8999999761581421,1.0400240972408172 z M 0.75,1.8999998498812096 L 0.7500000114952398,1.9000000838721918 L 0.7500002454862217,1.9000000953674316 L 0.8871361645566348,1.9000000953674316 L 0.8871371442445175,1.9000001434725542 L 0.887138114506799,1.9000002873251012 L 0.8871390660085623,1.9000005255410637 L 0.8871399895953854,1.9000008558285604 L 0.887140876381417,1.9000012750098867 L 0.887141717834867,1.9000017790520891 L 0.8871425058600909,1.9000023631057654 L 0.887143232875479,1.9000030215517205 L 0.8871438918863983,1.9000037480550298 L 0.8871444765524885,1.9000045356259874 L 0.887144981248663,1.9000053766873537 L 0.8871454011192275,1.9000062631472565 L 0.8871457321245969,1.9000071864770436 L 0.8871459710801606,1.9000081377933362 L 0.887146115686921,1.9000091079434973 L 0.8871461645536133,1.9000100875936883 L 0.8871461172100895,1.9000110673186708 L 0.8871459741118429,1.9000120376924863 L 0.8871457366356255,1.900012989379145 L 0.8871454070662014,1.9000139132224463 L 0.8871449885743663,1.9000148003340707 L 0.8871444851864405,1.900015642179096 L 0.8871439017455314,1.90001643065811 L 0.8871432438649383,1.9000171581851375 L 0.8871425178741466,1.9000178177606226 L 0.8871417307579315,1.9000184030387737 L 0.8871408900891572,1.9000189083886152 L 0.8871400039559187,1.900019328948164 L 0.8871390808837258,1.900019660671206 L 0.8871381297534784,1.9000199003662266 L 0.887137159716024,1.9000200457271132 L 0.8871361801041168,1.9000200953553454 L 0.0987641234995999,1.901245816871564 L 0.0987631422873346,1.9012457701490204 L 0.09876217039335308,1.9012456273813967 L 0.09876121719604841,1.9012453899463444 L 0.09876029189339812,1.901245060135018 L 0.09875940341420736,1.9012446411299664 L 0.09875856033194941,1.901244136974423 L 0.09875777078203508,1.9012435525332896 L 0.09875704238330925,1.9012428934461922 L 0.0987563821645319,1.9012421660730612 L 0.09875579649655351,1.90124137743276 L 0.09875529103083877,1.9012405351353558 L 0.0987548706449322,1.9012396473086863 L 0.09875453939539175,1.9012387225199279 L 0.09875430047864465,1.901237769692927 L 0.0987541562001432,1.901236798022088 L 0.09875410795211792,1.9012358168836503 L 0.09875410795211792,0.2384376620989997 L 0.09875415611352965,0.23843668183948655 L 0.09875430013386054,0.23843571102210978 L 0.0987545386258661,0.23843475899805652 L 0.09875486929232398,0.2384338349374912 L 0.09875528894816152,0.23843294774122614 L 0.09875579355113517,0.23843210595498626 L 0.09875637824076663,0.23843131768709425 L 0.09875703738516031,0.23843059053036905 L 0.09875776463525127,0.23842993148898953 L 0.0987585529859613,0.23842934691102835 L 0.09875939484367378,0.23842884242730547 L 0.09876028209937754,0.23842842289715058 L 0.0987612062067751,0.23842809236159654 L 0.0987621582646031,0.23842785400445515 L 0.09876312910237174,0.2384277101216497 L 0.09876410936869752,0.23842766209910002 L 0.0987650896213784,0.23842771039937286 L 0.09876606041834378,0.2384278545572263 L 0.0987670124086032,0.23842809318409125 L 0.0987679364223177,0.23842842398144634 L 0.09876882355912626,0.2384288437629581 L 0.09876966527387669,0.2384293484851724 L 0.09877045345893484,0.23842993328646242 L 0.0987711805222797,0.238430592533857 L 0.7499970725701618,0.8899332973996611 L 0.7499977312839026,0.8899340244692997 L 0.7499983155814032,0.8899348125876173 L 0.7499988198386011,0.8899356541687067 L 0.7499992392018492,0.8899365411120633 L 0.7499995696346333,0.8899374648805554 L 0.7499998079564256,0.8899384165825964 L 0.7499999518732975,0.8899393870577305 L 0.75,0.8899403669648037 L 0.75,1.8999998498812096 z" />
</svg>