<?xml version="1.0" standalone="no"?>
<!DOCTYPE svg PUBLIC "-//W3C//DTD SVG 1.1//EN" 
  "http://www.w3.org/Graphics/SVG/1.1/DTD/svg11.dtd">
<svg width="2.0000002123902485m" height="1.9999999739715835m" viewBox="0 0 2.0000002123902485 1.9999999739715835"
     xmlns="http://www.w3.org/2000/svg" version="1.1">
<desc>Outline to SVG export</desc>
	<path fill-rule="evenodd" fill="#000000" stroke="#555555" stroke-width="0" opacity="1" d="M 2.4548618378105806e-07,2.9802318397118095e-07 L 5.504584393734038e-08,3.073789475454976e-07 L 2.6028301253791664e-08,3.08804494049664e-07 L 1.7358498868777372e-07,4.716081665541565e-07 L 0.9000000953674316,0.9000001549720764 L 2.0000000648335208,1.9999998264149887 L 2.0000002086570596,1.9999999567690152 L 2.0000002276373,1.999999973971698 L 2.00000023841855,1.9999997545137795 L 2.0000000000000293,2.454861780562761e-07 L 1.9999999885047655,1.1495234841871515e-08 L 1.9999997545171453,1.144643476810771e-13 L 1.1000000238420207,1.1920928955075969e-07 L 2.4548618378105806e-07,2.9802318397118095e-07 z M 1.2500000899703994,0.9000100662579242 L 1.2500001381230208,0.9000090860865317 L 1.2500002821173697,0.9000081153547145 L 1.2500005205667013,0.9000071634111502 L 1.2500008511746188,0.9000062394235754 L 1.2500012707571873,0.9000053522904953 L 1.250001775273597,0.900004510555486 L 1.2500023598650798,0.9000037223249158 L 1.2500030189016997,0.9000029951898755 L 1.2500037460365747,0.9000023361530728 L 1.250004534266998,0.9000017515613922 L 1.2500053760018808,0.900001247044771 L 1.2500062631348554,0.90000082746198 L 1.2500071871223473,0.9000004968538304 L 1.2500081390658517,0.9000002584042596 L 1.250009109797633,0.9000001144096671 L 1.2500100899690132,0.9000000662567996 L 1.899990109817001,0.8999999761595262 L 1.8999910890890077,0.9000000242235813 L 1.8999920589474446,0.9000001679539861 L 1.8999930100692195,0.9000004059690835 L 1.8999939333113522,0.9000007359808728 L 1.8999948197988659,0.9000011548170043 L 1.8999956610100994,0.9000016584512738 L 1.8999964488586254,0.9000022420423266 L 1.8999971757709835,0.9000028999801966 L 1.8999978347594828,0.9000036259402332 L 1.8999984194893733,0.9000044129439002 L 1.8999989243397415,0.9000052534258588 L 1.8999993444575423,0.9000061393066918 L 1.8999996758042514,0.9000070620705702 L 1.8999999151946865,0.9000080128471142 L 1.900000060327626,0.9000089824966626 L 1.9000001098079304,0.9000099616981313 L 1.9012460358668684,1.7615622288394173 L 1.9012459890648863,1.7615632097672467 L 1.9012458462733848,1.7615641813743788 L 1.9012456088694591,1.7615651342905387 L 1.9012452791426562,1.7615660593257096 L 1.9012448602728935,1.7615669475587612 L 1.9012443562997925,1.7615677904234865 L 1.901243772083719,1.7615685797912155 L 1.9012431132589105,1.7615693080492079 L 1.901242386179138,1.7615699681740722 L 1.9012415978564308,1.7615705537994992 L 1.9012407558934499,1.7615710592776601 L 1.9012398684101695,1.7615714797336732 L 1.9012389439655657,1.7615718111126197 L 1.9012379914750728,1.7615720502186485 L 1.901237020124603,1.7615721947457976 L 1.9012360392819558,1.7615722433002328 L 1.9012350584064739,1.7615721954136903 L 1.901234086957817,1.7615720515479927 L 1.9012331343047313,1.7615718130905949 L 1.9012322096346972,1.7615714823412036 L 1.9012313218653232,1.7615710624895984 L 1.9012304795583443,1.7615705575848695 L 1.901229690837052,1.7615699724963676 L 1.901228963307952,1.7615693128667438 L 1.2500030410235363,1.1100667231061376 L 1.250002382309715,1.1100659960365735 L 1.2500017980121272,1.110065207918322 L 1.2500012937548357,1.11006436633729 L 1.2500008743914888,1.1100634793939814 L 1.2500005439586015,1.1100625556255275 L 1.2500003056367026,1.110061603923514 L 1.250000161719722,1.1100606334483973 L 1.2500001135929093,1.1100596535413307 L 1.2500000899703994,0.9000100662579242 z M 1.2499999885047575,0.10000003533710619 L 1.2499997545137342,0.10000002384195546 L 1.1128646603165895,0.10000007833455463 L 1.1128636806286567,0.10000003022981836 L 1.1128627103662878,0.09999988637764784 L 1.1128617588644016,0.09999964816204841 L 1.1128608352774216,0.09999931787489832 L 1.1128599484912012,0.09999889869389857 L 1.1128591070375329,0.09999839465200006 L 1.1128583190120636,0.09999781059860254 L 1.112857591996406,0.09999715215289845 L 1.1128569329851965,0.09999642564981041 L 1.112856348318798,0.09999563807904292 L 1.1128558436223008,0.09999479701783406 L 1.1128554237514026,0.09999391055805489 L 1.1128550927456917,0.09999298722835717 L 1.1128548537897824,0.09999203591211912 L 1.1128547091826757,0.09999106576197818 L 1.11285466031564,0.09999008611177318 L 1.1128547076588264,0.09998910638674338 L 1.1128548507567446,0.09998813601284787 L 1.1128550882326464,0.09998718432607828 L 1.11285541780177,0.09998626048263692 L 1.1128558362933225,0.09998537337084475 L 1.112856339680986,0.09998453152562659 L 1.1128569231216556,0.0999837430463964 L 1.1128575810020338,0.0999830155191327 L 1.1128583069926368,0.09998235594339354 L 1.1128590941086909,0.09998177066497367 L 1.1128599347773327,0.09998126531485148 L 1.112860820910468,0.09998084475501316 L 1.112861743982588,0.09998051303167552 L 1.1128626951127925,0.09998027333635708 L 1.1128636651502335,0.09998012797517253 L 1.112864644762157,0.09998007834664548 L 1.901235801308958,0.09875412355101074 L 1.9012367834885946,0.09875417036716248 L 1.9012377563221974,0.09875431341740572 L 1.9012387104037436,0.09875455131863256 L 1.9012396365085185,0.0987548817706508 L 1.901240525682306,0.09875530157842363 L 1.9012413693279642,0.09875580668296158 L 1.9012421592885478,0.0987563922005675 L 1.9012428879261762,0.09875705247005559 L 1.9012435481958812,0.09875778110748755 L 1.9012441337137223,0.0987585710678969 L 1.9012446388185114,0.09875941471340458 L 1.9012450586265488,0.09876030388706715 L 1.9012453890788428,0.09876122999174375 L 1.9012456269803537,0.09876218407321914 L 1.9012457700308865,0.09876315690677924 L 1.9012458168473305,0.09876413908640187 L 1.9000200953553454,0.8871361801041168 L 1.9000200457271132,0.887137159716024 L 1.9000199003662266,0.8871381297534784 L 1.900019660671206,0.8871390808837258 L 1.900019328948164,0.8871400039559187 L 1.9000189083886152,0.8871408900891572 L 1.9000184030387737,0.8871417307579315 L 1.9000178177606226,0.8871425178741466 L 1.9000171581851375,0.8871432438649383 L 1.90001643065811,0.8871439017455314 L 1.900015642179096,0.8871444851864405 L 1.9000148003340707,0.8871449885743663 L 1.9000139132224463,0.8871454070662014 L 1.900012989379145,0.8871457366356255 L 1.9000120376924863,0.8871459741118429 L 1.9000110673186708,0.8871461172100895 L 1.9000100875936883,0.8871461645536133 L 1.9000091079434973,0.887146115686921 L 1.9000081377933362,0.8871459710801606 L 1.9000071864770436,0.8871457321245969 L 1.9000062631472565,0.8871454011192275 L 1.9000053766873537,0.887144981248663 L 1.9000045356259874,0.8871444765524885 L 1.9000037480550298,0.8871438918863983 L 1.9000030215517205,0.887143232875479 L 1.9000023631057654,0.8871425058600909 L 1.9000017790520891,0.887141717834867 L 1.9000012750098867,0.887140876381417 L 1.9000008558285604,0.8871399895953854 L 1.9000005255410637,0.8871390660085623 L 1.9000002873251012,0.887138114506799 L 1.9000001434725542,0.8871371442445175 L 1.9000000953674316,0.8871361645566348 L 1.9000000953674316,0.7500002454862377 L 1.9000000838721904,0.7500000114952428 L 1.8999998498811919,0.750000000000029 L 1.2500100731000936,0.7500000767176728 L 1.2500090929286811,0.7500000285650549 L 1.250008122196844,0.7499998845707058 L 1.2500071702532602,0.7499996461213697 L 1.2500062462656671,0.7499993155134443 L 1.2500053591325706,0.7499988959308646 L 1.2500045173975471,0.74999839141444 L 1.2500037291669652,0.7499978068229398 L 1.2500030020319164,0.7499971477862997 L 1.2500023429951086,0.7499964206514027 L 1.2500017584034266,0.7499956324209555 L 1.2500012538868082,0.7499947906860482 L 1.2500008343040239,0.7499939035530484 L 1.2500005036958854,0.7499929795655316 L 1.25000026524633,0.7499920276220029 L 1.250000121251757,0.7499910568901988 L 1.2500000730989131,0.7499900767187975 L 1.2500000000000275,0.10000026932812481 L 1.2499999885047575,0.10000003533710619 z M 1.0999901347342187,0.9000000870518833 L 1.0999911149056287,0.9000001352044806 L 1.0999920856374654,0.9000002791988088 L 1.099993037581051,0.9000005176481235 L 1.0999939615686478,0.9000008482560277 L 1.0999948487017506,0.9000012678385864 L 1.0999956904367825,0.9000017723549901 L 1.099996478667375,0.9000023569464702 L 1.0999972058024365,0.9000030159830912 L 1.0999978648392592,0.90000374311797 L 1.0999984494309578,0.9000045313484005 L 1.099998953947595,0.9000053730832925 L 1.0999993735303997,0.9000062602162789 L 1.0999997041385599,0.9000071842037842 L 1.0999999425881386,0.9000081361473036 L 1.1000000865827357,0.9000091068791005 L 1.100000134735605,0.9000100870504971 L 1.100000143047802,0.9599759623661901 L 1.100000094903279,0.9599769424556129 L 1.0999999509330194,0.9599779131078351 L 1.0999997125233028,0.9599788649765124 L 1.09999938196976,0.9599797888961665 L 1.0999989624552684,0.9599806759704381 L 1.0999984580193045,0.9599815176577495 L 1.0999978735190479,0.9599823058535513 L 1.0999972145826113,0.9599830329683596 L 1.099996487554849,0.9599836920008359 L 1.0999956994362614,0.9599842766052012 L 1.099994857815589,0.9599847811523402 L 1.0999939707967392,0.9599852007840028 L 1.0999930469207564,0.9599855314595845 L 1.0999920950835793,0.9599857699950326 L 1.0999911244503828,0.9599859140935056 L 1.099990144367328,0.9599859623674891 L 1.0999891642715676,0.9599859143521563 L 1.0999881936003766,0.9599857705098436 L 1.0999872417002816,0.9599855322255986 L 1.0999863177370641,0.9599852017938441 L 1.0999854306075023,0.9599847823962849 L 1.0999845888537065,0.9599842780712716 L 1.0999838005808662,0.9599836936749153 L 1.099983073379207,0.9599830348343285 L 1.0699424362963899,0.929954283058031 L 1.0400171439869341,0.9000171650348828 L 1.0400164851461118,0.9000164378334179 L 1.0400159007495031,0.900015649560747 L 1.0400153964242234,0.9000148078070942 L 1.0400149770263865,0.9000139206776481 L 1.0400146465943454,0.9000129967145178 L 1.040014408309808,0.9000120448144816 L 1.0400142644672,0.90001107414332 L 1.0400142164515718,0.9000100940475598 L 1.0400142647252626,0.9000091139644762 L 1.0400144088234486,0.9000081433312229 L 1.040014647358618,0.9000071914939612 L 1.0400149780339318,0.9000062676178675 L 1.0400153976653401,0.9000053805988818 L 1.0400159022122406,0.9000045389780497 L 1.0400164868163853,0.9000037508592807 L 1.0400171458486607,0.9000030238313173 L 1.0400178729632898,0.9000023648946619 L 1.0400186611589355,0.9000017803941709 L 1.0400195028461154,0.9000012759579599 L 1.040020389920281,0.9000008564432106 L 1.040021313839855,0.9000005258894022 L 1.0400222657084792,0.9000002874794147 L 1.0400232363606752,0.9000001435088819 L 1.0400242164500988,0.9000000953640861 L 1.0999901347342187,0.9000000870518833 z M 0.8900001309324728,0.7500001299905618 L 0.8900002784891374,0.7500002927942522 L 0.9734913255913688,0.8334913398964836 L 0.9734919845859358,0.8334920669800885 L 0.9734925691458454,0.8334928551514657 L 0.9734930736422276,0.8334936968211207 L 0.9734934932171636,0.833494583884411 L 0.9734938238304638,0.8334955077995875 L 0.9734940622985723,0.8334964596700457 L 0.9734942063252211,0.8334974303299925 L 0.9734942545235428,0.8334984104327062 L 0.9734942064294237,0.8334993905405388 L 0.9734940625059741,0.8335003612157927 L 0.9734938241390679,0.8335013131115989 L 0.9734934936239983,0.8335022370619204 L 0.9734930741433753,0.8335031241698139 L 0.9734925697364805,0.8335039658931012 L 0.9734919852603708,0.8335047541266231 L 0.9734913263431095,0.8335054812802867 L 0.9734905993295716,0.8335061403521519 L 0.973489811220348,0.8335067249958549 L 0.9734889696043347,0.8335072295817187 L 0.9734880825856578,0.833507649250963 L 0.9734871587056365,0.83350797996249 L 0.9734862068605371,0.8335082185317979 L 0.9734852362159084,0.8335083626616445 L 0.9734842561183246,0.8335084109641683 L 0.9734832760053842,0.8335083629742526 L 0.9734823053148342,0.8335082191540039 L 0.9734813533936907,0.8335079808883025 L 0.9734804294082349,0.833507650471467 L 0.9734795422557481,0.8335072310851618 L 0.9734787004788381,0.83350672676776 L 0.9734779121831805,0.833506142375457 L 0.9734771849594662,0.8335054835355088 L 0.23843062753266406,0.09877145391970625 L 0.23842996790285534,0.0987707263907832 L 0.23842938281415146,0.09876993766964931 L 0.23842887790920536,0.09876909536280866 L 0.23842845805736987,0.0987682075935511 L 0.23842812730773735,0.0987672829236105 L 0.23842788885008973,0.0987663302705946 L 0.23842774498413594,0.09876535882198259 L 0.23842769709733339,0.09876437794652028 L 0.2384277456515071,0.09876339710386693 L 0.23842789017839586,0.09876242575336538 L 0.23842812928416815,0.09876147326281524 L 0.23842846066286444,0.09876054881812893 L 0.23842888111863605,0.09875966133474172 L 0.2384293865965662,0.09875881937163057 L 0.23842997222177617,0.09875803104877037 L 0.23843063234643885,0.0987573039688242 L 0.23843136060424724,0.09875664514382244 L 0.23843214997181153,0.09875606092753811 L 0.2384329928363934,0.09875555695421039 L 0.2384338810693241,0.09875513808420754 L 0.238434806104398,0.09875480835715301 L 0.23843575902048603,0.09875457095296687 L 0.23843673062757187,0.09875442816119842 L 0.23843771155538143,0.09875438135894549 L 1.0999900383018688,0.10000006900876808 L 1.099991017503351,0.1000001184888015 L 1.0999919871529393,0.1000002636214725 L 1.0999929379295492,0.10000050301164426 L 1.0999938606935191,0.10000083435809774 L 1.0999947465744684,0.10000125447565315 L 1.0999955870565665,0.1000017593257884 L 1.0999963740603953,0.10000234405546087 L 1.0999971000206143,0.1000030030437588 L 1.0999977579586855,0.10000372995593436 L 1.0999983415499563,0.10000451780429845 L 1.099998845184459,0.10000535901539225 L 1.0999992640208358,0.10000624550278962 L 1.099999594032881,0.10000716874483072 L 1.0999998320482418,0.1000081198665392 L 1.0999999757789156,0.10000908972493601 L 1.1000000238432421,0.10001006899692932 L 1.1000001139405162,0.7499900944229926 L 1.1000000657879174,0.7499910745944154 L 1.0999999217935856,0.7499920453262646 L 1.0999996833442647,0.7499929972698617 L 1.099999352736352,0.7499939212574692 L 1.0999989331537827,0.7499948083905812 L 1.0999984286373663,0.7499956501256205 L 1.099997844045872,0.7499964383562184 L 1.0999971850092354,0.7499971654912831 L 1.0999964578743398,0.7499978245281064 L 1.099995669643892,0.7499984091198031 L 1.0999948279089822,0.7499989136364354 L 1.0999939407759778,0.7499993332192324 L 1.099993016788455,0.7499996638273821 L 1.0999920648449193,0.7499999022769475 L 1.099991094113107,0.7500000462715285 L 1.0999901139416965,0.7500000944243786 L 0.8900003503903832,0.7500001192092606 L 0.8900001309324728,0.7500001299905618 z" />
</svg>