<?xml version="1.0" standalone="no"?>
<!DOCTYPE svg PUBLIC "-//W3C//DTD SVG 1.1//EN" 
  "http://www.w3.org/Graphics/SVG/1.1/DTD/svg11.dtd">
<svg width="1.9999999739716987m" height="1.9999999739716967m" viewBox="0 0 1.9999999739716987 1.9999999739716967"
     xmlns="http://www.w3.org/2000/svg" version="1.1">
<desc>Outline to SVG export</desc>
	<path fill-rule="evenodd" fill="#000000" stroke="#555555" stroke-width="0" opacity="1" d="M 1.1495242966468261e-08,1.9999999885047632 L 2.4548618829915907e-07,2.0 L 1.99999975451327,2.0 L 1.9999999739716987,1.9999999892187204 L 1.9999998264157237,1.9999998264157584 L 1.73584998894612e-07,1.7358499889461587e-07 L 1.0781275894144557e-08,2.602830325182584e-08 L 1.8573261849201985e-15,2.4548614471046535e-07 L 2.2797405053724553e-22,1.9999997545137473 L 1.1495242966468261e-08,1.9999999885047632 z M 1.109999988276801,1.2499999892187226 L 1.1099998407200946,1.249999826415049 L 1.0266059253001967,1.1666059441329077 L 1.0266052663054237,1.1666052170493588 L 1.0266046817453114,1.1666044288780115 L 1.0266041772487324,1.1666035872083613 L 1.0266037576736091,1.1666027001450527 L 1.026603427060133,1.1666017762298362 L 1.0266031885918627,1.1666008243593187 L 1.0266030445650678,1.1665998536992959 L 1.026602996366618,1.1665988735964914 L 1.0266030444606278,1.1665978934885564 L 1.0266031883839881,1.1665969228131914 L 1.0266034267508257,1.1665959709172682 L 1.0266037572658473,1.1665950469668267 L 1.0266041767464429,1.1665941598588132 L 1.0266046811533305,1.1665933181354087 L 1.026605265629452,1.166592529901775 L 1.0266059245467432,1.1665918027480078 L 1.0266066515603274,1.1665911436760492 L 1.0266074396696117,1.1665905590322658 L 1.0266082812856983,1.166590054446336 L 1.0266091683044587,1.1665896347770417 L 1.0266100921845713,1.166589304065482 L 1.0266110440297669,1.16658906549616 L 1.0266120146744941,1.166588921366318 L 1.026612994772176,1.166588873063818 L 1.0266139748852112,1.1665889210537765 L 1.0266149455758502,1.1665890648740866 L 1.0266158974970736,1.1665893031398669 L 1.0266168214825984,1.1665896335567978 L 1.02661770863514,1.1665900529432132 L 1.026618550412089,1.1665905572607382 L 1.0266193387077678,1.1665911416531756 L 1.0266200659314835,1.1665918004932663 L 1.7615693128673018,1.90122872489502 L 1.7615699724969998,1.9012294524239808 L 1.7615705575855936,1.9012302411451385 L 1.7615710624904317,1.9012310834519899 L 1.7615714823421627,1.9012319712212455 L 1.7615718130916957,1.9012328958911724 L 1.7615720515492501,1.9012338485441638 L 1.761572195415118,1.9012348199927416 L 1.761572243301843,1.9012358008681614 L 1.761572194747601,1.9012367817107647 L 1.7615720502206536,1.9012377530612108 L 1.7615718111148329,1.9012387055517008 L 1.7615714797360984,1.9012396299963241 L 1.7615710592802991,1.901240517479647 L 1.7615705538023516,1.9012413594426936 L 1.7615699681771346,1.9012421477654906 L 1.7615693080524744,1.9012428748453765 L 1.7615685797946772,1.9012435336703215 L 1.7615677904271325,1.9012441178865545 L 1.7615669475625777,1.9012446218598367 L 1.76156605932968,1.9012450407298012 L 1.7615651342946446,1.901245370456825 L 1.7615641813785987,1.9012456078609887 L 1.7615632097715577,1.9012457506527436 L 1.7615622288437944,1.901245797454992 L 0.9000099616995143,1.9000001098051693 L 0.900008982497946,1.9000000603251272 L 0.900008012848274,1.8999999151924307 L 0.9000070620715854,1.8999996758022173 L 0.9000061393075443,1.8999993444557064 L 0.9000052534265334,1.8999989243380795 L 0.9000044129443852,1.8999984194878596 L 0.90000362594052,1.8999978347580913 L 0.9000028999802797,1.8999971757696879 L 0.9000022420422042,1.8999964488573997 L 0.9000016584509466,1.8999956610089181 L 0.9000011548164762,1.8999948197977043 L 0.9000007359801507,1.899993933310187 L 0.9000004059681764,1.8999930100680287 L 0.9000001679529058,1.8999920589462085 L 0.9000000242223414,1.899991089087708 L 0.8999999761581421,1.899990109815622 L 0.8999999761581421,1.25001 L 0.9000000243108753,1.2500090198285967 L 0.900000168305338,1.25000804909678 L 0.9000004067547848,1.2500070971532276 L 0.9000007373628169,1.2500061731656764 L 0.9000011569454985,1.2500052860326318 L 0.900001661462019,1.2500044442976699 L 0.9000022460536085,1.2500036560671584 L 0.9000029050903302,1.2500029289321881 L 0.9000036322253004,1.2500022698954665 L 0.9000044204558119,1.2500016853038771 L 0.9000052621907738,1.2500011807873566 L 0.9000061493238184,1.2500007612046748 L 0.9000070733113695,1.2500004305966428 L 0.9000080252549219,1.250000192147196 L 0.9000089959867388,1.2500000481527334 L 0.900009976158142,1.25 L 1.1099997688188736,1.25 L 1.109999988276801,1.2499999892187226 z M 0.929933158917819,1.069921312169773 L 0.9599829156214924,1.0999829541722845 L 0.9599835744621799,1.0999836813738524 L 0.9599841588586453,1.0999844696466117 L 0.9599846631837751,1.0999853114003375 L 0.9599850825814569,1.0999861985298411 L 0.9599854130133392,1.0999871224930131 L 0.959985651297716,1.0999880743930748 L 0.9599857951401631,1.0999890450642458 L 0.9599858431556316,1.0999900251599994 L 0.9599857948817838,1.0999910052430608 L 0.9599856507834452,1.0999919758762773 L 0.9599854122481289,1.0999929277134872 L 0.9599850815726753,1.0999938515895158 L 0.9599846619411355,1.0999947386084235 L 0.9599841573941131,1.0999955802291659 L 0.959983572789857,1.0999963683478342 L 0.9599829137574816,1.0999970953756877 L 0.9599821866427646,1.099997754312225 L 0.9599813984470439,1.099998338812591 L 0.9599805567598024,1.0999988432486711 L 0.959979669685589,1.0999992627632857 L 0.9599787457659809,1.0999995933169566 L 0.9599777938973366,1.0999998317268052 L 0.9599768232451346,1.0999999756971992 L 0.9599758431557185,1.100000023841858 L 0.900009976158142,1.100000023841858 L 0.9000089959867388,1.0999999756891246 L 0.9000080252549219,1.099999831694662 L 0.9000070733113695,1.0999995932452151 L 0.9000061493238184,1.099999262637183 L 0.9000052621907738,1.0999988430545014 L 0.9000044204558119,1.0999983385379808 L 0.9000036322253004,1.0999977539463914 L 0.9000029050903302,1.0999970949096698 L 0.9000022460536085,1.0999963677746996 L 0.900001661462019,1.099995579544188 L 0.9000011569454985,1.099994737809226 L 0.9000007373628169,1.0999938506761815 L 0.9000004067547848,1.0999929266886304 L 0.900000168305338,1.099991974745078 L 0.9000000243108753,1.0999910040132612 L 0.8999999761581421,1.0999900238418578 L 0.8999999761581421,1.0400240972396275 L 0.900000024302802,1.040023117150197 L 0.9000001682732004,1.040022146497981 L 0.9000004066830559,1.0400211946293239 L 0.9000007372367362,1.0400202707097037 L 0.9000011567513626,1.04001938363548 L 0.9000016611874572,1.0400185419482302 L 0.9000022456878389,1.0400177537525035 L 0.9000029046243937,1.0400170266377828 L 0.9000036316522659,1.0400163676054066 L 0.9000044197709539,1.0400157830011527 L 0.9000052613917163,1.0400152784541357 L 0.900006148410644,1.0400148588226046 L 0.900007072286692,1.0400145281471627 L 0.9000080241239208,1.0400142896118614 L 0.9000089947571542,1.040014145513541 L 0.9000099748402312,1.0400140972397143 L 0.9000109549359981,1.040014145255207 L 0.9000119256071798,1.0400142890976807 L 0.9000128775072491,1.0400145273820862 L 0.9000138014704252,1.0400148578139994 L 0.9000146885999294,1.0400152772117137 L 0.9000155303536521,1.040015781536877 L 0.900016318626404,1.0400163659333765 L 0.9000170458279602,1.0400170247740983 L 0.929933158917819,1.069921312169773 z M 0.09997996424930167,1.1128625880700562 L 0.09998001387767524,1.1128616084582026 L 0.09998015923869268,1.1128606384208148 L 0.09998039893383219,1.1128596872906455 L 0.09998073065698118,1.1128587642185401 L 0.0999811512166234,1.1128578780853975 L 0.09998165656654465,1.1128570374167255 L 0.09998224184476136,1.112856250300617 L 0.09998290142029803,1.112855524309935 L 0.09998362894736287,1.1128548664294526 L 0.09998441742640081,1.1128542829886536 L 0.09998525927143644,1.112853779600836 L 0.09998614638305879,1.1128533611091054 L 0.09998707022634604,1.1128530315397807 L 0.09998802191298009,1.1128527940636563 L 0.09998899228676143,1.1128526509654957 L 0.09998997201170098,1.1128526036220494 L 0.09999095166184202,1.1128526524888098 L 0.0999919218119474,1.112852797095629 L 0.09999287312818007,1.112853036051241 L 0.09999379645790413,1.1128533670566485 L 0.09999468291774252,1.1128537869272406 L 0.09999552397904422,1.1128542916234323 L 0.0999963115499386,1.1128548762895296 L 0.0999970380531875,1.1128555353004463 L 0.09999769649908605,1.112856262315823 L 0.0999982805527107,1.1128570503410273 L 0.09999878459486776,1.1128578917944503 L 0.09999920377615575,1.1128587785804487 L 0.09999953406362158,1.1128597021672333 L 0.09999977227956179,1.1128606536689543 L 0.09999991613209519,1.1128616239311908 L 0.09999996423721313,1.1128626036190272 L 0.09999996423721313,1.2499997545137789 L 0.09999997573245291,1.2499999885047601 L 0.10000020972343476,1.25 L 0.74999,1.25 L 0.7499909801714033,1.2500000481527334 L 0.7499919509032202,1.250000192147196 L 0.7499929028467726,1.2500004305966428 L 0.7499938268343237,1.2500007612046748 L 0.7499947139673683,1.2500011807873566 L 0.7499955557023302,1.2500016853038771 L 0.7499963439328416,1.2500022698954665 L 0.7499970710678119,1.2500029289321881 L 0.7499977301045336,1.2500036560671584 L 0.7499983146961231,1.2500044442976699 L 0.7499988192126436,1.2500052860326318 L 0.7499992387953252,1.2500061731656764 L 0.7499995694033573,1.2500070971532276 L 0.7499998078528041,1.25000804909678 L 0.7499999518472668,1.2500090198285967 L 0.75,1.25001 L 0.75,1.8999998498812096 L 0.7500000114952398,1.9000000838721918 L 0.7500002454862217,1.9000000953674316 L 0.8871361645566348,1.9000000953674316 L 0.8871371442445175,1.9000001434725542 L 0.887138114506799,1.9000002873251012 L 0.8871390660085623,1.9000005255410637 L 0.8871399895953854,1.9000008558285604 L 0.887140876381417,1.9000012750098867 L 0.887141717834867,1.9000017790520891 L 0.8871425058600909,1.9000023631057654 L 0.887143232875479,1.9000030215517205 L 0.8871438918863983,1.9000037480550298 L 0.8871444765524885,1.9000045356259874 L 0.887144981248663,1.9000053766873537 L 0.8871454011192275,1.9000062631472565 L 0.8871457321245969,1.9000071864770436 L 0.8871459710801606,1.9000081377933362 L 0.887146115686921,1.9000091079434973 L 0.8871461645536133,1.9000100875936883 L 0.8871461172100895,1.9000110673186708 L 0.8871459741118429,1.9000120376924863 L 0.8871457366356255,1.900012989379145 L 0.8871454070662014,1.9000139132224463 L 0.8871449885743663,1.9000148003340707 L 0.8871444851864405,1.900015642179096 L 0.8871439017455314,1.90001643065811 L 0.8871432438649383,1.9000171581851375 L 0.8871425178741466,1.9000178177606226 L 0.8871417307579315,1.9000184030387737 L 0.8871408900891572,1.9000189083886152 L 0.8871400039559187,1.900019328948164 L 0.8871390808837258,1.900019660671206 L 0.8871381297534784,1.9000199003662266 L 0.887137159716024,1.9000200457271132 L 0.8871361801041168,1.9000200953553454 L 0.09876413908490944,1.9012458168473327 L 0.09876315690537935,1.9012457700308976 L 0.09876218407190915,1.901245626980392 L 0.09876122999051833,1.9012453890789258 L 0.09876030388591844,1.9012450586266931 L 0.09875941471232229,1.9012446388187325 L 0.09875857106686846,1.9012441337140342 L 0.09875778110649833,1.9012435481962962 L 0.09875705246908914,1.9012428879267045 L 0.09875639219960583,1.9012421592891968 L 0.09875580668198541,1.9012413693287395 L 0.09875530157741282,1.9012405256832106 L 0.09875488176958455,1.9012396365095519 L 0.09875455131748989,1.9012387104049029 L 0.09875431341616575,1.9012377563234766 L 0.09875417036580487,1.901236783489985 L 0.09875412354951599,1.901235801310448 L 0.09997996424930167,1.1128625880700562 z M 0.09875414294371401,0.2384377115550207 L 0.09875418974583082,0.23843673062720896 L 0.09875433253746357,0.23843575902010755 L 0.0987545699415158,0.2384348061039906 L 0.09875489966843948,0.23843388106887464 L 0.09875531853831586,0.23843299283588912 L 0.09875582251152273,0.23843214997124001 L 0.09875640672769306,0.23843136060359674 L 0.0987570655525888,0.23843063234569825 L 0.09875779263243802,0.2384299722209352 L 0.0987585809552113,0.23842938659561552 L 0.0987594229182465,0.23842888111756724 L 0.09876031040156953,0.23842846066167028 L 0.09876123484620415,0.23842812928284254 L 0.0987621873367156,0.23842789017693397 L 0.09876315868719197,0.23842774564990535 L 0.09876413952983397,0.23842769709558956 L 0.09876512040529893,0.23842774498224917 L 0.09876609185392766,0.23842788884806057 L 0.09876704450697427,0.2384281273055677 L 0.09876796917695933,0.23842845805506305 L 0.09876885694627481,0.23842887790676595 L 0.09876969925318632,0.23842938281158546 L 0.09877048797440338,0.23842996790016996 L 0.0987712155034212,0.2384306275298677 L 0.7499970725701618,0.8899332973996612 L 0.7499977312839026,0.8899340244692998 L 0.7499983155814032,0.8899348125876174 L 0.7499988198386011,0.8899356541687068 L 0.7499992392018492,0.8899365411120634 L 0.7499995696346333,0.8899374648805555 L 0.7499998079564256,0.8899384165825965 L 0.7499999518732975,0.8899393870577306 L 0.75,0.8899403669648038 L 0.75,1.0999900238418578 L 0.7499999518472668,1.0999910040132612 L 0.7499998078528041,1.099991974745078 L 0.7499995694033573,1.0999929266886304 L 0.7499992387953252,1.0999938506761815 L 0.7499988192126436,1.099994737809226 L 0.7499983146961231,1.099995579544188 L 0.7499977301045336,1.0999963677746996 L 0.7499970710678119,1.0999970949096698 L 0.7499963439328416,1.0999977539463914 L 0.7499955557023302,1.0999983385379808 L 0.7499947139673683,1.0999988430545014 L 0.7499938268343237,1.099999262637183 L 0.7499929028467726,1.0999995932452151 L 0.7499919509032202,1.099999831694662 L 0.7499909801714033,1.0999999756891246 L 0.74999,1.100000023841858 L 0.10000994978764233,1.100000023841858 L 0.10000897051564218,1.099999975777667 L 0.1000080006572253,1.0999998320471278 L 0.10000704953548369,1.0999995940318985 L 0.10000612629339671,1.0999992640199814 L 0.10000523980594114,1.099998845183727 L 0.10000439859477746,1.099998341549341 L 0.1000036107463324,1.0999977579581792 L 0.1000028838340656,1.0999971000202087 L 0.10000222484566702,1.0999963740600807 L 0.1000016401158855,1.0999955870563327 L 0.10000113526563381,1.0999947465743043 L 0.1000007151479557,1.0999938606934132 L 0.10000038380137442,1.099992937929489 L 0.10000014441107105,1.099991987152912 L 0.09999999927826583,1.0999910175033436 L 0.09999994979809693,1.0999900383018681 L 0.09875414294371401,0.2384377115550207 z" />
</svg>