<?xml version="1.0" standalone="no"?>
<!DOCTYPE svg PUBLIC "-//W3C//DTD SVG 1.1//EN" 
  "http://www.w3.org/Graphics/SVG/1.1/DTD/svg11.dtd">
<svg width="2.0000002123902485m" height="1.9999999739716008m" viewBox="0 0 2.0000002123902485 1.9999999739716008"
     xmlns="http://www.w3.org/2000/svg" version="1.1">
<desc>Outline to SVG export</desc>
	<path fill-rule="evenodd" fill="#000000" stroke="#555555" stroke-width="0" opacity="1" d="M 2.454861939476285e-07,2.9802317998060195e-07 L 5.504467138458134e-08,3.0737900514956625e-07 L 2.6028301332760493e-08,3.0880449405352545e-07 L 1.7358498933387846e-07,4.716081666517165e-07 L 2.0000000648335865,1.999999826415054 L 2.0000002276372997,1.999999973971699 L 2.00000023841855,1.9999997545137818 L 2.0000000000000293,2.4548617276839964e-07 L 1.9999999885047657,1.1495234082045201e-08 L 1.9999999702574,1.059879570399653e-08 L 1.9999997545168144,9.820770060717736e-14 L 0.9999999403962496,1.1920928955067463e-07 L 0.9999999403956533,1.1920930419246403e-07 L 2.454861939476285e-07,2.9802317998060195e-07 z M 1.1198369080572923,0.9801774889625139 L 1.1198362490204832,0.9801767618276587 L 1.1198356644287935,0.9801759735972547 L 1.1198351599121603,0.9801751318623914 L 1.1198347403293547,0.9801742447294348 L 1.1198344097211879,0.9801733207419602 L 1.1198341712715973,0.9801723687984712 L 1.1198340272769824,0.9801713980667038 L 1.1198339791240903,0.980170417895335 L 1.1198340272766596,0.9801694377239503 L 1.1198341712709547,0.9801684669921353 L 1.119834409720232,0.9801675150485679 L 1.1198347403280944,0.9801665910609844 L 1.1198351599106078,0.9801657039278897 L 1.1198356644269638,0.98016486219286 L 1.1198362490183937,0.9801640739622636 L 1.1198369080549635,0.9801633468271914 L 1.3999930064385278,0.7000071442396052 L 1.3999937335733867,0.7000064852027389 L 1.3999945218038023,0.7000059006109959 L 1.399995363538685,0.7000053960943144 L 1.3999962506716668,0.7000049765114662 L 1.3999971746591724,0.7000046459032633 L 1.3999981266026966,0.7000044074536437 L 1.3999990973345025,0.7000042634590075 L 1.400000077505912,0.700004215306102 L 1.4000010576773383,0.7000042634586658 L 1.4000020284091943,0.7000044074529637 L 1.4000029803528016,0.7000046459022515 L 1.4000039043404224,0.7000049765101324 L 1.4000047914735505,0.7000053960926715 L 1.4000056332086088,0.7000059006090595 L 1.4000064214392283,0.7000064852005278 L 1.400007148574317,0.7000071442371406 L 1.9000000409916895,1.1999998740987405 L 1.9000002037954264,1.2000000216553957 L 1.9000002145765749,1.1999998021974483 L 1.9000001026566042,1.0122292052750415 L 1.9000001507586728,1.0122282256122213 L 1.900000294603279,1.01222725537422 L 1.9000005328065614,1.0122263038952415 L 1.9000008630768779,1.0122253803290187 L 1.900001282236853,1.0122244935607483 L 1.9000017862539456,1.0122236521216115 L 1.9000023702792432,1.0122228641066995 L 1.9000030286941134,1.0122221370971336 L 1.9000037551642555,1.0122214780871315 L 1.9000045427006411,1.012220893416719 L 1.9000053837267528,1.0122203887107355 L 1.900006270151473,1.0122199688247207 L 1.9000071934469258,1.0122196377982005 L 1.9000081447305188,1.012219398815826 L 1.9000091148503997,1.0122192541767336 L 1.9000100944735003,1.012219205272429 L 1.9000110741753267,1.0122192525733973 L 1.9000120445306274,1.0122193956245777 L 1.90001299620407,1.0122196330497424 L 1.900013920040051,1.0122199625647352 L 1.9000148071507779,1.012220380999447 L 1.9000156490017752,1.012220884328314 L 1.9000164374939899,1.0122214677090455 L 1.900017165041708,1.0122221255292094 L 1.9000178246455348,1.0122228514602265 L 1.9000184099597317,1.0122236385182557 L 1.9000189153532654,1.0122244791313808 L 1.900019335963982,1.0122253652124578 L 1.9000196677453836,1.0122262882369166 L 1.9000199075055566,1.0122272393247727 L 1.9000200529378812,1.0122282093260555 L 1.9000201026432215,1.0122291889088388 L 1.9012460312731414,1.7615622296223472 L 1.9012459846583332,1.761563210549659 L 1.90124584205407,1.7615641821747698 L 1.9012456048356152,1.7615651351274109 L 1.901245275290683,1.7615660602173897 L 1.9012448565973756,1.7615669485232188 L 1.9012443527935357,1.7615677914781538 L 1.9012437687378034,1.7615685809528103 L 1.9012431100627618,1.761569309333563 L 1.9012423831206158,1.7615699695959712 L 1.9012415949219321,1.7615705553725216 L 1.901240753068031,1.7615710610140356 L 1.9012398656776786,1.7615714816441506 L 1.90123894130879,1.761571813206346 L 1.901237988875899,1.761572052503065 L 1.9012370175641857,1.7615721972265503 L 1.9012360367408963,1.7615722459811018 L 1.9012350558650053,1.7615721982965342 L 1.9012340843959947,1.7615720546327138 L 1.9012331317026279,1.761571816375122 L 1.9012322069725967,1.761571485821494 L 1.9012313191239176,1.7615710661596604 L 1.901230476718926,1.761570561436804 L 1.901229687881703,1.7615699765204278 L 1.901228960219726,1.761569317051415 L 1.1198369080572923,0.9801774889625139 z M 1.5000071357554494,0.6000071198594703 L 1.5000064767186898,0.6000063927246074 L 1.5000058921270478,0.6000056044942023 L 1.5000053876104602,0.6000047627593437 L 1.5000049680276968,0.6000038756263976 L 1.5000046374195684,0.6000029516389382 L 1.500004398970012,0.6000019996954692 L 1.5000042549754267,0.6000010289637252 L 1.5000042068225587,0.6000000487923827 L 1.500004254975147,0.5999990686210264 L 1.5000043989694554,0.5999980978892413 L 1.5000046374187401,0.5999971459457041 L 1.500004968026605,0.5999962219581505 L 1.5000053876091153,0.5999953348250847 L 1.5000058921254626,0.5999944930900821 L 1.5000064767168797,0.5999937048595102 L 1.500007135753432,0.5999929777244593 L 1.9010903127082655,0.19890965158679336 L 1.9010910402883854,0.19890899218453226 L 1.9010918290314223,0.1989084073182274 L 1.9010926713324405,0.19890790262706712 L 1.9010935590701072,0.1989074829772037 L 1.9010944836849961,0.19890715241483475 L 1.901095436262117,0.19890691412719028 L 1.9010964076168722,0.19890677041180202 L 1.9010973883836122,0.19890672265435105 L 1.90109836910594,0.19890677131530712 L 1.9010993403278857,0.198906915925489 L 1.9011002926850815,0.1989071550905882 L 1.9011012169950494,0.1989074865046127 L 1.9011021043457397,0.1989079069721209 L 1.901102946181457,0.19890841243903168 L 1.9011037343853545,0.19890899803171305 L 1.9011044613576953,0.19890965810397307 L 1.9011051200891271,0.19891038629149949 L 1.9011057042282655,0.1989111755732234 L 1.9011062081429335,0.1989120183390154 L 1.9011066269744656,0.19891290646306106 L 1.9011069566845544,0.19891383138220892 L 1.9011071940941875,0.19891478417853492 L 1.9011073369142988,0.1989157556653277 L 1.9011073837678394,0.19891673647566538 L 1.90000012867247,0.9999759050047279 L 1.900000079222184,0.9999768845355128 L 1.8999999340550762,0.9999778545109765 L 1.8999996945675464,0.999978805600674 L 1.8999993630632872,0.9999797286558271 L 1.8999989427311237,0.9999806147973292 L 1.8999984376143402,0.999981455501156 L 1.8999978525717856,0.9999822426803597 L 1.8999971932311357,0.9999829687628597 L 1.8999964659347588,0.9999836267642804 L 1.8999956776787073,0.999984210355136 L 1.8999948360454197,0.9999847139217146 L 1.8999939491307853,0.9999851326200792 L 1.8999930254662651,0.9999854624226617 L 1.8999920739368272,0.9999857001570058 L 1.8999911036954797,0.9999858435362832 L 1.8999901240752255,0.9999858911812916 L 1.8999891444992851,0.9999858426337211 L 1.8999881743904534,0.9999856983605636 L 1.8999872230804582,0.9999854597496198 L 1.8999862997201966,0.9999851290961503 L 1.8999854131917102,0.9999847095807963 L 1.899984572022746,0.9999842052389846 L 1.8999837843047258,0.9999836209221097 L 1.8999830576149135,0.9999829622508669 L 1.5000071357554494,0.6000071198594703 z M 1.4000071168440014,0.4999929786813212 L 1.4000063897091053,0.4999936377181707 L 1.4000056014786533,0.49999422230989204 L 1.400004759743736,0.49999472682654705 L 1.4000038726107213,0.49999514640936427 L 1.400002948623186,0.49999547701753144 L 1.4000019966796349,0.4999957154671111 L 1.4000010259478062,0.4999958594617032 L 1.4000000457763782,0.49999590761456114 L 1.3999990656049381,0.4999958594619464 L 1.3999980948730735,0.49999571546759514 L 1.3999971429294635,0.49999547701825164 L 1.3999962189418458,0.4999951464103137 L 1.3999953318087273,0.4999947268277166 L 1.3999944900736847,0.4999942223112704 L 1.3999937018430877,0.4999936377197446 L 1.3999929747080282,0.49999297868307546 L 1.0000170377509312,0.10001712119404887 L 1.0000163790795615,0.10001639450438864 L 1.0000157947625432,0.10001560678650907 L 1.0000152904205728,0.100014765617672 L 1.0000148709050458,0.10001387908929779 L 1.0000145402513907,0.1000129557291319 L 1.00001430164025,0.10001200441921433 L 1.0000141573668866,0.10001103431044094 L 1.0000141088191028,0.10001005473453867 L 1.0000141564638922,0.1000090751143012 L 1.0000142998429475,0.10000810487294869 L 1.0000145375770684,0.10000715334348335 L 1.000014867379429,0.10000622967891298 L 1.0000152860775753,0.1000053427642057 L 1.0000157896439414,0.10000450113082322 L 1.0000163732345926,0.10000371287465448 L 1.0000170312358194,0.10000298557813922 L 1.0000177573181381,0.10000232623733053 L 1.0000185444971754,0.100001741194598 L 1.0000193852008525,0.1000012360776188 L 1.000020271342224,0.10000081574524367 L 1.0000211943972666,0.10000048424075832 L 1.0000221454868756,0.10000024475299003 L 1.0000231154622745,0.10000009958563354 L 1.000024094993019,0.10000005013509113 L 1.8010832371652792,0.0988925830880661 L 1.8010842179756001,0.09889262994134426 L 1.8010851894624025,0.09889277276118996 L 1.8010861422587647,0.09889301017055695 L 1.8010870671779757,0.09889333988038179 L 1.8010879553021115,0.09889375871165473 L 1.80108879806802,0.09889426262607119 L 1.801089587349886,0.0988948467649684 L 1.8010903155375795,0.09889550549617189 L 1.8010909756100304,0.09889623246830004 L 1.8010915612029248,0.09889702067200307 L 1.8010920666700692,0.09889786250754606 L 1.8010924871378295,0.09889874985808444 L 1.8010928185521224,0.09889967416792528 L 1.8010930577175042,0.09890062652501991 L 1.80109320232798,0.09890159774689249 L 1.8010932509892386,0.09890257846917601 L 1.8010932032320957,0.09890355923590198 L 1.8010930595170185,0.09890453059067345 L 1.8010928212296846,0.09890548316784196 L 1.801092490667623,0.09890640778280982 L 1.80109207101806,0.09890729552058634 L 1.8010915663271905,0.0989081378217449 L 1.8010909814611635,0.09890892656495154 L 1.8010903220591645,0.09890965414526959 L 1.4000071168440014,0.4999929786813212 z M 0.7999999783445833,0.10000015383241492 L 0.8000001259012745,0.10000031663608125 L 1.2999929774811092,0.5999930056601567 L 1.2999936365179545,0.5999937327950264 L 1.2999942211096762,0.5999945210254506 L 1.2999947256263362,0.5999953627603389 L 1.299995145209163,0.5999962498933245 L 1.2999954758173446,0.5999971738808312 L 1.2999957142669438,0.5999981258243543 L 1.29999585826156,0.599999096556157 L 1.2999959064144468,0.6000000767275614 L 1.2999958582618651,0.6000010568989809 L 1.2999957142675511,0.6000020276308284 L 1.2999954758182484,0.6000029795744258 L 1.2999951452103544,0.6000039035620355 L 1.2999947256278037,0.6000047906951516 L 1.299994221111406,0.600005632430197 L 1.2999936365199296,0.6000064206608031 L 1.2999929774833106,0.600007147795878 L 1.0198368705884593,0.8801633380362174 L 1.0198361434535845,0.8801639970730494 L 1.019835355223157,0.8801645816647576 L 1.0198345134882667,0.8801650861814043 L 1.019833626355281,0.8801655057642184 L 1.0198327023677756,0.8801658363723878 L 1.019831750424255,0.8801660748219752 L 1.0198307796924557,0.8801662188165806 L 1.0198297995210561,0.8801662669694573 L 1.0198288193496425,0.880166218816867 L 1.0198278486178014,0.880166074822545 L 1.019826896674211,0.8801658363732358 L 1.0198259726866088,0.8801655057653363 L 1.0198250855535005,0.8801650861827814 L 1.019824243818463,0.8801645816663807 L 1.0198234555878647,0.8801639970749027 L 1.0198227284527974,0.8801633380382831 L 0.23843062334820633,0.09877145700724008 L 0.23842996387899174,0.09877072934546087 L 0.23842937896239466,0.09876994050841535 L 0.23842887423929993,0.09876909810357944 L 0.2384284545772132,0.09876821025503217 L 0.23842812402331917,0.09876728552510777 L 0.2384278857654509,0.09876633283182128 L 0.23842774210134654,0.09876536136286396 L 0.23842769441649023,0.098764380486998 L 0.2384277431707506,0.09876339966370504 L 0.23842788789394576,0.09876242835195966 L 0.23842812719037781,0.09876147591900794 L 0.2384284587522928,0.0987605515500305 L 0.23842887938213636,0.0987596641595614 L 0.23842938502339087,0.09875882230551725 L 0.238429970799696,0.09875803410666527 L 0.23843063106187598,0.0987573071643267 L 0.23843135944241972,0.09875664848907027 L 0.23843214891688858,0.09875606443310295 L 0.2384329918716593,0.09875556062900968 L 0.23843388017734946,0.0987551419354334 L 0.23843480526721605,0.09875481239021855 L 0.23843575821977286,0.09875457517147056 L 0.23843672984482822,0.0987544325669064 L 0.23843771077211454,0.09875438595179212 L 0.9877751532236113,0.0999800871031727 L 0.9877761328062296,0.099980136808188 L 0.9877771028073827,0.09998028224015561 L 0.9877780538951487,0.09998052199994335 L 0.987778976919562,0.09998085378093574 L 0.9877798630006414,0.0999812743912248 L 0.9877807036138199,0.0999817797843179 L 0.9877814906719558,0.09998236509806717 L 0.9877822166031351,0.09998302470144592 L 0.9877828744235174,0.09998375224872208 L 0.987783457804524,0.09998454074050746 L 0.9877839611337221,0.09998538259109561 L 0.9877843795688197,0.09998626970144026 L 0.9877847090842505,0.09998719353707243 L 0.9877849465099026,0.09998814521020653 L 0.9877850895616159,0.09998911556524553 L 0.9877851368631578,0.09999009526686264 L 0.9877850879594625,0.09999107488981206 L 0.9877849433210091,0.09999204500960478 L 0.987784704339296,0.09999299629317723 L 0.9877843733134529,0.09999391958868015 L 0.9877839534281232,0.09999480601352427 L 0.9877834487228249,0.09999564703983552 L 0.9877828640530887,0.09999643457649758 L 0.9877822050437458,0.0999971610469928 L 0.9877814780348133,0.09999781946229219 L 0.9877806900205002,0.09999840348809362 L 0.9877798485819194,0.09999890750576115 L 0.9877789618141535,0.09999932666637922 L 0.9877780382483756,0.0999996569374018 L 0.9877770867697752,0.09999989514144762 L 0.9877761165320779,0.10000003898686825 L 0.9877751368694814,0.10000008708979494 L 0.8000001978024912,0.1000001430510743 L 0.7999999783445833,0.10000015383241492 z" />
</svg>