<?xml version="1.0" standalone="no"?>
<!DOCTYPE svg PUBLIC "-//W3C//DTD SVG 1.1//EN" 
  "http://www.w3.org/Graphics/SVG/1.1/DTD/svg11.dtd">
<svg width="1.9999999739716925m" height="1.9999999739716967m" viewBox="0 0 1.9999999739716925 1.9999999739716967"
     xmlns="http://www.w3.org/2000/svg" version="1.1">
<desc>Outline to SVG export</desc>
	<path fill-rule="evenodd" fill="#000000" stroke="#555555" stroke-width="0" opacity="1" d="M 1.149524293904013e-08,1.9999999885047632 L 2.454861915497704e-07,2.0 L 1.99999975451327,2.0 L 1.9999999739716925,1.9999999892187206 L 1.9999998264150243,1.9999998264150245 L 1.0,1.0 L 1.7358499889463516e-07,1.7358499889463686e-07 L 1.0781275894144643e-08,2.6028303251825913e-08 L 0.0,2.454861825172145e-07 L 0.0,1.9999997545137476 L 1.149524293904013e-08,1.9999999885047632 z M 1.200000021655413,1.9000000845861553 L 1.199999874098746,1.899999921782462 L 0.7000070591468831,1.4000071068305988 L 0.7000064001101614,1.4000063796956286 L 0.700005815518572,1.400005591465117 L 0.7000053110020514,1.400004749730155 L 0.7000048914193698,1.4000038625971105 L 0.7000045608113377,1.4000029386095594 L 0.7000043223618909,1.400001986666007 L 0.7000041783674282,1.4000010159341902 L 0.700004130214695,1.4000000357627869 L 0.7000041783674282,1.3999990555913835 L 0.7000043223618909,1.3999980848595668 L 0.7000045608113377,1.3999971329160144 L 0.7000048914193698,1.3999962089284632 L 0.7000053110020514,1.3999953217954186 L 0.700005815518572,1.3999944800604567 L 0.7000064001101614,1.3999936918299452 L 0.7000070591468831,1.399992964694975 L 0.9801632384757978,1.1198367853660602 L 0.980163965610768,1.1198361263293386 L 0.9801647538412794,1.119835541737749 L 0.9801655955762414,1.1198350372212287 L 0.980166482709286,1.119834617638547 L 0.9801674066968371,1.119834287030515 L 0.9801683586403894,1.119834048581068 L 0.9801693293722064,1.1198339045866055 L 0.9801703095436096,1.1198338564338721 L 0.9801712897150129,1.1198339045866055 L 0.9801722604468298,1.119834048581068 L 0.9801732123903821,1.119834287030515 L 0.9801741363779333,1.119834617638547 L 0.9801750235109778,1.1198350372212287 L 0.9801758652459398,1.119835541737749 L 0.9801766534764512,1.1198361263293386 L 0.9801773806114215,1.1198367853660602 L 1.7615693170530742,1.9012287218077129 L 1.7615699765221464,1.9012294494695405 L 1.7615705614386021,1.9012302383066169 L 1.761571066161558,1.9012310807114665 L 1.7615714858235103,1.9012319685600112 L 1.7615718163772767,1.901232893289918 L 1.761572054635025,1.901233845983173 L 1.7615721982990191,1.9012348174520863 L 1.7615722459837757,1.9012357983278974 L 1.7615721972294276,1.9012367791511264 L 1.761572052506157,1.9012377504628002 L 1.7615718132096625,1.9012387028956748 L 1.7615714816476986,1.9012396272645713 L 1.7615710610178197,1.9012405146549576 L 1.7615705553765428,1.901241356508919 L 1.7615699696002285,1.9012421447076897 L 1.7615693093380518,1.9012428716499505 L 1.7615685809575226,1.9012435303251343 L 1.761567791483079,1.9012441143810355 L 1.7615669485283427,1.9012446181850704 L 1.7615660602226952,1.9012450368785974 L 1.7615651351328778,1.9012453664237727 L 1.7615641821803754,1.901245603642492 L 1.7615632105553778,1.9012457462470387 L 1.7615622296281508,1.9012457928621471 L 1.0122270731612555,1.900020095354054 L 1.0122260935785448,1.9000200456490293 L 1.0122251235773014,1.9000199002170342 L 1.012224172489451,1.9000196604572015 L 1.012223249464961,1.9000193286761475 L 1.0122223633838154,1.9000189080657812 L 1.012221522770583,1.900018402672597 L 1.012220735712408,1.9000178173587448 L 1.012220009781206,1.9000171577552525 L 1.012219351960819,1.9000164302078553 L 1.012218768579827,1.9000156417159435 L 1.0122182652506635,1.9000147998652264 L 1.0122178468156215,1.9000139127547526 L 1.012217517300267,1.9000129889189945 L 1.0122172798747122,1.9000120372457403 L 1.0122171368231163,1.90001106689059 L 1.0122170895217113,1.9000100871888732 L 1.012217138425562,1.9000091075658385 L 1.0122172830641871,1.9000081374459774 L 1.012217522046087,1.900007186162356 L 1.012217853072129,1.9000062628668257 L 1.0122182729576679,1.9000053764419778 L 1.0122187776631826,1.9000045354156878 L 1.0122193623331392,1.9000037478790737 L 1.0122200213427035,1.9000030214086538 L 1.0122207483518553,1.900002362993458 L 1.0122215363663818,1.900001778967788 L 1.0122223778051669,1.9000012749502806 L 1.0122232645731242,1.90000085578985 L 1.0122241881390772,1.900000525519041 L 1.0122251396178332,1.9000002873152342 L 1.0122261098556635,1.9000001434700755 L 1.012227089518367,1.9000000953674316 L 1.1999998021974942,1.9000000953674316 L 1.200000021655413,1.9000000845861553 z M 0.19891679610488655,1.9011073836854175 L 0.19891581529462599,1.9011073368318845 L 0.1989148438079081,1.9011071940117958 L 0.1989138910116526,1.9011069566021999 L 0.19891296609256873,1.9011066268921621 L 0.19891207796857846,1.901106208060694 L 0.1989112352028314,1.9011057041461015 L 0.19891044592114027,1.901105120007049 L 0.19890971773363297,1.9011044612757115 L 0.1989090576613771,1.9011037343034713 L 0.19890847206868387,1.9011029460996791 L 0.19890796660174445,1.9011021042640692 L 0.1989075461341903,1.9011012169134864 L 0.1989072147201024,1.9011002926036233 L 0.19890697555492243,1.9010993402465277 L 0.19890683094464282,1.9010983690246748 L 0.1989067822835728,1.9010973883024302 L 0.19890683004089463,1.9010964075357613 L 0.1989069737561398,1.9010954361810632 L 0.19890721204362896,1.9010944836039834 L 0.19890754260583215,1.9010935589891174 L 0.19890796225552146,1.9010926712514538 L 0.19890846694650163,1.9010918289504177 L 0.1989090518126229,1.901091040207341 L 0.1989097112146995,1.9010903126271586 L 0.5999929064146441,1.5000071174272138 L 0.5999936335496303,1.5000064583904789 L 0.5999944217801602,1.5000058737988797 L 0.5999952635151424,1.500005369282353 L 0.5999961506482088,1.500004949699669 L 0.5999970746357824,1.5000046190916383 L 0.5999980265793576,1.5000043806421974 L 0.5999989973111969,1.5000042366477448 L 0.5999999774826216,1.5000041884950257 L 0.6000009576540446,1.5000042366477773 L 0.6000019283858791,1.500004380642262 L 0.6000028803294464,1.5000046190917344 L 0.6000038043170091,1.5000049496997958 L 0.6000046914500615,1.500005369282509 L 0.600005533185027,1.5000058737990638 L 0.6000063214155376,1.5000064583906891 L 0.6000070485505019,1.500007117427448 L 0.9999829622481451,1.8999830576144483 L 0.9999836209194536,1.8999837843042384 L 0.9999842052363938,1.8999845720222444 L 0.9999847095782695,1.8999854131912024 L 0.9999851290936854,1.89998629971969 L 0.999985459747214,1.8999872230799595 L 0.9999856983582129,1.8999881743899694 L 0.9999858426314214,1.8999891444988213 L 0.9999858911790378,1.899990124074787 L 0.99998584353407,1.899991103695071 L 0.9999857001548275,1.8999920739364513 L 0.9999854624205121,1.8999930254659247 L 0.9999851326179522,1.8999939491304825 L 0.999984713919604,1.899994836045155 L 0.9999842103530355,1.8999956776784808 L 0.9999836267621843,1.8999964659345698 L 0.9999829687607621,1.8999971932309825 L 0.9999822426782554,1.8999978525716659 L 0.99998145549904,1.8999984376142511 L 0.9999806147951973,1.8999989427310617 L 0.9999797286536755,1.899999363063248 L 0.9999788055984996,1.8999996945675253 L 0.9999778545087772,1.8999999340550684 L 0.9999768845332868,1.9000000792221845 L 0.9999759050024744,1.900000128672473 L 0.19891679610488655,1.9011073836854175 z M 0.09875414753700142,0.23843771077255893 L 0.09875419415196268,0.23843672984525988 L 0.09875433675637633,0.23843575822017687 L 0.0987545739749778,0.23843480526757796 L 0.09875490352005145,0.23843388017765524 L 0.09875532221349322,0.23843299187189568 L 0.09875582601745987,0.23843214891704287 L 0.0987564100733097,0.2384313594424803 L 0.09875706874845877,0.2384306310618321 L 0.09875779569070112,0.23842997079953804 L 0.09875858388946884,0.23842938502311037 L 0.09875942574344146,0.2384288793817261 L 0.09876031313385229,0.2384284587517469 L 0.09876123750278526,0.23842812718969172 L 0.09876218993570661,0.23842788789311628 L 0.0987631612474359,0.238427743169776 L 0.0987641420707271,0.23842769441537015 L 0.09876512294660555,0.23842774210008208 L 0.0987660944155894,0.23842788576404447 L 0.09876704710891608,0.2384281240217746 L 0.09876797183889384,0.2384284545755356 L 0.09876885968750704,0.23842887423749565 L 0.0987697020924207,0.23842937896047126 L 0.09877049092955495,0.23842996387695786 L 0.09877121859143295,0.2384306233460716 L 0.501971497437141,0.6416309021917798 L 0.8801632153717677,1.0198226201264065 L 0.8801638744084747,1.0198233472613587 L 0.880164459000053,1.0198241354918496 L 0.8801649635165664,1.0198249772267887 L 0.8801653830992453,1.0198258643598088 L 0.8801657137072794,1.0198267883473346 L 0.8801659521567327,1.0198277402908613 L 0.8801660961512066,1.0198287110226532 L 0.8801661443039558,1.0198296911940323 L 0.8801660961512431,1.0198306713654135 L 0.8801659521568053,1.0198316420972104 L 0.8801657137073874,1.0198325940407462 L 0.8801653830993877,1.0198335180282843 L 0.8801649635167418,1.0198344051613202 L 0.8801644590002596,1.019835246896278 L 0.8801638744087107,1.0198360351267906 L 0.8801632153720307,1.0198367622617672 L 0.6000070464635185,1.2999929520110844 L 0.6000063193285549,1.299993611047848 L 0.6000055310980446,1.2999941956394778 L 0.6000046893630785,1.2999947001560366 L 0.6000038022300251,1.299995119738754 L 0.600002878242461,1.2999954503468187 L 0.6000019262988919,1.2999956887962942 L 0.6000009555670552,1.299995832790782 L 0.5999999753956297,1.2999958809435357 L 0.5999989952242024,1.2999958327908183 L 0.5999980244923604,1.2999956887963668 L 0.5999970725487824,1.2999954503469267 L 0.599996148561206,1.2999951197388964 L 0.599995261428137,1.299994700156212 L 0.5999944196931523,1.2999941956396845 L 0.5999936314626201,1.299993611048084 L 0.5999929043276319,1.2999929520113476 L 0.10000013782218549,0.8000001855059014 L 0.09999997501848931,0.8000000379492321 L 0.09999996423721313,0.8000002574071502 L 0.09999996423721313,0.9877740794677782 L 0.09999991613457408,0.987775059130433 L 0.0999997722894297,0.987776029368216 L 0.0999995340856462,0.9877769808469276 L 0.0999992038148697,0.9877779044128403 L 0.0999987846544794,0.9877787911807627 L 0.09999828063701949,0.9877796326195194 L 0.09999769661140394,0.9877804206340253 L 0.09999703819626746,0.9877811476431649 L 0.09999631172591117,0.9877818066527266 L 0.09999552418936332,0.9877823913226907 L 0.09999468316314118,0.9877828960282234 L 0.09999379673836092,0.9877833159137912 L 0.09999287344289678,0.9877836469398733 L 0.09999192215933847,0.9877838859218239 L 0.09999095203953588,0.9877840305605107 L 0.09998997241655358,0.9877840794644331 L 0.09998899271488171,0.9877840321631096 L 0.09998802235976745,0.9877838891116039 L 0.09998707068653916,0.9877836516861468 L 0.0999861468507956,0.9877833221708968 L 0.09998525974032423,0.9877829037359643 L 0.09998441788959601,0.9877824004069145 L 0.0999836293976593,0.9877818170260382 L 0.0999829018502227,0.9877811592057675 L 0.09998224224667654,0.9877804332746806 L 0.0999816569327551,0.9877796462166176 L 0.09998115153948722,0.9877788056034926 L 0.0999807309290229,0.9877779195224476 L 0.09998039914785682,0.9877769964980498 L 0.0999801593878989,0.9877760454102812 L 0.09998001395576649,0.987775075409108 L 0.09997996425059347,0.9877740958264536 L 0.09875414753700142,0.23843771077255893 z M 0.09890964079714122,1.8010903949540755 L 0.09890891321692857,1.801091054356224 L 0.09890812447381078,1.8010916392224083 L 0.09890728217272407,1.8010921439134413 L 0.09890639443500211,1.8010925635631718 L 0.09890546982007137,1.8010928941254036 L 0.09890451724292254,1.8010931324129085 L 0.09890354588815362,1.8010932761281555 L 0.0989025651214134,1.8010933238854652 L 0.09890158439909945,1.8010932752243691 L 0.09890061317718096,1.80109313061405 L 0.09889966082002581,1.8010928914488178 L 0.09889873651011084,1.8010925600346654 L 0.09889784915948584,1.8010921395670356 L 0.09889700732384496,1.801091634100011 L 0.0988962191200341,1.8010910485072242 L 0.09889549214778955,1.8010903884348684 L 0.09889483341646255,1.8010896602472564 L 0.09889424927743617,1.801088870965458 L 0.0988937453628864,1.8010880281996033 L 0.09889332653147752,1.801087140075507 L 0.09889299682151559,1.8010862151563212 L 0.09889275941201185,1.80108526235997 L 0.09889261659203115,1.801084290873165 L 0.09889256973862108,1.8010833100628278 L 0.09999993092898556,1.0000240949952708 L 0.09999998037940114,1.0000231154644923 L 0.1000001255466374,1.0000221454890477 L 0.10000036503429313,1.000021194399382 L 0.10000069653867458,1.0000202713442727 L 0.10000111687095525,1.0000193852028263 L 0.10000162198785012,1.0000185444990664 L 0.10000220703050902,1.00001775731994 L 0.10000286637125513,1.0000170312375272 L 0.10000359366771912,1.0000163732362028 L 0.10000438192384802,1.0000157896454516 L 0.10000522355720202,1.0000152860789844 L 0.10000611047189203,1.0000148673807372 L 0.10000703413645602,1.000014537578277 L 0.10000798566592539,1.0000142998440589 L 0.10000895590729185,1.0000141564649099 L 0.10000993552755251,1.0000141088200314 L 0.10001091510348645,1.0000141573677315 L 0.10001188521229916,1.0000143016410175 L 0.10001283652226281,1.0000145402520872 L 0.10001375988248057,1.000014870905679 L 0.10001464641091144,1.0000152904211506 L 0.10001548757980896,1.0000157947630737 L 0.1000162752977517,1.000016379080053 L 0.10001700198747683,1.000017037751392 L 0.4999929007631122,1.3999929630163832 L 0.499993559799782,1.3999936901513412 L 0.49999414439132434,1.399994478381833 L 0.4999946489078036,1.3999953201167685 L 0.4999950684904507,1.399996207249781 L 0.49999539909845586,1.399997131237295 L 0.49999563754788334,1.399998083180807 L 0.4999957815423352,1.399999053912581 L 0.4999958296950662,1.4000000340839405 L 0.4999957815423392,1.4000010142553 L 0.49999563754789134,1.4000019849870748 L 0.4999953990984677,1.4000029369305877 L 0.4999950684904664,1.4000038609181034 L 0.49999464890782286,1.4000047480511173 L 0.499994144391347,1.4000055897860548 L 0.49999355979980786,1.400006378016549 L 0.499992900763141,1.4000071051515097 L 0.09890964079714122,1.8010903949540755 z" />
</svg>