<?xml version="1.0" standalone="no"?>
<!DOCTYPE svg PUBLIC "-//W3C//DTD SVG 1.1//EN" 
  "http://www.w3.org/Graphics/SVG/1.1/DTD/svg11.dtd">
<svg width="2.0000002123902485m" height="1.9999999739715864m" viewBox="0 0 2.0000002123902485 1.9999999739715864"
     xmlns="http://www.w3.org/2000/svg" version="1.1">
<desc>Outline to SVG export</desc>
	<path fill-rule="evenodd" fill="#000000" stroke="#555555" stroke-width="0" opacity="1" d="M 2.454861753098261e-07,2.980231872966718e-07 L 5.50448289401709e-08,3.07378997409323e-07 L 2.6028301253789762e-08,3.088044940496646e-07 L 1.7358498894186979e-07,4.7160816683450956e-07 L 0.9000000953673997,0.9000001549720444 L 0.9000000953674215,0.9000001549720652 L 2.000000064833588,1.9999998264150554 L 2.0000002276373,1.9999999739716992 L 2.0000002360645395,1.9999998024308883 L 2.00000023841855,1.9999997545137858 L 2.0000000000000293,2.454861780562761e-07 L 1.9999999885047655,1.1495234075719592e-08 L 1.9999999704182951,1.0606699997261232e-08 L 1.9999997545171124,1.1284553434096343e-13 L 2.454861753098261e-07,2.980231872966718e-07 z M 1.899990109817001,0.8999999761595262 L 1.8999910890890077,0.9000000242235813 L 1.8999920589474446,0.9000001679539861 L 1.8999930100692195,0.9000004059690835 L 1.8999939333113522,0.9000007359808728 L 1.8999948197988659,0.9000011548170043 L 1.8999956610100994,0.9000016584512738 L 1.8999964488586254,0.9000022420423266 L 1.8999971757709835,0.9000028999801966 L 1.8999978347594828,0.9000036259402332 L 1.8999984194893733,0.9000044129439002 L 1.8999989243397415,0.9000052534258588 L 1.8999993444575423,0.9000061393066918 L 1.8999996758042514,0.9000070620705702 L 1.8999999151946865,0.9000080128471142 L 1.900000060327626,0.9000089824966626 L 1.9000001098079304,0.9000099616981313 L 1.9012460358676033,1.761562229347671 L 1.9012459890662183,1.7615632102693513 L 1.9012458462765145,1.7615641818705106 L 1.9012456088755523,1.76156513478105 L 1.9012452791528214,1.7615660598111214 L 1.90124486028816,1.7615669480397562 L 1.9012443563210895,1.761567790900898 L 1.9012437721118567,1.761568580266013 L 1.901243113294562,1.7615693085224824 L 1.9012423862228247,1.761569968647017 L 1.9012415979085076,1.761570554273391 L 1.901240755954096,1.7615710597538374 L 1.9012398684793794,1.7615714802135138 L 1.9012389440431432,1.7615718115975172 L 1.9012379915606294,1.7615720507099877 L 1.9012370202175577,1.7615721952449297 L 1.9012360393815382,1.7615722438084522 L 1.9012350585117315,1.7615721959322093 L 1.9012340870676232,1.7615720520779183 L 1.9012331344177982,1.761571813632907 L 1.9012322097495895,1.7615714828967335 L 1.9012313219804764,1.7615710630590098 L 1.9012304796720838,1.7615705581686414 L 1.9012296909476143,1.7615699730947794 L 1.901228963413509,1.7615693134798627 L 1.1199913846658525,0.9800230095007141 L 1.1199907258511703,0.9800222823311132 L 1.1199901414742044,0.9800214940951234 L 1.1199896371614086,0.9800206523819787 L 1.1199892177683692,0.9800197652957977 L 1.1199888873330546,0.9800188413775562 L 1.1199886490369366,0.9800178895228541 L 1.1199885051743603,0.9800169188962662 L 1.1199884571304521,0.9800159388431059 L 1.1199885053677847,0.9800149587994469 L 1.1199886494219236,0.980013988201271 L 1.1199888879058968,0.9800130363936179 L 1.1199892185235518,0.9800121125406099 L 1.1199896380916603,0.9800112255372186 L 1.1199901425705687,0.9800103839236226 L 1.1199907271030913,0.9800095958029821 L 1.1199913860612765,0.9800088687634205 L 1.1999972229446583,0.9000030021218787 L 1.1999979500795517,0.9000023430849841 L 1.199998738310007,0.9000017584932198 L 1.1999995800449332,0.900001253976525 L 1.200000467177962,0.9000008343936714 L 1.200001391165516,0.900000503785472 L 1.2000023431090894,0.900000265335865 L 1.2000033138409434,0.9000001213412504 L 1.200004294012399,0.9000000731883755 L 1.899990109817001,0.8999999761595262 z M 1.9000000838721904,0.7500000114952428 L 1.8999998498811919,0.750000000000029 L 1.3500242464903405,0.7500000649130999 L 1.3500232663189597,0.7500000167604851 L 1.3500222955871533,0.7499998727661453 L 1.3500213436435984,0.7499996343168246 L 1.3500204196560315,0.7499993037089201 L 1.3500195325229576,0.7499988841263666 L 1.3500186907879526,0.7499983796099731 L 1.3500179025573842,0.7499977950185082 L 1.3500171754223431,0.7499971359819066 L 1.3500165163855369,0.749996408847051 L 1.35001593179385,0.7499956206166469 L 1.3500154272772198,0.7499947788817838 L 1.3500150076944166,0.7499938917488279 L 1.3500146770862522,0.7499929677613542 L 1.3500144386366637,0.7499920158178665 L 1.3500142946420506,0.7499910450861005 L 1.35001424648916,0.7499900649147333 L 1.3500142946417304,0.7499890847433502 L 1.3500144386360264,0.7499881140115372 L 1.350014677085304,0.7499871620679717 L 1.3500150076931665,0.7499862380803899 L 1.35001542727568,0.749985350947297 L 1.3500159317920353,0.749984509212269 L 1.3500165163834645,0.7499837209816741 L 1.3500171754200332,0.7499829938466032 L 1.9010730066223922,0.19892695767910346 L 1.9010737342580784,0.19892629823124586 L 1.90107452306509,0.19892571333068385 L 1.901075365436762,0.19892520861776078 L 1.901076253249893,0.19892478895955037 L 1.901077177943077,0.1989244584029224 L 1.901078130599265,0.1989242201355176 L 1.9010791020317537,0.19892407645500856 L 1.9010800828727752,0.19892402874694257 L 1.9010810636638324,0.1989240774713805 L 1.9010820349469104,0.19892422215846037 L 1.9010829873556823,0.19892446141292822 L 1.90108391170583,0.198924792927593 L 1.9010847990836128,0.19892521350557538 L 1.9010856409318235,0.19892571909113602 L 1.9010864291323077,0.1989263048087861 L 1.9010871560842497,0.1989269650103029 L 1.901087814777469,0.19892769332919702 L 1.9010883988600213,0.1989284827421061 L 1.9010889026994513,0.1989293256365227 L 1.9010893214371087,0.19893021388420387 L 1.9010896510350008,0.19893113891955364 L 1.9010898883147322,0.19893209182222332 L 1.9010900309881549,0.1989330634031326 L 1.9010900776794328,0.19893404429308228 L 1.9000200953553454,0.8871361801041175 L 1.9000200457271132,0.8871371597160248 L 1.9000199003662266,0.8871381297534792 L 1.900019660671206,0.8871390808837266 L 1.900019328948164,0.8871400039559195 L 1.9000189083886152,0.887140890089158 L 1.9000184030387737,0.8871417307579322 L 1.9000178177606226,0.8871425178741473 L 1.9000171581851375,0.887143243864939 L 1.90001643065811,0.8871439017455321 L 1.900015642179096,0.8871444851864413 L 1.9000148003340707,0.8871449885743671 L 1.9000139132224463,0.8871454070662022 L 1.900012989379145,0.8871457366356262 L 1.9000120376924863,0.8871459741118437 L 1.9000110673186708,0.8871461172100903 L 1.9000100875936883,0.8871461645536141 L 1.9000091079434973,0.8871461156869218 L 1.9000081377933362,0.8871459710801614 L 1.9000071864770436,0.8871457321245977 L 1.9000062631472565,0.8871454011192282 L 1.9000053766873537,0.8871449812486638 L 1.9000045356259874,0.8871444765524893 L 1.9000037480550298,0.8871438918863991 L 1.9000030215517205,0.8871432328754798 L 1.9000023631057654,0.8871425058600917 L 1.9000017790520891,0.8871417178348677 L 1.9000012750098867,0.8871408763814178 L 1.9000008558285604,0.8871399895953862 L 1.9000005255410637,0.8871390660085631 L 1.9000002873251012,0.8871381145067998 L 1.9000001434725542,0.8871371442445183 L 1.9000000953674316,0.8871361645566356 L 1.9000000953674316,0.7500002454862377 L 1.9000000838721904,0.7500000114952428 z M 0.8900001309324728,0.7500001299905618 L 0.8900002784891374,0.7500002927942522 L 0.9734913230259098,0.8334913373310247 L 0.9734919820204768,0.8334920644146295 L 0.9734925665803864,0.8334928525860067 L 0.9734930710767686,0.8334936942556618 L 0.9734934906517047,0.833494581318952 L 0.9734938212650048,0.8334955052341285 L 0.9734940597331133,0.8334964571045868 L 0.9734942037597621,0.8334974277645335 L 0.9734942519580838,0.8334984078672473 L 0.9734942038639648,0.8334993879750798 L 0.9734940599405152,0.8335003586503338 L 0.973493821573609,0.83350131054614 L 0.9734934910585393,0.8335022344964614 L 0.9734930715779163,0.8335031216043549 L 0.9734925671710215,0.8335039633276422 L 0.9734919826949119,0.8335047515611641 L 0.9734913237776506,0.8335054787148277 L 0.9734905967641126,0.8335061377866929 L 0.973489808654889,0.8335067224303959 L 0.9734889670388758,0.8335072270162598 L 0.9734880800201988,0.833507646685504 L 0.9734871561401776,0.8335079773970311 L 0.9734862042950782,0.833508215966339 L 0.9734852336504495,0.8335083600961856 L 0.9734842535528656,0.8335084083987093 L 0.9734832734399252,0.8335083604087936 L 0.9734823027493752,0.8335082165885449 L 0.9734813508282317,0.8335079783228435 L 0.9734804268427759,0.8335076479060081 L 0.9734795396902891,0.8335072285197028 L 0.9734786979133792,0.8335067242023011 L 0.9734779096177215,0.833506139809998 L 0.9734771823940073,0.8335054809700498 L 0.23843059253652604,0.09877141893844783 L 0.23842993328902187,0.09877069187519931 L 0.23842934848761355,0.09876990369022616 L 0.23842884376527335,0.0987690619755486 L 0.2384284239836294,0.09876817483880013 L 0.23842809318613703,0.09876725082513241 L 0.2384278545591311,0.09876629883490601 L 0.2384277104011343,0.09876532803795965 L 0.23842766210071722,0.09876434778528365 L 0.23842771012312308,0.0987633675189486 L 0.23842785400578648,0.09876239668115665 L 0.23842809236278903,0.09876144462329159 L 0.23842842289820873,0.0987605205158436 L 0.2384288424282351,0.0987596332600766 L 0.23842934691183643,0.09875879140228867 L 0.23842993148968422,0.09875800305149178 L 0.2384305905309596,0.09875727580130342 L 0.23843131768759085,0.09875661665680277 L 0.23843210595539996,0.0987560319670558 L 0.2384329477415688,0.09875552736395926 L 0.23843383493777529,0.09875510770799269 L 0.23843475899829503,0.09875477704140083 L 0.23843571102231614,0.0987545385492577 L 0.2384366818396744,0.09875439452878695 L 0.23843766209918288,0.09875434636723446 L 1.8012217117325076,0.09875412229367747 L 1.8012226919039156,0.09875417044627 L 1.801223662635751,0.09875431444059285 L 1.8012246145793354,0.098754552889902 L 1.801225538566932,0.09875488349780025 L 1.8012264257000352,0.09875530308035284 L 1.8012272674350682,0.09875580759675043 L 1.8012280556656626,0.09875639218822432 L 1.8012287828007267,0.0987570512248391 L 1.8012294418375525,0.09875777835971193 L 1.8012300264292553,0.09875856659013652 L 1.8012305309458974,0.098759408325023 L 1.8012309505287074,0.09876029545800435 L 1.801231281136874,0.09876121944550502 L 1.8012315195864594,0.09876217138902033 L 1.8012316635810641,0.09876314212081386 L 1.8012317117339414,0.09876412229220785 L 1.8012316635813523,0.09876510246361599 L 1.801231519587033,0.09876607319545185 L 1.8012312811377271,0.09876702513903723 L 1.8012309505298323,0.09876794912663509 L 1.801230530947283,0.09876883625973976 L 1.8012300264308883,0.09876967799477454 L 1.8012294418394172,0.09877046622537095 L 1.801228782802805,0.09877119336043752 L 1.150003010311692,0.7499971595890011 L 1.1500022831767902,0.7499978186258555 L 1.1500014949463315,0.7499984032175804 L 1.1500006532114069,0.7499989077342377 L 1.1499997660783843,0.7499993273170558 L 1.1499988420908407,0.7499996579252224 L 1.1499978901472814,0.7499998963747999 L 1.1499969194154445,0.7500000403693884 L 1.1499959392440087,0.7500000885222411 L 0.8900003503903832,0.7500001192092606 L 0.8900001309324728,0.7500001299905618 z" />
</svg>