<?xml version="1.0" standalone="no"?>
<!DOCTYPE svg PUBLIC "-//W3C//DTD SVG 1.1//EN" 
  "http://www.w3.org/Graphics/SVG/1.1/DTD/svg11.dtd">
<svg width="1.9999999739716925m" height="1.9999999739716967m" viewBox="0 0 1.9999999739716925 1.9999999739716967"
     xmlns="http://www.w3.org/2000/svg" version="1.1">
<desc>Outline to SVG export</desc>
	<path fill-rule="evenodd" fill="#000000" stroke="#555555" stroke-width="0" opacity="1" d="M 1.1495242966468228e-08,1.9999999885047632 L 2.4548618829915907e-07,2.0 L 1.99999975451327,2.0 L 1.9999999739716925,1.9999999892187206 L 1.9999998264150243,1.9999998264150245 L 1.0000000000000009,1.000000000000001 L 0.9999999999999972,0.9999999999999972 L 1.7358499889463516e-07,1.7358499889463686e-07 L 1.0781275894144669e-08,2.602830325182594e-08 L 1.8573259983960372e-15,2.4548614471047927e-07 L 0.0,1.100000023841858 L 0.0,1.9999997545137473 L 1.1495242966468228e-08,1.9999999885047632 z M 0.8499970949096699,1.2500029289321881 L 0.8499978220446401,1.2500022698954665 L 0.8499986102751516,1.250001685303877 L 0.8499994520101135,1.2500011807873566 L 0.8500003391431581,1.2500007612046748 L 0.8500012631307092,1.2500004305966428 L 0.8500022150742615,1.250000192147196 L 0.8500031858060785,1.2500000481527334 L 0.8500041659774817,1.25 L 1.1099997688188736,1.25 L 1.109999988276801,1.2499999892187226 L 1.1099998407200946,1.249999826415049 L 1.0266059278697424,1.1666059467024525 L 1.0266052688749694,1.1666052196189036 L 1.026604684314857,1.1666044314475563 L 1.0266041798182781,1.1666035897779061 L 1.0266037602431548,1.1666027027145975 L 1.0266034296296787,1.166601778799381 L 1.0266031911614084,1.1666008269288635 L 1.0266030471346135,1.1665998562688407 L 1.0266029989361636,1.1665988761660362 L 1.0266030470301735,1.1665978960581012 L 1.0266031909535338,1.1665969253827362 L 1.0266034293203714,1.166595973486813 L 1.026603759835393,1.1665950495363715 L 1.0266041793159886,1.166594162428358 L 1.0266046837228762,1.1665933207049535 L 1.0266052681989977,1.1665925324713198 L 1.0266059271162888,1.1665918053175526 L 1.026606654129873,1.166591146245594 L 1.0266074422391573,1.1665905616018106 L 1.026608283855244,1.1665900570158807 L 1.0266091708740044,1.1665896373465865 L 1.026610094754117,1.1665893066350268 L 1.0266110465993126,1.1665890680657047 L 1.0266120172440398,1.1665889239358629 L 1.0266129973417217,1.1665888756333629 L 1.026613977454757,1.1665889236233213 L 1.026614948145396,1.1665890674436314 L 1.0266159000666193,1.1665893057094117 L 1.026616824052144,1.1665896361263426 L 1.0266177112046857,1.166590055512758 L 1.0266185529816347,1.166590559830283 L 1.0266193412773135,1.1665911442227204 L 1.0266200685010292,1.166591803062811 L 1.7615693478599648,1.9012287598728126 L 1.7615700071073963,1.901229486936145 L 1.761570591908723,1.9012302751211951 L 1.7615710966309732,1.901231116835942 L 1.7615715164125199,1.9012320039727513 L 1.761571847209908,1.9012329279864704 L 1.761572085836804,1.9012338799767379 L 1.761572229994686,1.9012348507737147 L 1.7615722782949848,1.9012358310264097 L 1.7615722302724577,1.9012368112927522 L 1.7615720863896718,1.9012377821305393 L 1.7615718480325466,1.9012387341883874 L 1.7615715174970052,1.9012396582958058 L 1.7615710979668595,1.901240545551531 L 1.7615705934831425,1.901241387409265 L 1.7615700089051836,1.9012421757599962 L 1.7615693498638034,1.9012429030101072 L 1.7615686227070744,1.9012435621545196 L 1.7615678344391759,1.9012441468441683 L 1.761566992652927,1.901244651447157 L 1.7615661054566507,1.9012450711030076 L 1.7615651813960727,1.9012454017694755 L 1.7615642293720053,1.9012456402614886 L 1.7615632585546137,1.901245784281824 L 1.761562278295085,1.9012458324432373 L 0.1987783335342445,1.9012458324432373 L 0.19877735336284122,1.901245784290504 L 0.19877638263102435,1.9012456402960414 L 0.19877543068747197,1.9012454018465945 L 0.19877450669992086,1.9012450712385625 L 0.19877361956687625,1.9012446516558807 L 0.1987727778319143,1.9012441471393602 L 0.19877198960140285,1.9012435625477708 L 0.19877126246643262,1.9012429035110492 L 0.19877060342971087,1.901242176376079 L 0.19877001883812148,1.9012413881455674 L 0.198769514321601,1.9012405464106055 L 0.19876909473891938,1.901239659277561 L 0.19876876413088718,1.9012387352900098 L 0.19876852568144046,1.9012377833464573 L 0.19876838168697777,1.9012368126146404 L 0.1987683335342445,1.9012358324432372 L 0.1987683816869778,1.9012348522718339 L 0.1987685256814405,1.901233881540017 L 0.1987687641308872,1.9012329295964647 L 0.1987690947389194,1.9012320056089136 L 0.19876951432160106,1.901231118475869 L 0.1987700188381215,1.901230276740907 L 0.19877060342971092,1.9012294885103955 L 0.19877126246643265,1.9012287613754253 L 0.8499970949096699,1.2500029289321881 z M 0.09875414294298213,0.2384377110488723 L 0.09875418974450433,0.23843673012718417 L 0.09875433253434694,0.2384357585260306 L 0.09875456993544798,0.2384348056155112 L 0.09875489965831658,0.2384338805854735 L 0.09875531852311283,0.23843299235688625 L 0.0987558224903141,0.23843214949580588 L 0.0987564066996721,0.23843136013076566 L 0.09875706551708499,0.23843063187438412 L 0.0987577925889325,0.23842997174994943 L 0.09875858090335017,0.23842938612368667 L 0.09875942285785158,0.23842888064336232 L 0.09876031033264651,0.23842846018381716 L 0.09876123476894812,0.23842812879995362 L 0.09876218725151356,0.23842788968763012 L 0.09876315859462254,0.23842774515284054 L 0.09876413943066403,0.23842769658947516 L 0.0987651203004774,0.2384277444658779 L 0.09876609174457636,0.23842788832032988 L 0.09876704439437595,0.23842812676550196 L 0.09876796906254301,0.23842845750183433 L 0.09876885683159865,0.23842887733971327 L 0.09876969913991815,0.23842938223023175 L 0.09877048786429911,0.23842996730423702 L 0.0987712153983014,0.23843062691928857 L 0.8800087156021772,1.019977122703691 L 0.880009374416724,1.019977849873394 L 0.8800099587935464,1.0199786381094715 L 0.8800104631061919,1.0199794798226887 L 0.8800108824990761,1.0199803669089262 L 0.8800112129342321,1.0199812908272083 L 0.8800114512301896,1.0199822426819352 L 0.8800115950926054,1.0199832133085316 L 0.8800116431363544,1.0199841933616844 L 0.8800115948988655,1.0199851734053207 L 0.8800114508445751,1.0199861440034588 L 0.8800112123604558,1.0199870958110597 L 0.8800108817426623,1.0199880196640019 L 0.8800104621744235,1.0199889066673151 L 0.8800099576953946,1.0199897482808211 L 0.8800093731627618,1.0199905364013613 L 0.8800087142044781,1.019991263440813 L 0.8000028886875143,1.0999970949094067 L 0.8000021615525327,1.099997753946185 L 0.8000013733220016,1.0999983385378258 L 0.8000005315870128,1.0999988430543917 L 0.799999644453935,1.0999992626371118 L 0.7999987204663456,1.0999995932451747 L 0.7999977685227508,1.0999998316946438 L 0.7999967977908891,1.0999999756891201 L 0.7999958176194395,1.100000023841858 L 0.10000994978764233,1.100000023841858 L 0.10000897051564218,1.099999975777667 L 0.1000080006572253,1.0999998320471278 L 0.10000704953548369,1.0999995940318985 L 0.10000612629339671,1.0999992640199814 L 0.10000523980594114,1.099998845183727 L 0.10000439859477746,1.099998341549341 L 0.1000036107463324,1.0999977579581792 L 0.1000028838340656,1.0999971000202087 L 0.10000222484566702,1.0999963740600807 L 0.1000016401158855,1.0999955870563327 L 0.10000113526563381,1.0999947465743043 L 0.1000007151479557,1.0999938606934132 L 0.10000038380137442,1.099992937929489 L 0.10000014441107105,1.099991987152912 L 0.09999999927826583,1.0999910175033436 L 0.09999994979809693,1.0999900383018681 L 0.09875414294298213,0.2384377110488723 z M 0.0989269485257633,1.8010730872241658 L 0.0989262208899789,1.801073746671915 L 0.09892543208288034,1.8010743315723599 L 0.09892458971113302,1.8010748362851576 L 0.0989237018979397,1.801075255943236 L 0.09892277720470648,1.8010755864997263 L 0.09892182454848292,1.8010758247669894 L 0.09892085311597276,1.8010759684473538 L 0.09891987227494421,1.801076016155274 L 0.09891889148389417,1.80107596743069 L 0.09891792020083758,1.8010758227434656 L 0.09891696779210143,1.801075583488856 L 0.09891604344200286,1.8010752519740536 L 0.09891515606428253,1.801074831395939 L 0.09891431421614715,1.8010743258102533 L 0.09891352601575014,1.8010737400924857 L 0.09891279906390633,1.8010730798908607 L 0.09891214037079532,1.8010723515718685 L 0.09891155628836057,1.8010715621588724 L 0.09891105244905599,1.8010707192643807 L 0.09891063371153082,1.8010698310166373 L 0.0989103041137764,1.8010689059812384 L 0.09891006683418681,1.8010679530785332 L 0.0989099241609089,1.8010669814976026 L 0.09890987746977695,1.801066000607646 L 0.09997996424930167,1.1128625880700562 L 0.09998001387767524,1.1128616084582026 L 0.09998015923869268,1.1128606384208148 L 0.09998039893383219,1.1128596872906455 L 0.09998073065698118,1.1128587642185401 L 0.0999811512166234,1.1128578780853975 L 0.09998165656654465,1.1128570374167255 L 0.09998224184476136,1.112856250300617 L 0.09998290142029803,1.112855524309935 L 0.09998362894736287,1.1128548664294526 L 0.09998441742640081,1.1128542829886536 L 0.09998525927143644,1.112853779600836 L 0.09998614638305879,1.1128533611091054 L 0.09998707022634604,1.1128530315397807 L 0.09998802191298009,1.1128527940636563 L 0.09998899228676143,1.1128526509654957 L 0.09998997201170098,1.1128526036220494 L 0.09999095166184202,1.1128526524888098 L 0.0999919218119474,1.112852797095629 L 0.09999287312818007,1.112853036051241 L 0.09999379645790413,1.1128533670566485 L 0.09999468291774252,1.1128537869272406 L 0.09999552397904422,1.1128542916234323 L 0.0999963115499386,1.1128548762895296 L 0.0999970380531875,1.1128555353004463 L 0.09999769649908605,1.112856262315823 L 0.0999982805527107,1.1128570503410273 L 0.09999878459486776,1.1128578917944503 L 0.09999920377615575,1.1128587785804487 L 0.09999953406362158,1.1128597021672333 L 0.09999977227956179,1.1128606536689543 L 0.09999991613209519,1.1128616239311908 L 0.09999996423721313,1.1128626036190272 L 0.09999996423721313,1.2499997545137789 L 0.09999997573245291,1.2499999885047601 L 0.10000020972343476,1.25 L 0.6499758526212759,1.25 L 0.6499768327926637,1.2500000481527318 L 0.6499778035244657,1.25000019214719 L 0.649978755468004,1.2500004305966292 L 0.6499796794555422,1.2500007612046513 L 0.6499805665885758,1.2500011807873201 L 0.6499814083235288,1.2500016853038254 L 0.6499821965540337,1.2500022698953976 L 0.6499829236890001,1.2500029289321006 L 0.649983582725721,1.2500036560670507 L 0.6499841673173128,1.250004444297541 L 0.649984671833839,1.2500052860324815 L 0.6499850914165298,1.2500061731655046 L 0.6499854220245748,1.2500070971530348 L 0.6499856604740376,1.250008049096567 L 0.6499858044685198,1.2500090198283653 L 0.6499858526212758,1.250009999999752 L 0.6499858044685685,1.2500109801711412 L 0.6499856604741343,1.2500119509029466 L 0.6499854220247187,1.2500129028464908 L 0.6499850914167196,1.2500138268340373 L 0.6499846718340728,1.2500147139670812 L 0.6499841673175883,1.2500155557020467 L 0.6499835827260356,1.2500163439325662 L 0.6499829236893507,1.250017071067549 L 0.0989269485257633,1.8010730872241658 z" />
</svg>