<?xml version="1.0" standalone="no"?>
<!DOCTYPE svg PUBLIC "-//W3C//DTD SVG 1.1//EN" 
  "http://www.w3.org/Graphics/SVG/1.1/DTD/svg11.dtd">
<svg width="2.0000002123902485m" height="1.9999999739715935m" viewBox="0 0 2.0000002123902485 1.9999999739715935"
     xmlns="http://www.w3.org/2000/svg" version="1.1">
<desc>Outline to SVG export</desc>
	<path fill-rule="evenodd" fill="#000000" stroke="#555555" stroke-width="0" opacity="1" d="M 2.454861837817277e-07,2.980231839711826e-07 L 5.504469974196353e-08,3.073790037564529e-07 L 2.60283013973746e-08,3.088044940566849e-07 L 1.7358498965459242e-07,4.716081665021351e-07 L 1.1000001430511475,1.1000001430511475 L 2.0000000648335305,1.9999998264149974 L 2.0000002276373,1.9999999739716983 L 2.000000227903302,1.9999999685570922 L 2.00000023841855,1.9999997545137835 L 2.0000000000000293,2.454861730852285e-07 L 1.9999999885047657,1.1495234087118822e-08 L 1.999999754516761,1.0471233556195622e-13 L 1.1000000238423098,1.192092895507231e-07 L 1.1000000238420085,1.1920929694661894e-07 L 2.454861837817277e-07,2.980231839711826e-07 z M 1.9012287757156745,0.19877118852788306 L 1.901229502850536,0.1987705294910148 L 1.9012302910809544,0.19876994489927036 L 1.90123113281584,0.19876944038258798 L 1.901232019948825,0.1987690207997393 L 1.901232943936334,0.19876869019153667 L 1.9012338958798616,0.1987684517419179 L 1.901234866611671,0.19876830774728327 L 1.9012358467830837,0.19876825959437988 L 1.9012368269545128,0.19876830774694654 L 1.9012377976863717,0.19876845174124766 L 1.9012387496299812,0.1987686901905394 L 1.9012396736176036,0.1987690207984246 L 1.901240560750733,0.1987694403809685 L 1.9012414024857918,0.1987699448973617 L 1.9012421907164112,0.19877052948883533 L 1.9012429178514991,0.19877118852545378 L 1.9012435768883467,0.1987719156603339 L 1.9012441614800686,0.198772703890769 L 1.9012446659967273,0.19877354562566887 L 1.9012450855795506,0.198774432758666 L 1.901245416187727,0.19877535674618435 L 1.9012456546373189,0.19877630868971866 L 1.9012457986319258,0.19877727942153203 L 1.9012458467848015,0.1987782595929461 L 1.9012460708583538,1.7615622782952687 L 1.9012460226970813,1.761563258554802 L 1.9012458786768858,1.7615642293722122 L 1.9012456401850102,1.7615651813963116 L 1.901245309518676,1.7615661054569354 L 1.9012448898629548,1.76156699265327 L 1.9012443852600889,1.76156783443959 L 1.9012438005705559,1.7615686227075713 L 1.9012431414262503,1.7615693498643943 L 1.9012424141762365,1.7615700089058788 L 1.9012416258255924,1.761570593483951 L 1.9012407839679337,1.7615710979677897 L 1.901239896712272,1.761571517498064 L 1.9012389726049037,1.7615718480337395 L 1.9012380205470927,1.7615720863910036 L 1.901237049709329,1.7615722302739316 L 1.9012360694429957,1.7615722782966023 L 1.9012350891902958,1.7615722299964478 L 1.9012341183933,1.7615720858387092 L 1.9012331664029993,1.7615718472119541 L 1.9012322423892336,1.7615715164147032 L 1.9012313552523643,1.761571096633289 L 1.9012305135375445,1.7615705919111644 L 1.9012297253524093,1.761570007109956 L 1.9012289982889807,1.761569347862634 L 1.2500030410235363,1.1100667231061376 L 1.250002382309715,1.1100659960365735 L 1.2500017980121272,1.110065207918322 L 1.2500012937548357,1.11006436633729 L 1.2500008743914888,1.1100634793939814 L 1.2500005439586015,1.1100625556255275 L 1.2500003056367026,1.110061603923514 L 1.250000161719722,1.1100606334483973 L 1.2500001135929093,1.1100596535413307 L 1.2500000843466674,0.850004264256971 L 1.2500001324992815,0.8500032840856537 L 1.2500002764936082,0.8500023133539094 L 1.2500005149429037,0.8500013614104138 L 1.2500008455507714,0.8500004374229013 L 1.2500012651332773,0.8499995502898751 L 1.2500017696496133,0.8499987085549097 L 1.2500023542410124,0.8499979203243713 L 1.2500030132775406,0.8499971931893495 L 1.9012287757156745,0.19877118852788306 z M 1.2499999885047575,0.10000003533710619 L 1.2499997545137342,0.10000002384195546 L 1.1128646603165895,0.10000007833455463 L 1.1128636806286567,0.10000003022981836 L 1.1128627103662878,0.09999988637764784 L 1.1128617588644016,0.09999964816204841 L 1.1128608352774216,0.09999931787489832 L 1.1128599484912012,0.09999889869389857 L 1.1128591070375329,0.09999839465200006 L 1.1128583190120636,0.09999781059860254 L 1.112857591996406,0.09999715215289845 L 1.1128569329851965,0.09999642564981041 L 1.112856348318798,0.09999563807904292 L 1.1128558436223008,0.09999479701783406 L 1.1128554237514026,0.09999391055805489 L 1.1128550927456917,0.09999298722835717 L 1.1128548537897824,0.09999203591211912 L 1.1128547091826757,0.09999106576197818 L 1.11285466031564,0.09999008611177318 L 1.1128547076588264,0.09998910638674338 L 1.1128548507567446,0.09998813601284787 L 1.1128550882326464,0.09998718432607828 L 1.11285541780177,0.09998626048263692 L 1.1128558362933225,0.09998537337084475 L 1.112856339680986,0.09998453152562659 L 1.1128569231216556,0.0999837430463964 L 1.1128575810020338,0.0999830155191327 L 1.1128583069926368,0.09998235594339354 L 1.1128590941086909,0.09998177066497367 L 1.1128599347773327,0.09998126531485148 L 1.112860820910468,0.09998084475501316 L 1.112861743982588,0.09998051303167552 L 1.1128626951127925,0.09998027333635708 L 1.1128636651502335,0.09998012797517253 L 1.112864644762157,0.09998007834664548 L 1.8010659260451194,0.09890989249047288 L 1.8010669069350675,0.0989099391814574 L 1.8010678785160044,0.09891008185458627 L 1.8010688314187306,0.09891031913402666 L 1.8010697564541658,0.09891064873163326 L 1.8010706447019607,0.0989110674690135 L 1.8010714875965181,0.09891157130817756 L 1.8010722770095946,0.09891215539047772 L 1.801073005328681,0.09891281408346153 L 1.8010736655304134,0.09891354103518697 L 1.8010742512483005,0.09891432923547579 L 1.8010747568341174,0.09891517108351448 L 1.801075177412373,0.09891605846115076 L 1.8010755089273256,0.09891698281117903 L 1.8010757481820932,0.09891793521985957 L 1.8010758928694814,0.09891890650287608 L 1.8010759415942341,0.09891988729390225 L 1.801075893886486,0.09892086813492365 L 1.8010757502062944,0.09892183956744377 L 1.8010755119392041,0.0989227922236946 L 1.8010751813828845,0.09892371691697241 L 1.8010747617249732,0.0989246047302275 L 1.8010742570123366,0.09892544710205345 L 1.8010736721120462,0.09892623590924698 L 1.8010730126644419,0.09892696354514209 L 1.250017132920028,0.6499830072268045 L 1.2500164057851442,0.649983666263644 L 1.2500156175547061,0.6499842508553578 L 1.2500147758198044,0.6499847553720081 L 1.2500138886868064,0.6499851749548234 L 1.250012964699288,0.649985505562992 L 1.2500120127557544,0.649985744012576 L 1.2500110420239425,0.6499858880071757 L 1.250010061852531,0.6499859361600444 L 1.250009081681106,0.6499858880074436 L 1.2500081109492547,0.6499857440131092 L 1.250007159005656,0.6499855055637853 L 1.2500062350180472,0.6499851749558694 L 1.2500053478849344,0.6499847553732965 L 1.250004506149895,0.6499842508568763 L 1.250003717919297,0.6499836662653778 L 1.2500029907842332,0.6499830072287371 L 1.2500023317474112,0.6499822800938373 L 1.2500017471557165,0.6499814918633852 L 1.2500012426390865,0.6499806501284713 L 1.2500008230562927,0.649979762995463 L 1.2500004924481465,0.6499788390079366 L 1.2500002539985855,0.6499778870643973 L 1.2500001100040092,0.649976916332582 L 1.2500000618511642,0.6499759361611691 L 1.2500000000000275,0.10000026932812481 L 1.2499999885047575,0.10000003533710619 z M 1.0199913678361139,0.8800088407426007 L 1.0199906407967616,0.8800094997010385 L 1.0199898526763036,0.8800100842338319 L 1.0199890110628622,0.8800105887130263 L 1.019988124059596,0.8800110082814334 L 1.0199872002066828,0.8800113388993964 L 1.0199862483990936,0.8800115773836844 L 1.01998527780095,0.8800117214381409 L 1.019984297757292,0.8800117696757916 L 1.0199833177041018,0.8800117216321987 L 1.0199823470774532,0.8800115777699316 L 1.0199813952226606,0.8800113394741141 L 1.0199804713043006,0.8800110090390882 L 1.0199795842179737,0.8800105896463234 L 1.0199787425046576,0.8800100853337853 L 1.0199779542684728,0.8800095009570579 L 1.0199772270986553,0.8800088421425929 L 0.2384306269216568,0.09877145381451279 L 0.23842996730650456,0.09877072628060177 L 0.23842938223239013,0.09876993755630177 L 0.2384288773417551,0.09876909524805212 L 0.2384284575037533,0.09876820747905457 L 0.23842812676729297,0.09876728281093326 L 0.23842788832198905,0.09876633016116666 L 0.23842774446740264,0.09876535871708761 L 0.23842769659086416,0.09876437784728084 L 0.23842774515409385,0.09876339701123261 L 0.238427889688749,0.09876242566810363 L 0.2384281288009407,0.09876147318550507 L 0.23842846018467634,0.09876054874915761 L 0.23842888064409867,0.09875966127430448 L 0.23842938612430653,0.09875881931973313 L 0.2384299717504602,0.09875803100523442 L 0.23843063187479432,0.09875730393329556 L 0.2384313601310847,0.09875664511578189 L 0.23843214949604413,0.09875606090631465 L 0.23843299235705476,0.09875555693899675 L 0.23843388058558407,0.0987551380740776 L 0.23843480561557617,0.09875480835108101 L 0.23843575852606272,0.09875457094984813 L 0.23843673012719652,0.09875442815987107 L 0.2384377110488782,0.09875438135821316 L 1.0999900383018688,0.10000006900876808 L 1.099991017503351,0.1000001184888015 L 1.0999919871529393,0.1000002636214725 L 1.0999929379295492,0.10000050301164426 L 1.0999938606935191,0.10000083435809774 L 1.0999947465744684,0.10000125447565315 L 1.0999955870565665,0.1000017593257884 L 1.0999963740603953,0.10000234405546087 L 1.0999971000206143,0.1000030030437588 L 1.0999977579586855,0.10000372995593436 L 1.0999983415499563,0.10000451780429845 L 1.099998845184459,0.10000535901539225 L 1.0999992640208358,0.10000624550278962 L 1.099999594032881,0.10000716874483072 L 1.0999998320482418,0.1000081198665392 L 1.0999999757789156,0.10000908972493601 L 1.1000000238432421,0.10001006899692932 L 1.1000001208720964,0.7999959217681479 L 1.1000000727195003,0.7999969019395453 L 1.0999999287251758,0.7999978726713699 L 1.099999690275867,0.7999988246149438 L 1.0999993596679714,0.7999997486025302 L 1.099998940085423,0.800000635735624 L 1.0999984355690318,0.8000014774706484 L 1.0999978509775656,0.8000022657012356 L 1.0999971919409601,0.8000029928362941 L 1.0199913678361139,0.8800088407426007 z" />
</svg>