<?xml version="1.0" standalone="no"?>
<!DOCTYPE svg PUBLIC "-//W3C//DTD SVG 1.1//EN" 
  "http://www.w3.org/Graphics/SVG/1.1/DTD/svg11.dtd">
<svg width="1.9999999739716925m" height="1.9999999739716972m" viewBox="0 0 1.9999999739716925 1.9999999739716972"
     xmlns="http://www.w3.org/2000/svg" version="1.1">
<desc>Outline to SVG export</desc>
	<path fill-rule="evenodd" fill="#000000" stroke="#555555" stroke-width="0" opacity="1" d="M 1.1495242966468228e-08,1.9999999885047632 L 2.4548618829915907e-07,2.0 L 1.99999975451327,2.0 L 1.9999999739716925,1.9999999892187206 L 1.9999998264150243,1.9999998264150245 L 1.0,1.0 L 0.8999999761581421,0.8999999761581421 L 1.7358497106278608e-07,1.7358497106278608e-07 L 1.0781275915671867e-08,2.6028302813629684e-08 L 0.0,2.454861825172121e-07 L 0.0,1.9999997545137473 L 1.1495242966468228e-08,1.9999999885047632 z M 0.9800087643434103,1.1199912594984476 L 0.9800094913828724,1.1199906005401083 L 0.9800102795034307,1.119990016007425 L 0.9800111211169621,1.1199895115283511 L 0.9800120081203066,1.1199890919600741 L 0.9800129319732854,1.11998876134225 L 0.9800138837809268,1.1199885228581077 L 0.9800148543791081,1.119988378803803 L 0.980015834422789,1.1199883305663083 L 0.9800168144759865,1.1199883786100604 L 0.9800177851026265,1.1199885224724881 L 0.9800187369573944,1.119988760768466 L 0.9800196608757139,1.1199890912036503 L 0.9800205479619841,1.1199895105965705 L 0.9800213896752279,1.1199900149092588 L 0.9800221779113251,1.1199905992861297 L 0.9800229050810402,1.11999125810073 L 1.7615693134808486,1.9012287250006505 L 1.7615699730958292,1.90122945253462 L 1.761570558169773,1.901230241258957 L 1.7615710630602404,1.9012310835672233 L 1.7615714828980802,1.9012319713362178 L 1.7615718136343865,1.9012328960043179 L 1.761572052079546,1.9012338486540465 L 1.7615721959339992,1.9012348200980724 L 1.7615722438104175,1.9012358009678132 L 1.7615721952470818,1.901236781803784 L 1.7615720507123356,1.9012377531468267 L 1.7615718116000687,1.9012387056293323 L 1.761571480216274,1.901239630065582 L 1.7615710597568088,1.9012405175403353 L 1.7615705542765743,1.9012413594948068 L 1.7615699686504096,1.9012421478092076 L 1.7615693085260793,1.9012428748810528 L 1.7615685802698064,1.9012435336984788 L 1.7615677909048775,1.901244117907866 L 1.7615669480439087,1.9012446218751136 L 1.7615660598154308,1.9012450407399732 L 1.7615651347854981,1.9012453704629222 L 1.7615641818750771,1.9012456078641204 L 1.7615632102740129,1.9012457506540765 L 1.761562229352403,1.9012457974557273 L 0.9000099616995143,1.9000001098051693 L 0.900008982497946,1.9000000603251272 L 0.900008012848274,1.8999999151924307 L 0.9000070620715854,1.8999996758022173 L 0.9000061393075443,1.8999993444557064 L 0.9000052534265334,1.8999989243380795 L 0.9000044129443852,1.8999984194878596 L 0.90000362594052,1.8999978347580913 L 0.9000028999802797,1.8999971757696879 L 0.9000022420422042,1.8999964488573997 L 0.9000016584509466,1.8999956610089181 L 0.9000011548164762,1.8999948197977043 L 0.9000007359801507,1.899993933310187 L 0.9000004059681764,1.8999930100680287 L 0.9000001679529058,1.8999920589462085 L 0.9000000242223414,1.899991089087708 L 0.8999999761581421,1.899990109815622 L 0.8999999761581421,1.2000041898193397 L 0.9000000243108753,1.2000032096479363 L 0.900000168305338,1.2000022389161196 L 0.9000004067547848,1.2000012869725671 L 0.9000007373628169,1.200000362985016 L 0.9000011569454985,1.1999994758519714 L 0.9000016614620191,1.1999986341170095 L 0.9000022460536085,1.199997845886498 L 0.9000029050903302,1.1999971187515277 L 0.9800087643434103,1.1199912594984476 z M 0.7500000114952398,1.9000000838721918 L 0.7500002454862217,1.9000000953674316 L 0.8871361645566348,1.9000000953674316 L 0.8871371442445175,1.9000001434725542 L 0.887138114506799,1.9000002873251012 L 0.8871390660085623,1.9000005255410637 L 0.8871399895953854,1.9000008558285604 L 0.887140876381417,1.9000012750098867 L 0.887141717834867,1.9000017790520891 L 0.8871425058600909,1.9000023631057654 L 0.887143232875479,1.9000030215517205 L 0.8871438918863983,1.9000037480550298 L 0.8871444765524885,1.9000045356259874 L 0.887144981248663,1.9000053766873537 L 0.8871454011192275,1.9000062631472565 L 0.8871457321245969,1.9000071864770436 L 0.8871459710801606,1.9000081377933362 L 0.887146115686921,1.9000091079434973 L 0.8871461645536133,1.9000100875936883 L 0.8871461172100895,1.9000110673186708 L 0.8871459741118429,1.9000120376924863 L 0.8871457366356255,1.900012989379145 L 0.8871454070662014,1.9000139132224463 L 0.8871449885743663,1.9000148003340707 L 0.8871444851864405,1.900015642179096 L 0.8871439017455314,1.90001643065811 L 0.8871432438649383,1.9000171581851375 L 0.8871425178741466,1.9000178177606226 L 0.8871417307579315,1.9000184030387737 L 0.8871408900891572,1.9000189083886152 L 0.8871400039559187,1.900019328948164 L 0.8871390808837258,1.900019660671206 L 0.8871381297534784,1.9000199003662266 L 0.887137159716024,1.9000200457271132 L 0.8871361801041168,1.9000200953553454 L 0.19893410392615915,1.9010900775867183 L 0.1989331230362866,1.901090030895448 L 0.1989321514554522,1.901089888222048 L 0.19893119855285304,1.9010896509423536 L 0.19893027351756723,1.9010893213445126 L 0.19892938526994147,1.901088902606919 L 0.1989285423755698,1.9010883987675646 L 0.19892775296269355,1.9010878146850982 L 0.19892702464381853,1.901087155991973 L 0.1989263644423059,1.9010864290401317 L 0.19892577872464395,1.901085640839753 L 0.19892527313905467,1.9010847989916497 L 0.19892485256102638,1.9010839116139744 L 0.19892452104629818,1.9010829872639314 L 0.19892428179174954,1.9010820348552597 L 0.19892413710457196,1.9010810635722746 L 0.19892408838002007,1.9010800827813004 L 0.1989241360879569,1.9010791019403501 L 0.19892427976832291,1.9010781305079185 L 0.19892451803557235,1.9010771778517714 L 0.19892484859203455,1.9010762531586103 L 0.19892526825007084,1.9010753653454828 L 0.1989257729628138,1.901074522973793 L 0.19892635786319218,1.9010737341667416 L 0.1989270173108653,1.9010730065309926 L 0.7499829289321882,1.3500170949096697 L 0.7499836560671584,1.350016435872948 L 0.7499844442976699,1.3500158512813585 L 0.7499852860326318,1.3500153467648381 L 0.7499861731656765,1.3500149271821564 L 0.7499870971532275,1.3500145965741244 L 0.74998804909678,1.3500143581246775 L 0.7499890198285968,1.350014214130215 L 0.74999,1.3500141659774816 L 0.7499909801714034,1.350014214130215 L 0.7499919509032202,1.3500143581246775 L 0.7499929028467727,1.3500145965741244 L 0.7499938268343237,1.3500149271821567 L 0.7499947139673684,1.3500153467648381 L 0.7499955557023302,1.3500158512813587 L 0.7499963439328418,1.350016435872948 L 0.7499970710678119,1.3500170949096697 L 0.7499977301045336,1.35001782204464 L 0.7499983146961231,1.3500186102751515 L 0.7499988192126436,1.3500194520101134 L 0.7499992387953252,1.350020339143158 L 0.7499995694033573,1.3500212631307091 L 0.7499998078528041,1.3500222150742616 L 0.7499999518472668,1.3500231858060783 L 0.75,1.3500241659774816 L 0.75,1.8999998498812096 L 0.7500000114952398,1.9000000838721918 z M 0.7499970725701618,0.8899332973996611 L 0.7499977312839026,0.8899340244692997 L 0.7499983155814032,0.8899348125876173 L 0.7499988198386011,0.8899356541687067 L 0.7499992392018492,0.8899365411120633 L 0.7499995696346333,0.8899374648805554 L 0.7499998079564256,0.8899384165825964 L 0.7499999518732975,0.8899393870577305 L 0.75,0.8899403669648037 L 0.75,1.1499958451812278 L 0.7499999518472713,1.1499968253525847 L 0.7499998078528222,1.1499977960843568 L 0.7499995694033978,1.1499987480278668 L 0.7499992387953963,1.1499996720153796 L 0.7499988192127531,1.150000559148391 L 0.7499983146962781,1.150001400883326 L 0.7499977301047401,1.150002189113818 L 0.7499970710680749,1.1500029162487766 L 0.09877117902019279,1.8012288567413242 L 0.09877045188523512,1.8012295157780829 L 0.09876966365473162,1.8012301003697089 L 0.09876882191977322,1.8012306048862654 L 0.09876793478672795,1.8012310244689818 L 0.09876701079917226,1.8012313550770471 L 0.0987660588556117,1.8012315935265248 L 0.09876508812378343,1.8012317375210163 L 0.0987641079523659,1.8012317856737754 L 0.09876312778094598,1.801231737521065 L 0.09876215704911057,1.8012315935266217 L 0.09876120510553818,1.8012313550771912 L 0.0987602811179661,1.8012310244691716 L 0.09875939398490001,1.8012306048864992 L 0.09875855224991659,1.8012301003699844 L 0.0987577640193841,1.8012295157783975 L 0.09875703688439373,1.8012288567416748 L 0.09875637784765312,1.8012281296067008 L 0.09875579325604655,1.8012273413761828 L 0.09875528873951096,1.801226499641212 L 0.09875486915681653,1.8012256125081563 L 0.09875453854877408,1.8012246885205925 L 0.09875430009931993,1.8012237365770258 L 0.09875415610485272,1.801222765845194 L 0.09875410795211792,1.8012217856737753 L 0.09875410795211792,0.23843766209899958 L 0.09875415611352965,0.23843668183948644 L 0.09875430013386054,0.23843571102210967 L 0.0987545386258661,0.2384347589980564 L 0.09875486929232398,0.2384338349374911 L 0.09875528894816152,0.23843294774122603 L 0.09875579355113517,0.23843210595498615 L 0.09875637824076663,0.23843131768709414 L 0.09875703738516031,0.23843059053036894 L 0.09875776463525127,0.23842993148898942 L 0.0987585529859613,0.23842934691102824 L 0.09875939484367378,0.23842884242730536 L 0.09876028209937754,0.23842842289715047 L 0.0987612062067751,0.23842809236159643 L 0.0987621582646031,0.23842785400445504 L 0.09876312910237174,0.2384277101216496 L 0.09876410936869752,0.2384276620990999 L 0.0987650896213784,0.23842771039937274 L 0.09876606041834378,0.23842785455722618 L 0.0987670124086032,0.23842809318409114 L 0.0987679364223177,0.23842842398144623 L 0.09876882355912626,0.23842884376295798 L 0.09876966527387669,0.23842934848517228 L 0.09877045345893484,0.2384299332864623 L 0.0987711805222797,0.2384305925338569 L 0.7499970725701618,0.8899332973996611 z" />
</svg>