<?xml version="1.0" standalone="no"?>
<!DOCTYPE svg PUBLIC "-//W3C//DTD SVG 1.1//EN" 
  "http://www.w3.org/Graphics/SVG/1.1/DTD/svg11.dtd">
<svg width="2.000000212390218m" height="1.999999735553072m" viewBox="0 0 2.000000212390218 1.999999735553072"
     xmlns="http://www.w3.org/2000/svg" version="1.1">
<desc>Outline to SVG export</desc>
	<path fill-rule="evenodd" fill="#000000" stroke="#555555" stroke-width="0" opacity="1" d="M 2.454860406277716e-07,1.7881389042984712e-07 L 2.6028302754234145e-08,1.8959520457222668e-07 L 1.7358499638977236e-07,3.5239887381035477e-07 L 2.0000000648335594,1.999999587996458 L 2.000000227637299,1.999999735553116 L 2.0000002384185205,1.9999995160952224 L 2.0000000000000586,1.0000000666723443 L 1.999999988504758,0.9999998326813173 L 1.9999997545137216,0.999999821186212 L 1.9000003411093433,0.999999880790564 L 1.900000106904057,0.9999998923084703 L 1.9000000957694714,1.00000012653229 L 1.9012460312731456,1.7615622296211275 L 1.9012459846583356,1.7615632105484542 L 1.901245842054068,1.761564182173579 L 1.901245604835606,1.7615651351262336 L 1.9012452752906635,1.7615660602162246 L 1.9012448565973439,1.7615669485220644 L 1.9012443527934892,1.7615677914770078 L 1.9012437687377401,1.7615685809516703 L 1.9012431100626803,1.7615693093324265 L 1.9012423831205147,1.7615699695948352 L 1.901241594921811,1.7615705553713832 L 1.9012407530678892,1.7615710610128916 L 1.901239865677516,1.7615714816429975 L 1.9012389413086073,1.7615718132051805 L 1.9012379888756972,1.7615720525018836 L 1.9012370175639661,1.7615721972253502 L 1.9012360367406607,1.7615722459798795 L 1.901235055864756,1.761572198295287 L 1.9012340843957347,1.761572054631439 L 1.90123313170236,1.761571816373817 L 1.9012322069723244,1.7615714858201572 L 1.9012313191236447,1.7615710661582902 L 1.901230476718657,1.761570561435399 L 1.9012296878814416,1.7615699765189876 L 1.901228960219477,1.7615693170499391 L 0.238430623348621,0.09877133779959199 L 0.23842996387942128,0.09877061013777548 L 0.23842937896284405,0.09876982130069327 L 0.23842887423977416,0.0987689788958219 L 0.23842845457771722,0.09876809104724102 L 0.23842812402385777,0.09876716631728552 L 0.2384278857660286,0.09876621362397105 L 0.23842774210196765,0.09876524215498945 L 0.23842769441715864,0.09876426127910354 L 0.23842774317146978,0.09876328045579542 L 0.23842788789471867,0.0987623091440402 L 0.23842812719120685,0.09876135671108438 L 0.2384284587531797,0.09876043234210893 L 0.23842887938308222,0.09875954495164826 L 0.2384293850243961,0.09875870309761917 L 0.2384299708007602,0.09875791489878903 L 0.23843063106299803,0.09875718795647914 L 0.2384313594435977,0.09875652928125823 L 0.2384321489181197,0.09875594522533312 L 0.23843299187294015,0.09875544142128859 L 0.23843388017867567,0.09875502272776723 L 0.23843480526858268,0.09875469318261314 L 0.23843575822117413,0.09875445596393125 L 0.23843672984625774,0.09875431335943799 L 0.2384377107735653,0.09875426674439877 L 0.9999997542583613,0.10000002343987584 L 0.9999999884822285,0.10000001230523015 L 1.0,0.09999977809989186 L 1.0,2.4548624607523436e-07 L 0.9999999885047579,1.1495244308875107e-08 L 0.9999997545137509,4.389636201575741e-14 L 2.454860406277716e-07,1.7881389042984712e-07 z" />
</svg>