<?xml version="1.0" standalone="no"?>
<!DOCTYPE svg PUBLIC "-//W3C//DTD SVG 1.1//EN" 
  "http://www.w3.org/Graphics/SVG/1.1/DTD/svg11.dtd">
<svg width="1.9999999739716987m" height="1.9999999739716967m" viewBox="0 0 1.9999999739716987 1.9999999739716967"
     xmlns="http://www.w3.org/2000/svg" version="1.1">
<desc>Outline to SVG export</desc>
	<path fill-rule="evenodd" fill="#000000" stroke="#555555" stroke-width="0" opacity="1" d="M 1.8573259569462126e-15,2.4548614471046995e-07 L 4.5594804250156885e-22,0.999999754513779 L 1.1495239782922888e-08,0.9999999885047602 L 2.454862210633882e-07,1.0 L 0.09999971849523565,1.0 L 0.09999995270058337,0.9999999884822274 L 0.0999999638352118,0.999999754258349 L 0.09875414753700142,0.238437710772559 L 0.09875419415196268,0.23843672984525993 L 0.09875433675637633,0.23843575822017693 L 0.0987545739749778,0.23843480526757801 L 0.09875490352005145,0.2384338801776553 L 0.09875532221349322,0.23843299187189573 L 0.09875582601745987,0.23843214891704292 L 0.0987564100733097,0.23843135944248037 L 0.09875706874845877,0.23843063106183215 L 0.09875779569070112,0.2384299707995381 L 0.09875858388946884,0.23842938502311042 L 0.09875942574344146,0.23842887938172616 L 0.09876031313385229,0.23842845875174695 L 0.09876123750278526,0.23842812718969178 L 0.09876218993570661,0.23842788789311634 L 0.0987631612474359,0.23842774316977605 L 0.0987641420707271,0.2384276944153702 L 0.09876512294660555,0.23842774210008214 L 0.0987660944155894,0.23842788576404453 L 0.09876704710891608,0.23842812402177466 L 0.09876797183889384,0.23842845457553566 L 0.09876885968750704,0.2384288742374957 L 0.0987697020924207,0.2384293789604713 L 0.09877049092955495,0.23842996387695792 L 0.09877121859143295,0.23843062334607165 L 1.7615693170492837,1.901228721803922 L 1.7615699765183974,1.9012294494658002 L 1.761570561434884,1.9012302383029345 L 1.7615710661578594,1.901231080707848 L 1.7615714858198195,1.9012319685564614 L 1.7615718163735805,1.901232893286439 L 1.7615720546313107,1.9012338459797657 L 1.761572198295273,1.9012348174487497 L 1.761572245979985,1.901235798324628 L 1.7615721972255791,1.9012367791479192 L 1.761572052502239,1.9012377504596485 L 1.7615718132056635,1.90123870289257 L 1.7615714816436083,1.9012396272615029 L 1.761571061013629,1.9012405146519138 L 1.7615705553722447,1.9012413565058863 L 1.7615699695958171,1.9012421447046541 L 1.761569309333523,1.9012428716468963 L 1.761568580952875,1.9012435303220454 L 1.7615677914783123,1.9012441143778953 L 1.7615669485234595,1.9012446181818619 L 1.7615660602177,1.9012450368753038 L 1.7615651351277772,1.9012453664203774 L 1.7615641821751782,1.9012456036389789 L 1.7615632105500953,1.9012457462433925 L 1.7615622296227962,1.9012457928583537 L 1.0000001861370078,1.8999999765601434 L 0.999999951913128,1.899999987694772 L 0.9999999403953552,1.9000002219001217 L 0.9999999403953552,1.9999997545137778 L 0.999999951890595,1.9999999885047601 L 1.000000185881577,2.0 L 1.99999975451327,2.0 L 1.9999999739716987,1.9999999892187204 L 1.9999998264157237,1.9999998264157584 L 1.7358499889460242e-07,1.7358499889460628e-07 L 1.0781275894144565e-08,2.6028303251825662e-08 L 1.8573259569462126e-15,2.4548614471046995e-07 z" />
</svg>