<?xml version="1.0" standalone="no"?>
<!DOCTYPE svg PUBLIC "-//W3C//DTD SVG 1.1//EN" 
  "http://www.w3.org/Graphics/SVG/1.1/DTD/svg11.dtd">
<svg width="2.000000169657818m" height="1.9999999587809019m" viewBox="0 0 2.000000169657818 1.9999999587809019"
     xmlns="http://www.w3.org/2000/svg" version="1.1">
<desc>Outline to SVG export</desc>
	<path fill-rule="evenodd" fill="#000000" stroke="#555555" stroke-width="0" opacity="1" d="M 0.4999998472143694,2.4919985099286165e-07 L 0.4999999947710597,4.120035248624001e-07 L 1.9999998264150038,1.499999826415052 L 1.9999999892187195,1.4999999739716974 L 1.999999999999961,1.4999997545137778 L 1.99999976158146,2.454862194368383e-07 L 1.999999750086183,1.149524160936223e-08 L 1.9999995160952,3.9018985541260736e-14 L 0.5000000666722847,2.3841854008257725e-07 L 0.4999998472143694,2.4919985099286165e-07 z" />
	<path fill-rule="evenodd" fill="#000000" stroke="#555555" stroke-width="0" opacity="1" d="M 4.121905941793152e-08,3.255649082327688e-07 L 1.7358498933389283e-07,4.7160816665173086e-07 L 2.000000064833585,1.9999998264150525 L 2.0000002108768773,1.999999958780941 L 2.0000001444750444,1.999999773200319 L 1.9012461648053587,1.7615866544882977 L 1.9012460607368127,1.7615864344539125 L 1.9012458972768076,1.7615862541036396 L 0.23841368629178808,0.09875451995567874 L 0.23841350594144461,0.09875435649570584 L 0.23841328590699498,0.09875425242721886 L 2.2679970878146587e-07,3.919666801513716e-07 L 4.121905941793152e-08,3.255649082327688e-07 z" />
</svg>