<?xml version="1.0" standalone="no"?>
<!DOCTYPE svg PUBLIC "-//W3C//DTD SVG 1.1//EN" 
  "http://www.w3.org/Graphics/SVG/1.1/DTD/svg11.dtd">
<svg width="1.9999999312392278m" height="1.9999999587809367m" viewBox="0 0 1.9999999312392278 1.9999999587809367"
     xmlns="http://www.w3.org/2000/svg" version="1.1">
<desc>Outline to SVG export</desc>
	<path fill-rule="evenodd" fill="#000000" stroke="#555555" stroke-width="0" opacity="1" d="M 2.7541697309059832e-08,4.121906329990441e-08 L 9.39435073824403e-08,2.2679969527850276e-07 L 0.0987540140086082,0.23841328590705566 L 0.09875411807712188,0.23841350594144525 L 0.09875428153709337,0.23841368629173204 L 1.7615862541036784,1.901245658858317 L 1.7615864344539063,1.9012458223182402 L 1.7615866544882175,1.9012459263867463 L 1.9999997732003094,1.9999999060564613 L 1.9999999587809252,1.9999999724582913 L 1.9999998264150232,1.9999998264150234 L 1.7358497106278555e-07,1.735849710627864e-07 L 2.7541697309059832e-08,4.121906329990441e-08 z" />
	<path fill-rule="evenodd" fill="#000000" stroke="#555555" stroke-width="0" opacity="1" d="M 1.299905657189143e-07,0.5000000260283031 L 1.1920928955078125e-07,0.500000245486221 L 1.1920928955078125e-07,1.999999754513779 L 1.3070452932622292e-07,1.9999999885047601 L 3.6469551117948766e-07,2.0 L 1.499999873723068,2.0 L 1.5000000931809867,1.9999999892187237 L 1.4999999456243205,1.999999826415031 L 2.927942613202583e-07,0.5000001735849717 L 1.299905657189143e-07,0.5000000260283031 z" />
</svg>