<?xml version="1.0" standalone="no"?>
<!DOCTYPE svg PUBLIC "-//W3C//DTD SVG 1.1//EN" 
  "http://www.w3.org/Graphics/SVG/1.1/DTD/svg11.dtd">
<svg width="2.000000169657818m" height="1.9999999587808992m" viewBox="0 0 2.000000169657818 1.9999999587808992"
     xmlns="http://www.w3.org/2000/svg" version="1.1">
<desc>Outline to SVG export</desc>
	<path fill-rule="evenodd" fill="#000000" stroke="#555555" stroke-width="0" opacity="1" d="M 1.2999999783445892,1.299905612733811e-07 L 1.3000001259012863,2.927942325333997e-07 L 1.9999998264149852,0.6999997548894705 L 1.9999999892187137,0.6999999024461175 L 1.9999999999999163,0.69999968298819 L 1.9999997615815046,2.4548619278229725e-07 L 1.9999997500861875,1.1495239411487757e-08 L 1.9999995160952264,4.180606115941079e-14 L 1.3000001978025053,1.1920924774471556e-07 L 1.2999999783445892,1.299905612733811e-07 z" />
	<path fill-rule="evenodd" fill="#000000" stroke="#555555" stroke-width="0" opacity="1" d="M 0.49999984721436774,2.491998496761921e-07 L 0.49999999477105733,4.12003522466098e-07 L 1.9999998264150156,1.499999826415064 L 1.999999989218725,1.4999999739717047 L 2.0,1.4999997545137962 L 2.0,1.2000001739606825 L 1.999999988180546,1.1999999333702058 L 1.999999826414978,1.1999997548894474 L 0.8000001259012945,3.5239890157976265e-07 L 0.7999999474205084,1.9063338811474182e-07 L 0.7999997068300397,1.7881398309988522e-07 L 0.5000000666722806,2.3841853032785504e-07 L 0.49999984721436774,2.491998496761921e-07 z" />
	<path fill-rule="evenodd" fill="#000000" stroke="#555555" stroke-width="0" opacity="1" d="M 4.121905941793152e-08,3.255649082327688e-07 L 1.7358498933389283e-07,4.7160816665173086e-07 L 2.000000064833585,1.9999998264150525 L 2.0000002108768773,1.999999958780941 L 2.0000001444750444,1.999999773200319 L 1.9012461648053587,1.7615866544882977 L 1.9012460607368127,1.7615864344539125 L 1.9012458972768076,1.7615862541036396 L 0.23841368629178808,0.09875451995567874 L 0.23841350594144461,0.09875435649570584 L 0.23841328590699498,0.09875425242721886 L 2.2679970878146587e-07,3.919666801513716e-07 L 4.121905941793152e-08,3.255649082327688e-07 z" />
</svg>