<?xml version="1.0" standalone="no"?>
<!DOCTYPE svg PUBLIC "-//W3C//DTD SVG 1.1//EN" 
  "http://www.w3.org/Graphics/SVG/1.1/DTD/svg11.dtd">
<svg width="1.9999999587808834m" height="1.9999999587809367m" viewBox="0 0 1.9999999587808834 1.9999999587809367"
     xmlns="http://www.w3.org/2000/svg" version="1.1">
<desc>Outline to SVG export</desc>
	<path fill-rule="evenodd" fill="#000000" stroke="#555555" stroke-width="0" opacity="1" d="M 2.7541697309059832e-08,4.121906329990441e-08 L 9.39435073824403e-08,2.2679969527850276e-07 L 0.0987540140086082,0.23841328590705566 L 0.09875411807712188,0.23841350594144525 L 0.09875428153709337,0.23841368629173204 L 1.7615862541036784,1.901245658858317 L 1.7615864344539063,1.9012458223182402 L 1.7615866544882175,1.9012459263867463 L 1.9999997732003094,1.9999999060564613 L 1.9999999587809252,1.9999999724582913 L 1.9999998264150232,1.9999998264150234 L 1.7358497106278555e-07,1.735849710627864e-07 L 2.7541697309059832e-08,4.121906329990441e-08 z" />
	<path fill-rule="evenodd" fill="#000000" stroke="#555555" stroke-width="0" opacity="1" d="M 1.181946500859988e-08,0.8000000070251488 L 1.7358506960340005e-07,0.80000018550599 L 1.1999998740987468,1.9999998264150396 L 1.2000000525794923,1.9999999881805501 L 1.20000029316993,2.0 L 1.499999873723068,2.0 L 1.5000000931809867,1.9999999892187237 L 1.4999999456243205,1.999999826415031 L 2.927942313005186e-07,0.5000001735849418 L 1.2999055256891405e-07,0.500000026028286 L 1.1920919200334156e-07,0.5000002454861796 L 9.754750859204245e-14,0.7999997664345759 L 1.181946500859988e-08,0.8000000070251488 z" />
	<path fill-rule="evenodd" fill="#000000" stroke="#555555" stroke-width="0" opacity="1" d="M 1.0781282099049404e-08,1.299999978344597 L 4.18060552367976e-14,1.3000001978025275 L 1.1920924774473433e-07,1.9999997545138055 L 1.3070452504657437e-07,1.9999999885047626 L 3.646954822014597e-07,2.0 L 0.6999997425928542,2.0 L 0.6999999620507702,1.9999999892187241 L 0.6999998144941105,1.9999998264150247 L 1.735849788430122e-07,1.300000125901278 L 1.0781282099049404e-08,1.299999978344597 z" />
</svg>