<?xml version="1.0" standalone="no"?>
<!DOCTYPE svg PUBLIC "-//W3C//DTD SVG 1.1//EN" 
  "http://www.w3.org/Graphics/SVG/1.1/DTD/svg11.dtd">
<svg width="2.000000169657818m" height="1.9999999587809043m" viewBox="0 0 2.000000169657818 1.9999999587809043"
     xmlns="http://www.w3.org/2000/svg" version="1.1">
<desc>Outline to SVG export</desc>
	<path fill-rule="evenodd" fill="#000000" stroke="#555555" stroke-width="0" opacity="1" d="M 1.2000000591789572,1.3070452762310548e-07 L 1.2000000476837525,3.6469550914195366e-07 L 1.2000001668929687,0.7999998260393547 L 1.2000001783882435,0.8000000600303322 L 1.2000004123792278,0.8000000715255372 L 1.9999997545138013,0.7999999523163207 L 1.9999999885047626,0.7999999408210481 L 2.0,0.7999997068300903 L 2.0,2.4548624133796374e-07 L 1.9999999885047584,1.1495243543036098e-08 L 1.9999997545137558,3.6580303147216247e-14 L 1.200000293169937,1.1920925297048156e-07 L 1.2000000591789572,1.3070452762310548e-07 z" />
	<path fill-rule="evenodd" fill="#000000" stroke="#555555" stroke-width="0" opacity="1" d="M 4.121905941793152e-08,3.255649082327688e-07 L 1.7358498933389283e-07,4.7160816665173086e-07 L 2.000000064833585,1.9999998264150525 L 2.0000002108768773,1.999999958780941 L 2.0000001444750444,1.999999773200319 L 1.9012461648053587,1.7615866544882977 L 1.9012460607368127,1.7615864344539125 L 1.9012458972768076,1.7615862541036396 L 0.23841368629178808,0.09875451995567874 L 0.23841350594144461,0.09875435649570584 L 0.23841328590699498,0.09875425242721886 L 2.2679970878146587e-07,3.919666801513716e-07 L 4.121905941793152e-08,3.255649082327688e-07 z" />
</svg>