<?xml version="1.0" standalone="no"?>
<!DOCTYPE svg PUBLIC "-//W3C//DTD SVG 1.1//EN" 
  "http://www.w3.org/Graphics/SVG/1.1/DTD/svg11.dtd">
<svg width="1.9999999587809252m" height="1.9999999587809367m" viewBox="0 0 1.9999999587809252 1.9999999587809367"
     xmlns="http://www.w3.org/2000/svg" version="1.1">
<desc>Outline to SVG export</desc>
	<path fill-rule="evenodd" fill="#000000" stroke="#555555" stroke-width="0" opacity="1" d="M 2.7541697309059832e-08,4.121906329990441e-08 L 9.39435073824403e-08,2.2679969527850276e-07 L 0.0987540140086082,0.23841328590705566 L 0.09875411807712188,0.23841350594144525 L 0.09875428153709337,0.23841368629173204 L 1.7615862541036784,1.901245658858317 L 1.7615864344539063,1.9012458223182402 L 1.7615866544882175,1.9012459263867463 L 1.9999997732003094,1.9999999060564613 L 1.9999999587809252,1.9999999724582913 L 1.9999998264150232,1.9999998264150234 L 1.7358497106278555e-07,1.735849710627864e-07 L 2.7541697309059832e-08,4.121906329990441e-08 z" />
	<path fill-rule="evenodd" fill="#000000" stroke="#555555" stroke-width="0" opacity="1" d="M 1.1495239775441668e-08,1.9999999885047601 L 2.454862216287064e-07,2.0 L 0.7999997068300625,2.0 L 0.7999999408210443,1.9999999885047601 L 0.7999999523162842,1.9999997545137778 L 0.7999999523162842,1.2000002931699378 L 0.7999999408210444,1.2000000591789557 L 0.7999997068300625,1.2000000476837158 L 2.4548622162870794e-07,1.2000000476837158 L 1.1495239777856282e-08,1.2000000591789557 L 0.0,1.200000293169937 L 0.0,1.999999754513779 L 1.1495239775441668e-08,1.9999999885047601 z" />
</svg>