<?xml version="1.0" standalone="no"?>
<!DOCTYPE svg PUBLIC "-//W3C//DTD SVG 1.1//EN" 
  "http://www.w3.org/Graphics/SVG/1.1/DTD/svg11.dtd">
<svg width="2.000000169657818m" height="1.9999999425242152m" viewBox="0 0 2.000000169657818 1.9999999425242152"
     xmlns="http://www.w3.org/2000/svg" version="1.1">
<desc>Outline to SVG export</desc>
	<path fill-rule="evenodd" fill="#000000" stroke="#555555" stroke-width="0" opacity="1" d="M 1.0000000162567273,0.5000001192092866 L 1.0000001735850268,0.5000002927942335 L 1.4999999456242825,0.9999998264150757 L 1.5000001192092862,0.9999999837432775 L 1.5000002927942233,0.9999998264150041 L 1.9999998264150736,0.5000001139803439 L 1.9999999837432794,0.49999994039535717 L 1.9999998264150325,0.49999976681040864 L 1.5000001735849886,1.7358496800380388e-07 L 1.5000000000000013,1.625672570505402e-08 L 1.4999998264150423,1.735849990548555e-07 L 1.0000001735849635,0.4999999456242847 L 1.0000000162567273,0.5000001192092866 z" />
	<path fill-rule="evenodd" fill="#000000" stroke="#555555" stroke-width="0" opacity="1" d="M 4.121905941793152e-08,3.255649082327688e-07 L 1.7358498933389283e-07,4.7160816665173086e-07 L 2.000000064833585,1.9999998264150525 L 2.0000002108768773,1.999999958780941 L 2.0000001444750444,1.999999773200319 L 1.9012461648053587,1.7615866544882977 L 1.9012460607368127,1.7615864344539125 L 1.9012458972768076,1.7615862541036396 L 0.23841368629178808,0.09875451995567874 L 0.23841350594144461,0.09875435649570584 L 0.23841328590699498,0.09875425242721886 L 2.2679970878146587e-07,3.919666801513716e-07 L 4.121905941793152e-08,3.255649082327688e-07 z" />
</svg>