<?xml version="1.0" standalone="no"?>
<!DOCTYPE svg PUBLIC "-//W3C//DTD SVG 1.1//EN" 
  "http://www.w3.org/Graphics/SVG/1.1/DTD/svg11.dtd">
<svg width="1.9999999425242012m" height="1.9999999425242125m" viewBox="0 0 1.9999999425242012 1.9999999425242125"
     xmlns="http://www.w3.org/2000/svg" version="1.1">
<desc>Outline to SVG export</desc>
	<path fill-rule="evenodd" fill="#000000" stroke="#555555" stroke-width="0" opacity="1" d="M 2.7541697309059832e-08,4.121906329990441e-08 L 9.39435073824403e-08,2.2679969527850276e-07 L 0.0987540140086082,0.23841328590705566 L 0.09875411807712188,0.23841350594144525 L 0.09875428153709337,0.23841368629173204 L 1.7615862541036784,1.901245658858317 L 1.7615864344539063,1.9012458223182402 L 1.7615866544882175,1.9012459263867463 L 1.9999997732003094,1.9999999060564613 L 1.9999999587809252,1.9999999724582913 L 1.9999998264150232,1.9999998264150234 L 1.7358497106278555e-07,1.735849710627864e-07 L 2.7541697309059832e-08,4.121906329990441e-08 z" />
	<path fill-rule="evenodd" fill="#000000" stroke="#555555" stroke-width="0" opacity="1" d="M 1.6256723930847253e-08,1.5 L 1.7358497070090677e-07,1.5000001735849706 L 0.49999982641503016,1.9999998264150298 L 0.49999999999999983,1.9999999837432758 L 0.5000001735849711,1.9999998264150287 L 0.9999998264150295,1.5000001735849706 L 0.999999983743276,1.5 L 0.9999998264150295,1.4999998264150294 L 0.500000173584971,1.000000173584971 L 0.5,1.0000000162567242 L 0.4999998264150286,1.0000001735849713 L 1.7358497070079604e-07,1.4999998264150294 L 1.6256723930847253e-08,1.5 z" />
</svg>