<?xml version="1.0" standalone="no"?>
<!DOCTYPE svg PUBLIC "-//W3C//DTD SVG 1.1//EN" 
  "http://www.w3.org/Graphics/SVG/1.1/DTD/svg11.dtd">
<svg width="2.0000001795805553m" height="1.999999958780912m" viewBox="0 0 2.0000001795805553 1.999999958780912"
     xmlns="http://www.w3.org/2000/svg" version="1.1">
<desc>Outline to SVG export</desc>
	<path fill-rule="evenodd" fill="#000000" stroke="#555555" stroke-width="0" opacity="1" d="M 0.999999958014324,1.3009840605215592e-07 L 1.000000048729823,3.35878070050278e-07 L 1.5000001307603603,0.9999997846837162 L 1.5000002384185758,0.9999999763472297 L 1.5000003460767357,0.9999997846836866 L 2.0000001300841737,2.166688112289274e-07 L 2.0000002207996146,1.0889120239230712e-08 L 1.999999996175491,2.8877617826980146e-14 L 1.0000001826384493,1.1920926067316273e-07 L 0.999999958014324,1.3009840605215592e-07 z" />
	<path fill-rule="evenodd" fill="#000000" stroke="#555555" stroke-width="0" opacity="1" d="M 4.121905941793152e-08,3.255649082327688e-07 L 1.7358498933389283e-07,4.7160816665173086e-07 L 2.000000064833585,1.9999998264150525 L 2.0000002108768773,1.999999958780941 L 2.0000001444750444,1.999999773200319 L 1.9012461648053587,1.7615866544882977 L 1.9012460607368127,1.7615864344539125 L 1.9012458972768076,1.7615862541036396 L 0.23841368629178808,0.09875451995567874 L 0.23841350594144461,0.09875435649570584 L 0.23841328590699498,0.09875425242721886 L 2.2679970878146587e-07,3.919666801513716e-07 L 4.121905941793152e-08,3.255649082327688e-07 z" />
</svg>