<?xml version="1.0" standalone="no"?>
<!DOCTYPE svg PUBLIC "-//W3C//DTD SVG 1.1//EN" 
  "http://www.w3.org/Graphics/SVG/1.1/DTD/svg11.dtd">
<svg width="2.0000001795805393m" height="1.9999999587809367m" viewBox="0 0 2.0000001795805393 1.9999999587809367"
     xmlns="http://www.w3.org/2000/svg" version="1.1">
<desc>Outline to SVG export</desc>
	<path fill-rule="evenodd" fill="#000000" stroke="#555555" stroke-width="0" opacity="1" d="M 2.6596027641062233e-07,4.121906329990439e-08 L 3.3236208648400277e-07,2.2679969527850276e-07 L 0.0987542524271873,0.23841328590705566 L 0.09875435649570098,0.23841350594144525 L 0.09875451995567247,0.23841368629173204 L 1.7615864925222575,1.901245658858317 L 1.7615866728724854,1.9012458223182402 L 1.7615868929067966,1.9012459263867463 L 2.0000000116188885,1.9999999060564613 L 2.0000001971995043,1.9999999724582913 L 2.0000000648336003,1.9999998264150212 L 4.1200355016434805e-07,1.7358497106278643e-07 L 2.6596027641062233e-07,4.121906329990439e-08 z" />
	<path fill-rule="evenodd" fill="#000000" stroke="#555555" stroke-width="0" opacity="1" d="M 1.7618964796590172e-08,1.999999989110882 L 2.422430835672712e-07,2.0 L 0.9999999961754955,2.0 L 1.0000002207996144,1.9999999891108822 L 1.0000001300841574,1.9999997833312082 L 0.5000002268674727,1.000000215316315 L 0.5000001192092896,1.0000000236527744 L 0.500000011551107,1.000000215316314 L 1.0833442192932184e-07,1.9999997833312078 L 1.7618964796590172e-08,1.999999989110882 z" />
</svg>