<?xml version="1.0" standalone="no"?>
<!DOCTYPE svg PUBLIC "-//W3C//DTD SVG 1.1//EN" 
  "http://www.w3.org/Graphics/SVG/1.1/DTD/svg11.dtd">
<svg width="2.0000001897973374m" height="1.999999951378686m" viewBox="0 0 2.0000001897973374 1.999999951378686"
     xmlns="http://www.w3.org/2000/svg" version="1.1">
<desc>Outline to SVG export</desc>
	<path fill-rule="evenodd" fill="#000000" stroke="#555555" stroke-width="0" opacity="1" d="M 4.862121252140603e-08,3.076945749826502e-07 L 2.267997220955978e-07,3.9196668566626217e-07 L 0.2384132859070861,0.0987542524272566 L 0.23841351508241476,0.09875433442744548 L 0.23841375819292845,0.09875434637066183 L 1.9012358324432372,0.09875410795355173 L 1.9012368126146475,0.09875415610614448 L 1.9012377833464849,0.09875430010046798 L 1.9012387352900715,0.09875453854977821 L 1.90123965927767,0.09875486915767794 L 1.9012405464107747,0.09875528874023237 L 1.901241388145809,0.09875579325663214 L 1.9012421763764042,0.09875637784810852 L 1.901242903511469,0.09875703688472603 L 1.901243562548295,0.09875776401960176 L 1.9012441471399975,0.09875855225002939 L 1.9012446516566386,0.09875939398491898 L 1.9012450712394473,0.09876028111790343 L 1.9012454018476121,0.09876120510540712 L 1.9012456402971953,0.09876215704892531 L 1.9012457842917971,0.09876312778072154 L 1.901245832444671,0.09876410795211792 L 1.901246070861781,1.7615861822023968 L 1.9012460828050701,1.761586425312935 L 1.9012461648053467,1.7615866544882692 L 2.0000001444750426,1.9999997732003143 L 2.000000228747215,1.9999999513787987 L 2.00000023841855,1.9999997545137755 L 2.0000000000000293,2.45486176392201e-07 L 1.9999999885047655,1.1495234077367179e-08 L 1.9999997545169266,1.1284556204406933e-13 L 2.454862276289472e-07,2.98023187296664e-07 L 4.862121252140603e-08,3.076945749826502e-07 z" />
	<path fill-rule="evenodd" fill="#000000" stroke="#555555" stroke-width="0" opacity="1" d="M 1.0000001354660168,0.9000001549720725 L 1.000000292794327,0.9000003285570105 L 1.1000000263263772,1.0000000024845888 L 1.1000001091759652,1.0000000743396258 L 1.1000001372175676,1.000000099170011 L 1.1000001455805708,1.0000001053225662 L 1.1000002614290736,0.9999999959623985 L 1.1000003141413488,0.9999999481190008 L 1.7999997787314121,0.3000001259012448 L 1.7999999404968412,0.29999994742051217 L 1.7999999523162842,0.2999997068301438 L 1.7999999523162842,0.20000017396074032 L 1.7999999408210363,0.1999999399696811 L 1.7999997068299698,0.1999999284745726 L 1.7000003053225803,0.19999998807891747 L 1.700000048384916,0.20000000132729054 L 1.70000004497757,0.20000000338594093 L 1.699999955839685,0.20000008724290816 L 1.6999998765935067,0.20000015916933853 L 1.0000002927942444,0.8999999813870624 L 1.0000001354660168,0.9000001549720725 z" />
</svg>