<?xml version="1.0" standalone="no"?>
<!DOCTYPE svg PUBLIC "-//W3C//DTD SVG 1.1//EN" 
  "http://www.w3.org/Graphics/SVG/1.1/DTD/svg11.dtd">
<svg width="1.9999999513788145m" height="1.9999999513787976m" viewBox="0 0 1.9999999513788145 1.9999999513787976"
     xmlns="http://www.w3.org/2000/svg" version="1.1">
<desc>Outline to SVG export</desc>
	<path fill-rule="evenodd" fill="#000000" stroke="#555555" stroke-width="0" opacity="1" d="M 1.1495242966468228e-08,1.9999999885047632 L 2.4548618829915907e-07,2.0 L 1.9999997545137902,2.0 L 1.9999999513788145,1.999999990328642 L 1.9999997732003245,1.9999999060564677 L 1.7615866544883523,1.901245926386802 L 1.7615864253129352,1.9012458443865003 L 1.7615861822023047,1.9012458324432373 L 0.09876410795211792,1.9012458324432373 L 0.09876312778071462,1.901245784290504 L 0.09876215704889775,1.9012456402960414 L 0.09876120510534538,1.9012454018465945 L 0.09876028111779427,1.9012450712385625 L 0.09875939398474966,1.9012446516558807 L 0.09875855224978772,1.9012441471393602 L 0.09875776401927627,1.9012435625477708 L 0.09875703688430605,1.9012429035110492 L 0.09875637784758429,1.901242176376079 L 0.09875579325599489,1.9012413881455674 L 0.09875528873947444,1.9012405464106055 L 0.09875486915679281,1.901239659277561 L 0.0987545385487606,1.9012387352900098 L 0.09875430009931388,1.9012377833464573 L 0.09875415610485119,1.9012368126146406 L 0.09875410795211792,1.9012358324432372 L 0.09875410795211792,0.23841375819297225 L 0.0987540960088625,0.23841351508241773 L 0.09875401400861238,0.23841328590706573 L 9.394350798564917e-08,2.2679969673477787e-07 L 9.671358264541864e-09,4.8621202466639054e-08 L 0.0,2.4548622187738813e-07 L 0.0,1.9999997545137473 L 1.1495242966468228e-08,1.9999999885047632 z" />
	<path fill-rule="evenodd" fill="#000000" stroke="#555555" stroke-width="0" opacity="1" d="M 0.19999999957432726,1.8000000600303039 L 0.20000023356547586,1.800000071525281 L 0.2999998156752103,1.7999999523165182 L 0.29999999740724415,1.7999999414605201 L 0.30000001066380527,1.799999939403943 L 0.30000001462718995,1.7999999370093458 L 0.30000010376587705,1.7999998531516375 L 0.30000018301116205,1.7999997812260364 L 0.9999998264149765,1.1000000782176065 L 0.9999999837432607,1.0999999046325737 L 0.999999826414864,1.0999997310476393 L 0.9000000928837354,1.0000001167254542 L 0.9000000100309548,1.0000000448676216 L 0.8999999819912413,1.0000000200389114 L 0.8999999736287048,1.000000013886703 L 0.8999998577796684,1.0000001232473386 L 0.8999998050679083,1.0000001710902484 L 0.20000016166402554,1.6999998740987465 L 0.19999999989852038,1.7000000525794918 L 0.19999998807907104,1.7000002931699232 L 0.19999998807907104,1.7999998260391663 L 0.19999999957432726,1.8000000600303039 z" />
</svg>