<?xml version="1.0" standalone="no"?>
<!DOCTYPE svg PUBLIC "-//W3C//DTD SVG 1.1//EN" 
  "http://www.w3.org/Graphics/SVG/1.1/DTD/svg11.dtd">
<svg width="2.0000001897973374m" height="1.999999951378686m" viewBox="0 0 2.0000001897973374 1.999999951378686"
     xmlns="http://www.w3.org/2000/svg" version="1.1">
<desc>Outline to SVG export</desc>
	<path fill-rule="evenodd" fill="#000000" stroke="#555555" stroke-width="0" opacity="1" d="M 4.862121252140603e-08,3.076945749826502e-07 L 2.267997220955978e-07,3.9196668566626217e-07 L 0.2384132859070861,0.0987542524272566 L 0.23841351508241476,0.09875433442744548 L 0.23841375819292845,0.09875434637066183 L 1.9012358324432372,0.09875410795355173 L 1.9012368126146475,0.09875415610614448 L 1.9012377833464849,0.09875430010046798 L 1.9012387352900715,0.09875453854977821 L 1.90123965927767,0.09875486915767794 L 1.9012405464107747,0.09875528874023237 L 1.901241388145809,0.09875579325663214 L 1.9012421763764042,0.09875637784810852 L 1.901242903511469,0.09875703688472603 L 1.901243562548295,0.09875776401960176 L 1.9012441471399975,0.09875855225002939 L 1.9012446516566386,0.09875939398491898 L 1.9012450712394473,0.09876028111790343 L 1.9012454018476121,0.09876120510540712 L 1.9012456402971953,0.09876215704892531 L 1.9012457842917971,0.09876312778072154 L 1.901245832444671,0.09876410795211792 L 1.901246070861781,1.7615861822023968 L 1.9012460828050701,1.761586425312935 L 1.9012461648053467,1.7615866544882692 L 2.0000001444750426,1.9999997732003143 L 2.000000228747215,1.9999999513787987 L 2.00000023841855,1.9999997545137755 L 2.0000000000000293,2.45486176392201e-07 L 1.9999999885047655,1.1495234077367179e-08 L 1.9999997545169266,1.1284556204406933e-13 L 2.454862276289472e-07,2.98023187296664e-07 L 4.862121252140603e-08,3.076945749826502e-07 z" />
	<path fill-rule="evenodd" fill="#000000" stroke="#555555" stroke-width="0" opacity="1" d="M 1.1000000353371,0.300000142625456 L 1.1000000238419068,0.30000037661644 L 1.1000001430510986,0.8999998498812279 L 1.1000001545463836,0.900000083872192 L 1.1000003885373544,0.9000000953674072 L 1.699999802197509,0.9000000357628113 L 1.7000000361884775,0.9000000242675495 L 1.7000000476837158,0.8999997902765834 L 1.7000000476837158,0.300000257407181 L 1.7000000361884733,0.3000000234161738 L 1.6999998021974634,0.30000001192097775 L 1.1000002693280788,0.3000001311301697 L 1.1000000353371,0.300000142625456 z" />
</svg>