<?xml version="1.0" standalone="no"?>
<!DOCTYPE svg PUBLIC "-//W3C//DTD SVG 1.1//EN" 
  "http://www.w3.org/Graphics/SVG/1.1/DTD/svg11.dtd">
<svg width="2.0000001897973374m" height="1.999999951378686m" viewBox="0 0 2.0000001897973374 1.999999951378686"
     xmlns="http://www.w3.org/2000/svg" version="1.1">
<desc>Outline to SVG export</desc>
	<path fill-rule="evenodd" fill="#000000" stroke="#555555" stroke-width="0" opacity="1" d="M 4.862121252140603e-08,3.076945749826502e-07 L 2.267997220955978e-07,3.9196668566626217e-07 L 0.2384132859070861,0.0987542524272566 L 0.23841351508241476,0.09875433442744548 L 0.23841375819292845,0.09875434637066183 L 1.9012358324432372,0.09875410795355173 L 1.9012368126146475,0.09875415610614448 L 1.9012377833464849,0.09875430010046798 L 1.9012387352900715,0.09875453854977821 L 1.90123965927767,0.09875486915767794 L 1.9012405464107747,0.09875528874023237 L 1.901241388145809,0.09875579325663214 L 1.9012421763764042,0.09875637784810852 L 1.901242903511469,0.09875703688472603 L 1.901243562548295,0.09875776401960176 L 1.9012441471399975,0.09875855225002939 L 1.9012446516566386,0.09875939398491898 L 1.9012450712394473,0.09876028111790343 L 1.9012454018476121,0.09876120510540712 L 1.9012456402971953,0.09876215704892531 L 1.9012457842917971,0.09876312778072154 L 1.901245832444671,0.09876410795211792 L 1.901246070861781,1.7615861822023968 L 1.9012460828050701,1.761586425312935 L 1.9012461648053467,1.7615866544882692 L 2.0000001444750426,1.9999997732003143 L 2.000000228747215,1.9999999513787987 L 2.00000023841855,1.9999997545137755 L 2.0000000000000293,2.45486176392201e-07 L 1.9999999885047655,1.1495234077367179e-08 L 1.9999997545169266,1.1284556204406933e-13 L 2.454862276289472e-07,2.98023187296664e-07 L 4.862121252140603e-08,3.076945749826502e-07 z" />
	<path fill-rule="evenodd" fill="#000000" stroke="#555555" stroke-width="0" opacity="1" d="M 0.5999999306608966,0.3000002015161383 L 0.6000000782176759,0.3000003643197639 L 0.799999897940612,0.4999999456245347 L 0.8000000764213396,0.5000001073898536 L 0.8000003170116368,0.5000001192092687 L 1.4999900000025543,0.5000000596054963 L 1.499990980173803,0.5000001077581304 L 1.4999919509054778,0.5000002517524638 L 1.4999929028489052,0.5000004902017527 L 1.4999938268363529,0.500000820809601 L 1.499994713969319,0.500001240392075 L 1.4999955557042315,0.500001744908368 L 1.4999963439347255,0.5000023294997135 L 1.4999970710697126,0.5000029885361792 L 1.4999977301064877,0.5000037156708856 L 1.4999983146981688,0.5000045039011306 L 1.4999988192148201,0.5000053456358282 L 1.499999238797672,0.5000062327686159 L 1.4999995694059136,0.5000071567559228 L 1.4999998078556078,0.5000081086992487 L 1.4999999518503544,0.5000090794308624 L 1.500000000003406,0.5000100596020903 L 1.5000002384184954,1.1999998021976044 L 1.5000002502380179,1.2000000427879416 L 1.500000412003472,1.2000002212686087 L 1.6999999933080285,1.3999998025731653 L 1.7000001561117257,1.3999999501298346 L 1.7000001668929787,1.3999997306719132 L 1.7000000476837425,0.3000002574071589 L 1.7000000361884764,0.3000000234161713 L 1.699999802197487,0.30000001192096887 L 0.6000001501188349,0.30000019073482337 L 0.5999999306608966,0.3000002015161383 z" />
</svg>