<?xml version="1.0" standalone="no"?>
<!DOCTYPE svg PUBLIC "-//W3C//DTD SVG 1.1//EN" 
  "http://www.w3.org/Graphics/SVG/1.1/DTD/svg11.dtd">
<svg width="2.0m" height="2.0m" viewBox="0 0 2.0 2.0"
     xmlns="http://www.w3.org/2000/svg" version="1.1">
<desc>Outline to SVG export</desc>
	<path fill-rule="evenodd" fill="#000000" stroke="#555555" stroke-width="0" opacity="1" d="M 1.1495242966468228e-08,1.9999999885047632 L 2.4548618829915907e-07,2.0 L 1.9999997545137782,2.0 L 1.9999999885047601,1.9999999885047601 L 2.0,1.9999997545137782 L 2.0,1.1000002693280795 L 1.9999999885047601,1.1000000353370978 L 1.9999997545137782,1.100000023841858 L 0.900009976158142,1.100000023841858 L 0.9000089959867388,1.0999999756891246 L 0.9000080252549219,1.099999831694662 L 0.9000070733113695,1.0999995932452151 L 0.9000061493238184,1.099999262637183 L 0.9000052621907738,1.0999988430545014 L 0.9000044204558119,1.0999983385379808 L 0.9000036322253004,1.0999977539463914 L 0.9000029050903302,1.0999970949096698 L 0.9000022460536085,1.0999963677746996 L 0.900001661462019,1.099995579544188 L 0.9000011569454985,1.099994737809226 L 0.9000007373628169,1.0999938506761815 L 0.9000004067547848,1.0999929266886304 L 0.900000168305338,1.099991974745078 L 0.9000000243108753,1.0999910040132612 L 0.8999999761581421,1.0999900238418578 L 0.8999999761581421,2.4548622219470504e-07 L 0.8999999646629023,1.1495239783201168e-08 L 0.8999997306719211,0.0 L 2.4548622108925987e-07,0.0 L 1.1495239785898614e-08,1.1495239785900463e-08 L 0.0,2.4548622108922435e-07 L 0.0,1.9999997545137473 L 1.1495242966468228e-08,1.9999999885047632 z M 0.09999995732536066,0.10000995732057832 L 0.10000000611337112,0.1000089776128946 L 0.10000015065265828,0.10000800739858323 L 0.10000038955245437,0.10000705601311827 L 0.10000072051404786,0.10000613261080121 L 0.10000114035290172,0.10000524607667763 L 0.10000164502929541,0.10000440494104458 L 0.10000222968719522,0.10000361729737152 L 0.10000288870097948,0.10000289072442428 L 0.1000036157295687,0.10000223221334163 L 0.10000440377743987,0.10000164810036603 L 0.10000524526193794,0.10000114400587587 L 0.10000613208623667,0.1000007247803057 L 0.10000705571724691,0.10000039445747505 L 0.10000800726772256,0.10000015621577468 L 0.1000089775817744,0.1000000123475839 L 0.10000995732296866,0.09999996423721313 L 0.799990011920929,0.09999996423721313 L 0.7999909920923323,0.10000001238994641 L 0.7999919628241492,0.1000001563844091 L 0.7999929147677015,0.10000039483385581 L 0.7999938387552527,0.10000072544188802 L 0.7999947258882972,0.10000114502456965 L 0.7999955676232592,0.1000016495410901 L 0.7999963558537706,0.1000022341326795 L 0.7999970829887408,0.10000289316940127 L 0.7999977420254626,0.10000362030437149 L 0.7999983266170521,0.10000440853488293 L 0.7999988311335725,0.10000525026984487 L 0.7999992507162541,0.10000613740288948 L 0.7999995813242863,0.10000706139044059 L 0.799999819773733,0.10000801333399296 L 0.7999999637681957,0.10000898406580984 L 0.800000011920929,0.10000996423721313 L 0.800000011920929,1.1999998021974938 L 0.8000000234161687,1.200000036188476 L 0.8000002574071506,1.2000000476837158 L 1.8999900953674316,1.2000000476837158 L 1.899991075538835,1.2000000958364492 L 1.8999920462706517,1.2000002398309118 L 1.899992998214204,1.2000004782803586 L 1.8999939222017552,1.2000008088883907 L 1.8999948093347998,1.2000012284710724 L 1.8999956510697618,1.200001732987593 L 1.8999964393002733,1.2000023175791823 L 1.8999971664352435,1.200002976615904 L 1.8999978254719652,1.2000037037508742 L 1.8999984100635545,1.2000044919813857 L 1.899998914580075,1.2000053337163477 L 1.8999993341627568,1.2000062208493922 L 1.8999996647707889,1.2000071448369434 L 1.8999999032202357,1.2000080967804958 L 1.9000000472146983,1.2000090675123125 L 1.9000000953674316,1.2000100476837159 L 1.9000000953674316,1.8999901022810144 L 1.9000000472570568,1.8999910820222499 L 1.899999903388854,1.8999920523363416 L 1.8999996651471336,1.899993003886855 L 1.8999993348242756,1.8999939275178994 L 1.8999989155986714,1.8999948143422276 L 1.8999984115041408,1.8999956558267497 L 1.8999978273911193,1.8999964438746384 L 1.8999971688799864,1.899997170903238 L 1.8999964423069853,1.8999978299170244 L 1.899995654663256,1.8999984145749178 L 1.8999948135275655,1.8999989192512963 L 1.8999939269933845,1.8999993390901255 L 1.8999930035910115,1.8999996700516852 L 1.8999920522054932,1.899999908951438 L 1.899991081991132,1.9000000534906731 L 1.899990102283404,1.9000001022786228 L 0.0987641217919074,1.9012458255176916 L 0.09876314072700641,1.901245777958672 L 0.09876216906020917,1.9012456343834812 L 0.09876121616567303,1.901245396177261 L 0.09876029123644996,1.9012450656381068 L 0.09875940319579646,1.9012446459548953 L 0.09875856061108654,1.901244141176521 L 0.09875777161115787,1.901243556172835 L 0.09875704380788884,1.9012428965876609 L 0.09875638422276295,1.9012421687843482 L 0.09875579921912903,1.9012413797843808 L 0.09875529444081078,1.9012405371996375 L 0.09875487475765807,1.901239649158956 L 0.09875454421856493,1.901238724229711 L 0.09875430601240795,1.9012377713351594 L 0.09875416243728148,1.9012367996683526 L 0.09875411487832686,1.9012358186034484 L 0.09999995732536066,0.10000995732057832 z" />
	<path fill-rule="evenodd" fill="#000000" stroke="#555555" stroke-width="0" opacity="1" d="M 0.19973183827746632,0.19034982877124074 L 0.19973182678222656,0.19035006276222177 L 0.19973182678222656,0.6903494525804905 L 0.19973183827746635,0.6903496865714717 L 0.19973207226844875,0.6903496980667114 L 0.6997314620867149,0.6903496980667114 L 0.6997316960776973,0.6903496865714717 L 0.699731707572937,0.6903494525804893 L 0.699731707572937,0.19035006276222316 L 0.6997316960776973,0.19034982877124076 L 0.6997314620867161,0.19034981727600098 L 0.19973207226844736,0.19034981727600098 L 0.19973183827746632,0.19034982877124074 z" />
	<path fill-rule="evenodd" fill="#000000" stroke="#555555" stroke-width="0" opacity="1" d="M 0.19973183827746632,1.2903498526130988 L 0.19973182678222656,1.2903500866040796 L 0.19973182678222656,1.7903494764223487 L 0.19973183827746632,1.7903497104133295 L 0.1997320722684482,1.7903497219085693 L 0.6997314620867153,1.7903497219085693 L 0.6997316960776973,1.7903497104133295 L 0.699731707572937,1.7903494764223473 L 0.699731707572937,1.290350086604081 L 0.6997316960776973,1.2903498526130988 L 0.6997314620867153,1.2903498411178589 L 0.1997320722684482,1.2903498411178589 L 0.19973183827746632,1.2903498526130988 z" />
	<path fill-rule="evenodd" fill="#000000" stroke="#555555" stroke-width="0" opacity="1" d="M 1.2997318621193243,1.7903497104133295 L 1.299732096110306,1.7903497219085693 L 1.7997314859285733,1.7903497219085693 L 1.799731719919555,1.7903497104133295 L 1.799731731414795,1.7903494764223478 L 1.799731731414795,1.2903500866040805 L 1.799731719919555,1.2903498526130988 L 1.7997314859285733,1.2903498411178589 L 1.299732096110306,1.2903498411178589 L 1.2997318621193243,1.2903498526130988 L 1.2997318506240845,1.2903500866040805 L 1.2997318506240845,1.7903494764223478 L 1.2997318621193243,1.7903497104133295 z" />
</svg>