<?xml version="1.0" standalone="no"?>
<!DOCTYPE svg PUBLIC "-//W3C//DTD SVG 1.1//EN" 
  "http://www.w3.org/Graphics/SVG/1.1/DTD/svg11.dtd">
<svg width="2.000000238418579m" height="1.9999999999998992m" viewBox="0 0 2.000000238418579 1.9999999999998992"
     xmlns="http://www.w3.org/2000/svg" version="1.1">
<desc>Outline to SVG export</desc>
	<path fill-rule="evenodd" fill="#000000" stroke="#555555" stroke-width="0" opacity="1" d="M 0.0,0.10000026225788153 L 4.1831001621026216e-14,0.10000026225958551 L 1.1920928955063725e-07,0.8000003099433073 L 1.1920928955077956e-07,0.8999999690905002 L 1.3070452933398235e-07,0.9000002030814814 L 3.64695511745486e-07,0.9000002145767212 L 0.10000008344487646,0.9000002145767212 L 0.10000008344596083,0.9000002145766945 L 1.0999901538883532,0.9000001062057124 L 1.0999911340597617,0.9000001543583394 L 1.0999921047915941,0.9000002983526968 L 1.0999930567351723,0.9000005368020404 L 1.0999939807227594,0.9000008674099724 L 1.0999948678558495,0.900001286992558 L 1.0999957095908661,0.9000017915089872 L 1.099996497821441,0.9000023761004912 L 1.0999972249564824,0.9000030351371341 L 1.0999978839932831,0.9000037622720329 L 1.099998468584958,0.9000045505024811 L 1.0999989731015696,0.9000053922373883 L 1.0999993926843474,0.9000062793703875 L 1.0999997232924796,0.9000072033579027 L 1.0999999617420295,0.9000081553014293 L 1.1000001057365976,0.9000091260332306 L 1.100000153889437,0.9000101062046286 L 1.100000262260437,1.9000000953674316 L 1.100000262260437,1.9999997545137782 L 1.1000002737556769,1.9999999885047601 L 1.1000005077466586,2.0 L 1.9999999929323573,2.0 L 2.0000002269233392,1.9999999885047601 L 2.000000238418579,1.9999997545137782 L 2.000000238418579,1.8999999761600248 L 2.0000002384185485,1.8999999761587696 L 2.0000000000000306,2.454861775443651e-07 L 1.9999999885047655,1.1495234009642464e-08 L 1.9999997545166714,1.0077570988254351e-13 L 0.09999990463962952,2.3841857910067476e-07 L 0.09999990463492117,2.3841869468677724e-07 L 2.4548612789499427e-07,2.9802307755596284e-07 L 1.1495231578698378e-08,3.0951844860395515e-07 L 0.0,5.435093517777571e-07 L 0.0,0.10000026225788153 z M 1.200000036188474,0.8000000830208176 L 1.1999998021974698,0.8000000715256136 L 0.10001002384263198,0.8000002503378825 L 0.10000904367117272,0.8000002021853039 L 0.1000080729392857,0.8000000581909849 L 0.10000712099565055,0.7999998197416696 L 0.10000619700800581,0.7999994891337556 L 0.10000530987485845,0.7999990695511783 L 0.10000446813978649,0.7999985650347474 L 0.10000367990915958,0.7999979804432326 L 0.10000295277407033,0.7999973214065702 L 0.10000229373722783,0.7999965942716442 L 0.10000170914551773,0.799995806041162 L 0.10000120462887836,0.7999949643062151 L 0.10000078504608122,0.7999940771731716 L 0.10000045443793841,0.7999931531856088 L 0.10000021598838738,0.7999922012420327 L 0.10000007199382789,0.7999912305101814 L 0.10000002384100641,0.799990250338734 L 0.09999996423806404,0.10001019574107596 L 0.10000001234834849,0.10000921599990696 L 0.10000015621644802,0.1000082456858714 L 0.10000039445805319,0.10000729413540228 L 0.10000072478078574,0.10000637050438826 L 0.10000114400625602,0.10000548368007492 L 0.10000164810064573,0.10000464219555102 L 0.10000223221352156,0.10000385414764258 L 0.10000289072450642,0.10000312711900457 L 0.1000036172973592,0.10000246810516002 L 0.10000440494094241,0.10000188344718863 L 0.10000524607649157,0.10000137877071243 L 0.10000613261053852,0.1000009589317656 L 0.10000705601278745,0.10000062797006937 L 0.10000800739819396,0.10000038907016154 L 0.1000089776124577,0.10000024453075461 L 0.10000995732010559,0.10000019574261737 L 1.9012358186034493,0.09875411487965233 L 1.9012367996683597,0.0987541624384771 L 1.9012377713351853,0.09875430601347494 L 1.9012387242297688,0.09875454421950582 L 1.9012396491590575,0.09875487475847652 L 1.9012405371997945,0.0987552944415117 L 1.9012413797846046,0.0987557992197184 L 1.9012421687846495,0.09875638422324791 L 1.9012428965880495,0.09875704380827746 L 1.9012435561733199,0.09875777161145918 L 1.9012441411771106,0.09875856061131041 L 1.901244645955596,0.09875940319595353 L 1.901245065638925,0.09876029123655146 L 1.9012453961782019,0.09876121616573079 L 1.901245634384548,0.0987621690602354 L 1.9012457779598677,0.09876314072701364 L 1.901245825519017,0.09876412179190833 L 1.90000034069588,1.8999901022820804 L 1.900000291908052,1.8999910819898973 L 1.9000001473689212,1.8999920522043574 L 1.8999999084692543,1.8999930035899826 L 1.8999995775077623,1.8999939269924677 L 1.8999991576689819,1.8999948135267632 L 1.899998652992634,1.8999956546625685 L 1.8999980683347533,1.89999644230641 L 1.8999974093209624,1.8999971688795185 L 1.8999966822923426,1.899997827390752 L 1.8999958942444188,1.899998411503865 L 1.8999950527598488,1.8999989155984764 L 1.8999941659354616,1.899999334824149 L 1.8999932423043489,1.8999996651470616 L 1.8999922907537603,1.8999999033888215 L 1.8999913204395886,1.9000000472570486 L 1.8999903406982708,1.9000000953674316 L 1.2000102861001276,1.9000000953674316 L 1.200009305928859,1.9000000472147116 L 1.200008335197173,1.8999999032202886 L 1.200007383253744,1.8999996647709068 L 1.2000064592663044,1.899999334162964 L 1.2000055721333567,1.8999989145803944 L 1.200004730398473,1.8999984100640062 L 1.2000039421680189,1.8999978254725667 L 1.200003215033082,1.8999971664360098 L 1.2000025559963674,1.8999964393012156 L 1.2000019714047572,1.8999956510708882 L 1.2000014668881867,1.8999948093361139 L 1.2000010473054246,1.899993922203257 L 1.2000007166972815,1.8999929982158892 L 1.2000004782476936,1.8999920462725117 L 1.20000033425306,1.899991075540857 L 1.2000002861001275,1.899990095369599 L 1.200000047683769,0.800000317011852 L 1.2000000363685168,0.8000000866856757 L 1.200000036188474,0.8000000830208176 z" />
	<path fill-rule="evenodd" fill="#000000" stroke="#555555" stroke-width="0" opacity="1" d="M 0.20000011878360036,0.20000011878360036 L 0.2000001072883606,0.2000003527745814 L 0.2000001072883606,0.6999998618021397 L 0.20000011878360038,0.7000000957931208 L 0.20000035277458278,0.7000001072883606 L 1.2999901907348632,0.7000001072883606 L 1.2999911709062666,0.7000001554410938 L 1.2999921416380833,0.7000002994355565 L 1.2999930935816357,0.7000005378850033 L 1.2999940175691869,0.7000008684930354 L 1.2999949047022314,0.700001288075717 L 1.2999957464371934,0.7000017925922375 L 1.299996534667705,0.700002377183827 L 1.2999972618026752,0.7000030362205487 L 1.2999979208393968,0.700003763355519 L 1.2999985054309862,0.7000045515860304 L 1.2999990099475067,0.7000053933209923 L 1.2999994295301884,0.7000062804540369 L 1.2999997601382205,0.700007204441588 L 1.2999999985876673,0.7000081563851404 L 1.30000014258213,0.7000091271169573 L 1.3000001907348633,0.7000101072883606 L 1.3000001907348633,1.7999999452486417 L 1.3000002022301032,1.8000001792396234 L 1.3000004362210849,1.8000001907348633 L 1.7999999410049974,1.8000001907348633 L 1.8000001806965042,1.800000178755767 L 1.8000001838669164,1.8000000898298836 L 1.8000001907348633,1.7999999482797653 L 1.8000001907348633,0.20000035277458222 L 1.8000001792396234,0.20000011878360036 L 1.7999999452486426,0.2000001072883606 L 0.2000003527745814,0.2000001072883606 L 0.20000011878360036,0.20000011878360036 z" />
</svg>