<?xml version="1.0" standalone="no"?>
<!DOCTYPE svg PUBLIC "-//W3C//DTD SVG 1.1//EN" 
  "http://www.w3.org/Graphics/SVG/1.1/DTD/svg11.dtd">
<svg width="2.000000238418579m" height="1.9999999999998992m" viewBox="0 0 2.000000238418579 1.9999999999998992"
     xmlns="http://www.w3.org/2000/svg" version="1.1">
<desc>Outline to SVG export</desc>
	<path fill-rule="evenodd" fill="#000000" stroke="#555555" stroke-width="0" opacity="1" d="M 0.0,0.10000026225788153 L 4.1831001621026216e-14,0.10000026225958551 L 1.1920928955063725e-07,0.8000003099433073 L 1.1920928955077956e-07,0.8999999690905002 L 1.3070452933398235e-07,0.9000002030814814 L 3.64695511745486e-07,0.9000002145767212 L 0.10000008344487646,0.9000002145767212 L 0.10000008344596083,0.9000002145766945 L 1.0999901538883532,0.9000001062057124 L 1.0999911340597617,0.9000001543583394 L 1.0999921047915941,0.9000002983526968 L 1.0999930567351723,0.9000005368020404 L 1.0999939807227594,0.9000008674099724 L 1.0999948678558495,0.900001286992558 L 1.0999957095908661,0.9000017915089872 L 1.099996497821441,0.9000023761004912 L 1.0999972249564824,0.9000030351371341 L 1.0999978839932831,0.9000037622720329 L 1.099998468584958,0.9000045505024811 L 1.0999989731015696,0.9000053922373883 L 1.0999993926843474,0.9000062793703875 L 1.0999997232924796,0.9000072033579027 L 1.0999999617420295,0.9000081553014293 L 1.1000001057365976,0.9000091260332306 L 1.100000153889437,0.9000101062046286 L 1.100000262260437,1.9000000953674316 L 1.100000262260437,1.9999997545137782 L 1.1000002737556769,1.9999999885047601 L 1.1000005077466586,2.0 L 1.9999999929323573,2.0 L 2.0000002269233392,1.9999999885047601 L 2.000000238418579,1.9999997545137782 L 2.000000238418579,1.8999999761600248 L 2.0000002384185485,1.8999999761587696 L 2.0000000000000306,2.454861775443651e-07 L 1.9999999885047655,1.1495234009642464e-08 L 1.9999997545166714,1.0077570988254351e-13 L 0.09999990463962952,2.3841857910067476e-07 L 0.09999990463492117,2.3841869468677724e-07 L 2.4548612789499427e-07,2.9802307755596284e-07 L 1.1495231578698378e-08,3.0951844860395515e-07 L 0.0,5.435093517777571e-07 L 0.0,0.10000026225788153 z M 1.200000036188474,0.8000000830208176 L 1.1999998021974698,0.8000000715256136 L 0.10001002384263198,0.8000002503378825 L 0.10000904367117272,0.8000002021853039 L 0.1000080729392857,0.8000000581909849 L 0.10000712099565055,0.7999998197416696 L 0.10000619700800581,0.7999994891337556 L 0.10000530987485845,0.7999990695511783 L 0.10000446813978649,0.7999985650347474 L 0.10000367990915958,0.7999979804432326 L 0.10000295277407033,0.7999973214065702 L 0.10000229373722783,0.7999965942716442 L 0.10000170914551773,0.799995806041162 L 0.10000120462887836,0.7999949643062151 L 0.10000078504608122,0.7999940771731716 L 0.10000045443793841,0.7999931531856088 L 0.10000021598838738,0.7999922012420327 L 0.10000007199382789,0.7999912305101814 L 0.10000002384100641,0.799990250338734 L 0.09999996423806404,0.10001019574107596 L 0.10000001234834849,0.10000921599990696 L 0.10000015621644802,0.1000082456858714 L 0.10000039445805319,0.10000729413540228 L 0.10000072478078574,0.10000637050438826 L 0.10000114400625602,0.10000548368007492 L 0.10000164810064573,0.10000464219555102 L 0.10000223221352156,0.10000385414764258 L 0.10000289072450642,0.10000312711900457 L 0.1000036172973592,0.10000246810516002 L 0.10000440494094241,0.10000188344718863 L 0.10000524607649157,0.10000137877071243 L 0.10000613261053852,0.1000009589317656 L 0.10000705601278745,0.10000062797006937 L 0.10000800739819396,0.10000038907016154 L 0.1000089776124577,0.10000024453075461 L 0.10000995732010559,0.10000019574261737 L 1.9012358186034493,0.09875411487965233 L 1.9012367996683597,0.0987541624384771 L 1.9012377713351853,0.09875430601347494 L 1.9012387242297688,0.09875454421950582 L 1.9012396491590575,0.09875487475847652 L 1.9012405371997945,0.0987552944415117 L 1.9012413797846046,0.0987557992197184 L 1.9012421687846495,0.09875638422324791 L 1.9012428965880495,0.09875704380827746 L 1.9012435561733199,0.09875777161145918 L 1.9012441411771106,0.09875856061131041 L 1.901244645955596,0.09875940319595353 L 1.901245065638925,0.09876029123655146 L 1.9012453961782019,0.09876121616573079 L 1.901245634384548,0.0987621690602354 L 1.9012457779598677,0.09876314072701364 L 1.901245825519017,0.09876412179190833 L 1.90000034069588,1.8999901022820804 L 1.900000291908052,1.8999910819898973 L 1.9000001473689212,1.8999920522043574 L 1.8999999084692543,1.8999930035899826 L 1.8999995775077623,1.8999939269924677 L 1.8999991576689819,1.8999948135267632 L 1.899998652992634,1.8999956546625685 L 1.8999980683347533,1.89999644230641 L 1.8999974093209624,1.8999971688795185 L 1.8999966822923426,1.899997827390752 L 1.8999958942444188,1.899998411503865 L 1.8999950527598488,1.8999989155984764 L 1.8999941659354616,1.899999334824149 L 1.8999932423043489,1.8999996651470616 L 1.8999922907537603,1.8999999033888215 L 1.8999913204395886,1.9000000472570486 L 1.8999903406982708,1.9000000953674316 L 1.2000102861001276,1.9000000953674316 L 1.200009305928859,1.9000000472147116 L 1.200008335197173,1.8999999032202886 L 1.200007383253744,1.8999996647709068 L 1.2000064592663044,1.899999334162964 L 1.2000055721333567,1.8999989145803944 L 1.200004730398473,1.8999984100640062 L 1.2000039421680189,1.8999978254725667 L 1.200003215033082,1.8999971664360098 L 1.2000025559963674,1.8999964393012156 L 1.2000019714047572,1.8999956510708882 L 1.2000014668881867,1.8999948093361139 L 1.2000010473054246,1.899993922203257 L 1.2000007166972815,1.8999929982158892 L 1.2000004782476936,1.8999920462725117 L 1.20000033425306,1.899991075540857 L 1.2000002861001275,1.899990095369599 L 1.200000047683769,0.800000317011852 L 1.2000000363685168,0.8000000866856757 L 1.200000036188474,0.8000000830208176 z" />
	<path fill-rule="evenodd" fill="#000000" stroke="#555555" stroke-width="0" opacity="1" d="M 0.20000014398770993,0.7000001563677671 L 0.20000035570416924,0.7000001668930054 L 0.9999998737230305,0.7000001668930054 L 0.9999999899566526,0.7000001611828128 L 1.0000001181242053,0.7000001563525788 L 1.0000002332964237,0.7000000896297819 L 1.000000324445212,0.7000000386204659 L 1.7999632057313095,0.2000228951057781 L 1.7999640748082546,0.2000224103232919 L 1.7999649877649413,0.20002201431965105 L 1.799965935560279,0.2000217110165144 L 1.7999669088081678,0.2000215034175196 L 1.7999678978704476,0.20002139357853774 L 1.7999688929523479,0.20002138258731392 L 1.7999698841994851,0.20002147055269517 L 1.7999708617954515,0.20002165660355264 L 1.7999718160590286,0.20002193889740827 L 1.7999727375400598,0.20002231463868123 L 1.7999736171130378,0.20002278010637262 L 1.7999744460674738,0.20002333069091494 L 1.7999752161941593,0.20002396093982103 L 1.7999759198664618,0.20002466461168059 L 1.7999765501158527,0.2000254347379693 L 1.7999771007009169,0.20002626369205873 L 1.799977566169162,0.2000271432647437 L 1.7999779419110151,0.20002806474553847 L 1.7999782242054714,0.20002901900893774 L 1.7999784102569443,0.20002999660478712 L 1.7999784982229496,0.20003098785186896 L 1.799978487232352,0.20003198293377616 L 1.799978377393993,0.20003297199612513 L 1.7999781697956108,0.2000339452441444 L 1.7999778664930708,0.20003489303967326 L 1.7999774704900047,0.20003580599660922 L 1.7999769857080656,0.20003667507385942 L 1.3000003190072658,0.9999999139732987 L 1.3000002679993188,1.0000000051197746 L 1.3000002012752208,1.0000001202943436 L 1.3000001964449395,1.0000002484641815 L 1.3000001907348633,1.0000003646954703 L 1.3000001907348633,1.7999999423190303 L 1.3000002012601029,1.8000001540354904 L 1.3000003223949699,1.7999999800786424 L 1.8000000624624046,1.0000002052359827 L 1.8000001134714818,1.000000114087532 L 1.8000001801944523,0.9999999989149113 L 1.800000185024654,0.9999998707469634 L 1.8000001907347902,0.9999997545137719 L 1.7999999523163581,0.20000017689025254 L 1.7999999446434232,0.20000002254916183 L 1.7999999413257428,0.19999994027774973 L 1.7999998582412124,0.19999993614731104 L 1.799999703900475,0.1999999284744633 L 1.000000245486235,0.20000004768367924 L 1.0000001292536902,0.2000000533938357 L 1.0000000010850616,0.20000005822411276 L 0.9999998859117304,0.20000012494755132 L 0.9999997947640726,0.20000017595621822 L 0.2000003179445232,0.7000000352328547 L 0.20000014398770993,0.7000001563677671 z" />
</svg>